<?xml version="1.0" encoding="UTF-8"?>
<svg width="84px" height="84px" viewBox="0 0 84 84" version="1.1" xmlns="http://www.w3.org/2000/svg" xmlns:xlink="http://www.w3.org/1999/xlink">
    <!-- Generator: Sketch 49.3 (51167) - http://www.bohemiancoding.com/sketch -->
    <title>icon/calendar</title>
    <desc>Created with Sketch.</desc>
    <defs></defs>
    <g id="icon/calendar" stroke="none" stroke-width="1" fill="none" fill-rule="evenodd">
        <g id="np_calendar-text_783738_000000" transform="translate(8.000000, 10.000000)" fill="#095FEA" fill-rule="nonzero">
            <path d="M30.7534657,47.9303432 C30.2389784,47.0981233 28.9824795,47 28.0795149,47 C27.6070309,47 27.134529,47.0290732 26.725068,47.0581464 C26.4345746,47.076317 26.1755838,47.0944875 25.9830923,47.0944875 L24.5061655,47.0944875 C23.7081913,47.0944875 22.8857032,47.1380983 22.0912413,47.1780733 C21.0307641,47.2325858 19.9353438,47.2907285 18.8748666,47.2471224 L18.580879,47.2325858 C18.3988883,47.225318 18.2483912,47.2180492 18.1258934,47.2180492 C17.1388862,47.2180492 17.1144261,47.8431282 17.0793934,48.7080868 L17.0723931,48.853453 C17.0653938,49.0351583 17.0513942,49.2205013 17.0408942,49.4022066 C16.9673964,50.4452143 16.8833996,51.626285 17.8528725,52.2041212 C18.9063611,52.8364661 20.523329,52.9200482 22.1122528,52.9200482 L23.3302426,52.9127803 L23.6032376,52.9127803 C24.2227243,52.9200482 24.8386989,52.9382187 25.4581767,52.9527562 C26.3226502,52.9745607 27.1871416,53 28.0515793,53 C28.9265536,53 29.699996,52.9745607 30.4105049,52.9273169 L30.8024944,52.8982437 L30.8864922,51.7316864 C30.9634897,50.7286834 31.0509844,49.5875244 30.9634897,48.6245262 C30.9319907,48.3410599 30.8654968,48.1084741 30.7534998,47.9304065 L30.7534657,47.9303432 Z" id="Shape"></path>
            <path d="M47.5532981,35.1170548 C46.9032328,34.8704711 45.8517465,35.0634501 45.0951376,35.2385581 C44.9459438,35.2742955 44.8073988,35.3064585 44.6830767,35.3314719 C43.7701444,35.5172994 42.5588427,35.4708425 41.4078332,35.3850766 C40.3279376,35.3064558 39.1521019,35.249274 38.2214366,35.3922244 C36.6477446,35.631663 35.0989698,35.6423853 33.4613481,35.6531075 L32.3814525,35.6638288 C31.2695466,35.6781236 30.1506385,35.7567426 29.070743,35.8353661 C27.8842674,35.9211347 26.6623259,36.0069034 25.4544798,36.0069034 C24.9855823,36.0069034 24.4597937,35.971166 23.9092516,35.939003 C22.6979498,35.8603813 21.2912211,35.8174997 20.4777756,35.9640191 C20.019527,35.9747395 19.5825945,35.9961821 19.18472,36.0354929 C19.0603888,36.0462142 18.8152821,36.0569346 18.509783,36.0676559 C16.4423856,36.1391298 15.7958123,36.2320481 15.5080827,36.4964992 C15.0782525,36.8896077 14.9965532,37.6186732 15.0001089,38.1582609 C15.010766,39.1946206 15.3624446,40.563351 15.9343209,41.0636909 C16.6199159,41.6640714 17.7139887,41.742695 18.591455,41.742695 C18.9893112,41.742695 19.3978255,41.7248267 19.7921169,41.7069585 C20.5096768,41.6747946 21.1988457,41.6569263 21.5967019,41.7248267 C22.7121544,41.9106542 23.9482824,42 25.3762908,42 C26.8895995,42 28.4277345,41.899932 29.9125795,41.8034503 C30.8077606,41.7462712 31.6922473,41.6890921 32.5554362,41.6533574 C34.6442042,41.5675888 36.7365189,41.5247091 38.8287426,41.478243 C41.1838697,41.4282109 43.6207505,41.3746071 46.0185278,41.2638168 C46.2387719,41.2530965 46.4448024,41.249523 46.6330725,41.2459486 C47.9509543,41.2209334 48.9918371,41.1994908 48.9989303,38.990988 C49.0024833,38.5371324 49.0024833,37.9117211 48.9101234,37.289887 C48.7396136,36.1248973 48.281365,35.3958409 47.553138,35.1170814 L47.5532981,35.1170548 Z" id="Shape"></path>
            <path d="M68.7032983,18.3655582 C68.6431535,16.8921508 68.6608439,15.4223052 68.4804111,13.9525509 C68.1867605,11.5622937 67.440289,8.02330299 64.5285085,7.71652957 C62.9364442,7.54885904 61.3620412,7.72723148 59.7805737,7.49891133 C58.4325993,7.30270055 57.0775604,7.11718437 55.7119246,7.14929557 C54.2082579,7.18497043 53.6174606,7.74864078 53.5820472,6.05051886 L53.5749717,5.76868734 C53.5749717,4.82690482 53.479446,3.22143596 53.4476011,2.73273559 C53.7624817,2.16193063 53.8226211,1.38773645 53.3697668,0.859764694 C53.3379255,0.795549593 53.2990079,0.734899968 53.2494789,0.674257649 L53.2813211,0.631447277 C53.2140999,0.574366781 53.1504182,0.531551843 53.0796548,0.492316993 C52.7329383,0.189078001 52.2340891,0.0178365133 52.1810142,0 L52.1314834,0.107028213 C51.7316921,0.0463804144 51.2682201,0.10346091 50.850713,0.164108709 C50.2987889,0.24616215 49.7468286,0.253297668 49.0888273,0.164108709 C48.7385695,0.117731034 48.3776967,0.0677842304 48.0203563,0.0677842304 C47.333997,0.0677842304 46.8068804,0.260433187 46.4176951,0.652854746 C45.568588,1.50906218 45.5862766,2.4936779 45.6004329,3.36422396 L45.6039707,3.71741067 C45.6039707,3.77092295 45.6145847,3.86724469 45.6322742,3.97784386 C45.6393506,4.02422153 45.6499646,4.09913763 45.6570401,4.1633509 L45.6251988,4.25610443 C45.4659924,4.73415586 45.4589187,5.3335102 45.6004329,5.94714836 L45.5968952,5.99352604 C45.5827434,6.16833848 45.5615153,6.51082146 45.5509013,6.92106126 C44.4930271,6.7854928 43.343223,6.71057579 42.3348914,6.82473679 C41.6556058,6.89965471 29.6231931,7.05305877 29.0924446,7.20289279 C28.6360462,7.33131934 28.2044191,7.44905128 27.6843308,7.51683551 L22.8161172,7.24569859 C22.8231927,6.86397164 22.8090418,6.48224468 22.7984277,6.15760735 C22.7913514,5.95782561 22.7842759,5.77945135 22.7842759,5.63317915 L22.7630478,5.49047791 C22.6816748,5.24431942 22.6498335,4.69135097 22.6498335,4.40238667 C22.6498335,4.07060743 22.3738715,3.68888047 22.1014508,3.39274686 C22.0519191,2.3331502 21.5849129,1.53046143 20.7676055,1.11665067 C20.4704226,0.966816652 20.1130821,0.941838227 19.8512945,0.941838227 C18.5033201,0.720649023 17.3039734,0.820544457 16.5114735,1.28075025 C16.08692,1.56615273 15.89941,1.85868798 15.6835965,2.19403818 L15.4996278,2.45447137 L15.4996278,2.59360165 C15.4925515,2.63284472 15.450097,2.74343567 15.4111794,2.82549459 L15.3722617,2.93965558 C15.2307439,3.65673274 15.0821524,4.39881571 15.2272026,5.08378166 C15.2272026,5.37631692 15.2590439,5.70096338 15.2908851,6.02556418 C15.3121133,6.23247869 15.3333405,6.43583139 15.3439546,6.63204216 C15.2944229,6.80685461 15.2519702,6.98165792 15.2059781,7.15289941 C15.0538453,7.75937739 7.86824421,7.55246288 7.13950659,7.5881359 C5.89414962,7.6452164 3.72541706,7.71300063 2.72768234,8.61914665 C1.65567906,9.58595326 1.5389325,11.8584876 1.28062282,13.2105191 C0.771158605,15.8826169 0.73578141,18.6045803 0.62256714,21.3123877 C0.523500125,23.5920457 0.983439891,25.8717037 0.55888366,28.1156521 C0.491662461,28.4652679 0.42443945,28.8255874 0.42443945,29.1966197 C0.42443945,29.9850429 0.293536582,31.5904387 0.293536582,31.5904387 C-0.329141904,35.4754743 0.155560087,47.8086059 0.668556588,51.7037789 L0.838377993,52.9952594 C1.11434004,54.664841 1.38676075,56.1846435 1.94226241,57.857787 C2.01655905,58.082538 2.12623107,58.31086 2.23944534,58.5356201 C2.33142967,58.7211272 2.42341401,58.9066434 2.51186605,59.1528019 C2.62862166,59.3882566 2.81259032,59.6130168 2.92226325,59.7307396 C3.20175758,60.6368948 3.7289104,61.3931976 4.50019846,62.0103976 C4.79030777,62.299371 5.34576415,62.5526623 5.54738518,62.6382831 C6.14530144,63.0663868 7.26326066,63.4481137 7.3340875,63.4659503 C7.472064,63.5337336 7.58881961,63.6050805 7.69849254,63.6693029 C8.0239881,63.858381 8.331786,64.0367552 8.79522182,64.0617336 C9.13486463,64.1937311 9.71506512,64.3007594 9.86016053,64.3221668 C11.466354,64.7788108 13.2247075,65 15.2343061,65 C16.9360524,65 18.6554602,64.846595 20.3183514,64.696761 C21.2311301,64.6147076 22.1403766,64.5326523 23.0213647,64.4755718 C23.4848368,64.4755718 23.9518049,64.5076803 24.4153494,64.5433551 C26.0923697,64.6646489 27.7692995,64.5469224 29.3437024,64.4006539 C30.443964,64.2971966 42.9647377,64.2008721 43.9800433,64.2008721 C44.4930488,64.236547 44.9848426,64.2864929 45.4694902,64.3328697 C46.4530052,64.4256232 47.383536,64.5148149 48.3811801,64.5148149 C48.7385115,64.5148149 49.1029256,64.5041121 49.4461188,64.47914 C49.8954346,64.47914 50.3447594,64.4862746 50.8011578,64.4934092 C53.0725078,64.5326523 55.4783563,64.6004374 57.9017757,63.6229362 C58.3900099,63.4267255 58.8711615,63.1662923 59.2957603,62.9343993 C59.4868117,62.8309421 59.6707803,62.7310466 59.8406017,62.6489968 C60.0281118,62.5526724 60.2156218,62.4385114 60.4243617,62.3136467 C60.4738925,62.317214 60.5234197,62.317214 60.5694209,62.317214 C61.5317422,62.317214 62.4940635,61.7142978 63.5377179,60.4513667 C63.7393842,60.1659642 64.0047222,59.830614 64.2912993,59.466751 C64.9635112,58.6141145 65.7984982,57.5509469 66.3044301,56.5270598 C67.5002445,53.6302018 68.055719,42.0751915 68.098197,38.4932763 L68.1088102,38.4183583 L68.1052725,38.0294986 L68.1512664,37.6656082 C68.268022,36.7273875 68.3812363,35.8390323 68.3812363,34.9614539 C68.3812363,34.4120564 68.2998633,33.4631137 68.2609484,33.0564266 C68.5439841,32.6746997 68.6395098,32.1930864 68.5156805,31.7400134 L68.5121428,31.1977487 C68.4378462,30.6804533 68.3989285,30.1060956 68.3635513,29.5495379 L68.3564759,29.5031594 C68.4307725,27.573108 68.5369123,25.5110865 68.9190059,23.381299 C69.1666644,21.672446 68.7739467,20.0384825 68.7031923,18.365339 L68.7032983,18.3655582 Z M64.5674452,32.7352305 C64.5285284,32.9385832 64.4896108,33.1419268 64.4896108,33.3024646 L64.4896108,36.5917624 C64.4896108,36.9057051 64.4613072,37.2160769 64.429465,37.5443217 C64.394086,37.9331814 64.3551684,38.3398777 64.3551684,38.7822835 C64.3551684,38.9321175 64.2844095,39.2888752 64.2278069,39.5243299 C63.8598605,41.6327465 63.3468549,52.5204172 62.0943972,54.6291991 C61.6698437,55.4854065 61.1356082,56.4129417 60.6296762,57.1835741 L60.5766068,57.2906023 C60.4492453,57.6759002 60.3395633,57.872111 60.1414383,58.0718927 L60.0069941,58.2038902 L60.0069941,58.2467006 C59.9928423,58.2538352 59.9822283,58.2609707 59.9680765,58.2681053 C58.7687298,58.9388057 57.5410343,59.4917285 56.377101,60.0162298 C55.2130771,60.4086605 53.801431,60.4586082 52.7047018,60.4586082 C52.156319,60.4586082 51.6115048,60.444338 51.077224,60.4300679 C50.5642184,60.4157978 50.0653601,60.405095 49.5913093,60.405095 C47.7622196,60.405095 45.8305124,60.5085522 43.9660093,60.6084477 C42.0590281,60.7083431 28.6041914,60.8153622 26.7538173,60.8189331 C25.9825474,60.7226087 25.1900112,60.6227224 24.3904468,60.6227224 C24.0331154,60.6227224 23.7005462,60.6405598 23.4175286,60.6798029 C19.5222332,61.1935273 15.0220112,61.204231 11.1161189,60.8296369 C10.7658611,60.5478053 10.3802261,60.3052087 9.94149819,60.0911614 C9.11007976,59.2777689 8.42723468,58.0433872 8.09465644,56.7198503 C7.83285071,56.0634246 7.70548013,55.5460927 7.57104497,54.99675 L7.53566506,54.9039964 C7.49674833,54.8255112 7.4578307,54.7184894 7.41890945,54.615023 C7.34815053,54.425945 7.27739161,54.236867 7.17479231,54.087033 C7.17479231,53.6018488 7.15710281,53.0988554 7.0403481,52.585131 C7.03327266,52.2212405 6.94128108,51.8787576 6.83868178,51.4827924 L6.77146058,51.2152265 L6.77146058,50.9976082 C6.77146058,49.9273261 6.69362623,40.1705798 6.62286912,39.1002063 C6.52734345,37.6838794 6.42474415,36.2212488 6.49903988,34.8441019 C6.61579549,33.2958049 6.84222403,31.8437684 7.0757262,30.30981 L7.17479322,29.660517 C7.23493807,29.1682 7.32338468,28.6437536 7.41183673,28.1086582 C7.4755193,27.7269312 7.53919825,27.3380715 7.59580539,26.9456773 C8.79868436,27.0420018 9.92729478,27.1597338 11.480504,27.3238333 L13.245922,27.3238333 C13.6067948,27.3238333 14.0454956,27.2346453 14.2259048,27.1918358 C15.4393806,27.3202715 16.8086393,27.1989713 18.0433088,27.0669711 C18.8818009,26.977783 19.6743189,26.8921587 20.4880125,26.8921587 C20.6896788,26.8921587 20.8948774,26.8992933 21.1248382,26.9099961 C22.2534486,26.9099961 23.1237494,26.8778876 24.0188667,26.8457801 C24.9528391,26.8101052 25.9187833,26.7744294 27.2490057,26.7744294 C31.6183519,26.6460029 47.5071143,26.7423219 52.7113479,27.0491282 C53.970834,27.0491282 54.8164088,26.970643 55.888412,26.8707539 C56.2174399,26.8386464 56.571239,26.8065388 56.9250019,26.7744294 C57.4733846,26.7744294 57.9934729,26.8065379 58.4958725,26.8386455 C59.5784727,26.9028606 60.6292822,26.9278335 61.4641696,26.7708621 C62.3309652,26.6638339 63.4524839,26.8350782 64.4112729,26.5603767 C64.4289624,26.8529119 64.4395764,27.1311816 64.4537282,27.3809111 C64.4183492,27.6984248 64.3829693,28.0159293 64.3652798,28.2620878 C64.2166883,28.865004 64.2166883,29.4500928 64.223762,30.0922255 C64.2839068,30.4561159 64.3688211,30.9234636 64.4466492,31.3479964 C64.5350976,31.8331806 64.6164706,32.2541516 64.6235442,32.3469508 C64.6270819,32.4575408 64.5952406,32.5966802 64.5669371,32.7358105 L64.5674452,32.7352305 Z" id="Shape"></path>
        </g>
    </g>
</svg>