<?xml version="1.0" encoding="UTF-8"?>
<svg width="84px" height="84px" viewBox="0 0 84 84" version="1.1" xmlns="http://www.w3.org/2000/svg" xmlns:xlink="http://www.w3.org/1999/xlink">
    <!-- Generator: Sketch 49.3 (51167) - http://www.bohemiancoding.com/sketch -->
    <title>icon/spreadsheets</title>
    <desc>Created with Sketch.</desc>
    <defs></defs>
    <g id="icon/spreadsheets" stroke="none" stroke-width="1" fill="none" fill-rule="evenodd">
        <g id="np_border-all_754756_000000" transform="translate(15.000000, 12.000000)" fill="#095FEA" fill-rule="nonzero">
            <path d="M52.7318,48.2196 C52.6716432,46.83602 52.611482,45.40514 52.8177375,44.11176 C53.7028965,38.34963 53.7028965,32.51446 53.7028965,26.86816 C53.7028965,24.06228 53.7028965,21.15762 53.8103192,18.33887 C53.9907852,16.34941 54.1368872,14.2439 53.9778932,12.34904 C53.9778932,11.979506 53.9950818,11.588489 54.0122682,11.19316 C54.0509409,10.342376 54.0896125,9.46583 53.9607068,8.58495 C53.8360988,8.082217 53.7071898,7.25725 53.6599228,6.94782 C53.7716388,6.462269 53.5525012,5.82208 53.4407808,5.54279 L53.3204628,5.358023 C53.2560094,5.2935696 53.2044458,5.233415 53.1228038,5.147472 C53.0669447,4.941222 52.9767128,4.747864 52.8220198,4.533023 C52.4782698,4.189273 51.8208438,3.89279 51.5630698,3.785364 C51.5415857,3.7681765 51.5201016,3.7552856 51.4986164,3.7423958 L51.4986164,3.5447368 L50.2611164,3.5447368 C49.5521334,3.1838048 48.8388164,3.1322368 48.2845264,3.1322368 C47.9536684,3.1322368 47.6228104,3.153722 47.2876514,3.1752061 C46.9696854,3.1966902 46.6474184,3.2138777 46.4067934,3.222472 L45.4958614,3.097864 C44.6321854,2.977546 43.7341014,2.852938 43.1067714,2.72833 C40.6231914,2.375989 37.9462314,2.217006 34.4142414,2.217006 C33.0049214,2.217006 31.5912014,2.2384901 30.1731914,2.2642719 C28.7594714,2.285756 27.3415714,2.3115367 25.9192714,2.3115367 C24.4325114,2.3115367 23.1305514,2.285756 21.9403514,2.2298969 C19.1646114,2.0666129 16.1610614,1.5638799 13.2521114,1.0825969 L12.7450774,0.9966594 C11.2798774,0.7474434 9.2688574,0.4036934 7.3352774,0.4036934 C4.9290274,0.4036934 3.3177474,0.9365004 2.4024374,2.0279534 C0.9286574,3.7940034 1.3540054,6.1229234 1.7321194,8.1767334 C1.8954034,9.0833754 2.0543864,9.9384934 2.0543864,10.7290634 C2.1360262,12.2673034 2.0973546,13.8658234 2.0543864,15.5544334 C2.0114171,17.2258834 1.9684478,18.9532134 2.0543864,20.6032134 C2.0543864,21.7203734 2.2348524,22.7215934 2.4067274,23.6883834 C2.5270454,24.3544004 2.6516534,25.0419334 2.7118014,25.7165634 C2.7118014,26.3653874 2.6731298,27.0142334 2.6301605,27.6630134 C2.5871912,28.3333204 2.5485196,29.0079834 2.5485196,29.6782134 C2.5485196,30.2196224 2.5657071,30.7825034 2.5828946,31.3582434 C2.6172696,32.5184134 2.6559412,33.7214834 2.5485196,34.9589834 C2.5485196,36.3984434 2.3809456,37.7648634 2.2004686,39.2086134 C2.0801506,40.1711134 1.9555426,41.1679334 1.8867926,42.2207434 C1.8867926,45.7355734 1.5000766,49.1816534 1.0832756,52.3785834 C0.9028096,53.7707434 0.3528096,57.9989234 3.7344956,58.8840934 C4.0438706,58.9657343 4.3790296,59.0044114 4.7528536,59.0044114 C5.2598876,59.0044114 5.7626206,58.9313648 6.2439036,58.8626104 C6.5317956,58.8196411 6.8153866,58.7809695 7.0860856,58.7551877 C7.3524946,58.7337036 7.6146026,58.729407 7.8767106,58.7251104 C8.3665516,58.7122195 8.8778866,58.7036263 9.4192406,58.5919114 C10.1497066,58.4415194 10.8415406,58.1665194 11.5074806,57.9001104 C11.9414636,57.7282354 12.3754466,57.5563604 12.8137306,57.4188604 C13.7848216,57.1223774 14.8332206,56.9891784 16.2169106,56.9891784 C16.7712116,56.9891784 17.3297806,57.0106625 17.8840706,57.02785 C18.4512636,57.0493341 19.0183906,57.0665216 19.5899506,57.0665216 C20.6727686,57.0665216 21.5579606,56.993475 22.3699806,56.8258966 C25.4637306,56.2071466 28.2524506,55.7946466 31.8058906,55.7946466 L31.9777656,55.7688659 C32.2613566,55.6743341 33.1077956,55.6313659 33.6191856,55.6313659 C33.9285606,55.6313659 34.6418446,55.5239432 34.9297256,55.4766839 C35.7934016,55.6356669 36.5625656,55.6485589 37.7484756,55.4423089 C38.1781576,55.3005079 39.0761756,55.1458259 39.2266556,55.1415249 C39.9399396,55.1415249 40.6961456,55.1801965 41.4653756,55.2188692 C42.2989666,55.2618374 43.1540956,55.3048067 44.0091256,55.3048067 L46.4239556,55.3005101 L46.7934896,55.3434783 C47.6184896,55.4423067 48.6711896,55.5411373 49.4704496,55.4165249 C49.7325576,55.5325419 50.0118586,55.5883999 50.2868586,55.5883999 C51.1849096,55.5883999 51.9154086,54.9911329 52.2891886,53.9341099 C52.8993476,52.1423199 52.8134046,50.1485699 52.7317626,48.2192799 L52.7318,48.2196 Z M47.92788,49.74068 L47.92788,50.733254 C47.579829,50.7246597 47.218897,50.698879 46.853664,50.664504 L46.8579606,50.5699722 C46.1876426,50.5313006 45.6333306,50.492629 45.1692406,50.4582562 C44.5891666,50.3809119 44.0047806,50.2992732 43.3602906,50.2391142 L40.0602906,50.2391142 L40.0602906,50.2434108 C39.4028646,50.2477085 38.7196106,50.2691926 38.1138406,50.4195868 L38.0021246,50.462555 C37.8173576,50.5570868 37.4220506,50.673106 37.1814256,50.737555 C35.4712556,50.7977118 33.7782456,50.7676334 32.1025056,50.7418516 C31.6427386,50.7332584 31.1872726,50.7246641 30.7317956,50.7203675 C30.7360922,50.3551345 30.727499,50.0328675 30.7232024,49.7836515 L30.7146081,49.4914695 C30.8821821,46.0152495 30.8821821,41.7355895 30.8821821,38.9082595 C30.8821821,36.8328895 30.8692912,34.7445395 30.8564003,32.6520095 C32.1540703,32.5531811 33.4345803,32.3598275 34.6763703,32.1750605 L35.6130863,32.0332595 C36.2962853,32.0332595 37.7572063,31.8699755 37.7572063,31.8699755 C40.8509563,31.8699755 41.8950763,31.8699755 45.1091663,31.6981005 C45.6763593,31.6035698 47.1759563,31.646538 47.8334263,31.6852107 C47.8678013,33.1375407 47.9322547,34.5898707 47.9967103,36.0422007 C48.0310853,36.8414167 48.0654603,37.6406107 48.0955387,38.4184207 C48.0955387,39.1188127 48.1299137,39.9051807 48.1642887,40.7172007 C48.2373353,42.3972307 48.3146807,44.1375407 48.104133,45.3964907 C48.0181955,45.7875077 47.940849,46.0882917 47.8764,46.3418087 C47.695934,47.0593827 47.597099,47.4546787 47.597099,48.4859287 C47.6013967,48.8382697 47.820531,49.4484287 47.927957,49.7405887 L47.92788,49.74068 Z M47.9321777,25.50658 C47.9063959,25.85033 47.893505,26.19408 47.8806152,26.53783 C46.1489952,26.4604868 44.2712952,26.649546 42.6556152,26.808529 C41.9337402,26.8815756 41.2634552,26.95033 40.6145652,26.988995 C39.8153492,27.147978 38.2427452,27.302671 38.0836852,27.306961 C36.4336852,27.306961 34.5645652,27.306961 32.9016952,27.64212 C32.2915362,27.7151666 31.5052452,27.792512 30.8220352,27.852671 C30.8005511,23.878041 30.7876602,19.331961 30.8735977,14.875971 C30.9896147,13.732961 30.950942,12.525601 30.9122693,11.361141 C30.8950829,10.798249 30.8778943,10.243981 30.8778943,9.702561 L30.8778943,7.145941 C31.5095363,7.1287535 32.1411343,7.1158626 32.7641743,7.1158626 C33.9500843,7.2791466 35.4454243,7.2791466 36.7645443,7.2791466 C37.3704023,7.2791466 38.4618443,7.1545386 38.7454243,7.1201636 L39.4887823,7.2061011 C42.0196623,7.5068851 44.4130423,7.7861751 46.9653723,7.9365671 L47.1458383,7.9580512 C47.4552133,7.9967228 48.0395883,8.0697672 48.7185083,8.1127332 C48.7442901,9.1139092 48.825931,10.2784132 48.8774913,11.0173932 C48.8989754,11.3611432 48.9204595,11.6060692 48.9204595,11.6791092 C48.9204595,12.1990352 49.0751415,13.2860992 49.0837435,13.3291092 C49.0837435,14.6139092 48.9204595,17.0630592 48.9204595,17.1232292 C48.9204595,18.6357292 48.6669425,20.1998192 48.4177265,21.7080292 C48.2157775,22.9583992 48.0052265,24.2389092 47.9321755,25.5064392 L47.9321777,25.50658 Z M25.4899777,39.86268 L25.4126334,40.919714 C25.2751334,42.771674 25.1591164,44.370084 25.1591164,46.338094 L25.1591164,49.870084 C24.9012984,50.162266 24.8454404,50.566175 24.8325484,50.884141 C24.1966164,50.9400012 23.6680884,51.000158 23.1782584,51.068908 C22.4091164,51.1462523 21.6098784,51.3568 20.8407584,51.558749 C19.9212244,51.803675 18.9716384,52.052891 18.0821784,52.052891 L16.5223784,52.156016 C14.6231184,52.280624 13.1278884,52.383749 11.1856184,52.383749 C10.7043684,52.383749 10.1071014,52.452499 9.5786284,52.512658 C9.4067534,52.5341421 9.2434694,52.5513307 9.0973784,52.5685171 L8.8137874,52.547033 C8.8223806,51.180613 8.5989464,49.775583 8.4786284,49.053653 L8.4356602,48.310295 C8.4356602,47.661471 8.3969875,46.931005 8.3583159,46.183335 C8.3153477,45.409903 8.2723784,44.610665 8.2723784,43.897425 C8.3969864,42.281745 8.7020604,35.965435 8.8481624,31.157225 C9.4239464,31.2001932 9.9653224,31.2087875 10.3606624,31.2087875 L10.8590944,31.2087875 C11.6454184,31.2087875 13.0934144,31.3677705 13.1708544,31.3720715 C14.5201144,31.3720715 16.5826144,31.4794942 17.4076144,31.5783215 L17.8802734,31.6943385 C19.0017234,31.8533215 20.1618934,32.0209065 21.4552734,32.3431625 L23.2384834,32.36035 C24.0591824,32.36035 24.7939934,32.4462875 25.6404434,32.5666 C25.6189582,34.07481 25.57599,34.62481 25.5545059,34.82248 L25.4943491,34.8826368 L25.4899777,39.86268 Z M19.7364277,26.82988 L15.3149777,26.8126925 L14.5974037,26.8255834 C13.9184947,26.6880834 12.8356437,26.5591744 12.4145637,26.5076174 C11.9333137,26.1209014 11.3833137,26.0736344 11.0008437,26.0736344 C10.7645197,26.0736344 10.5238947,26.0951185 10.2832697,26.1166037 L10.1801447,26.1294935 L9.9781957,26.1209003 C9.6215537,26.1037128 9.2692127,26.0908219 8.9254627,26.0865253 C8.9168695,25.2701163 8.9039786,24.5740253 8.8910877,23.9208453 C8.8567127,22.3224353 8.8266354,21.0590853 8.9297604,18.9837153 C9.0156968,17.7204753 8.9727286,16.4442553 8.9297604,15.2153353 C8.8910877,14.0121553 8.8481195,12.7660753 8.9254627,11.6016153 C9.0114002,11.0086493 9.0543717,10.4157053 9.0930367,9.8226953 C9.1317083,9.2598033 9.170381,8.6969553 9.2563207,8.0566453 C9.2563207,7.5367193 9.1016387,6.7332353 9.0930367,6.7332353 L9.101631,6.1574513 C9.1574901,5.9941673 9.1961617,5.8137013 9.217648,5.6418263 C10.725858,5.6676081 12.943018,5.8008093 12.998898,5.8008093 C13.35983,5.8008093 13.995773,5.9125253 14.206368,5.9554913 C16.109918,6.3636903 18.034918,6.4582243 19.895458,6.5527583 C21.390798,6.625806 22.941908,6.7031503 24.424378,6.9437753 C25.571678,7.1328433 25.571678,7.1328433 25.545828,8.1769853 L25.5329382,8.7140933 C25.511453,10.3941233 25.6575462,12.0699733 25.7950462,13.6898333 C25.9712222,15.7737833 26.1602792,17.9265933 25.9798132,20.1007433 C25.9798132,20.9601183 25.9798132,23.4995233 25.8809848,24.0968233 L25.8122348,24.1655733 L25.8122348,24.3933063 C25.8122348,25.1280733 25.7778598,25.9143863 25.7434848,26.7393863 C25.7305939,27.0530623 25.717703,27.3710283 25.7048132,27.6932953 C24.4587332,27.6202487 23.0923132,27.5042273 21.7130232,27.1604773 C21.3606822,27.0745398 21.0083412,27.0272783 20.6516992,26.9843013 C20.3552162,26.9413331 20.0458412,26.9069581 19.7364662,26.8296193 L19.7364277,26.82988 Z" id="Shape"></path>
        </g>
    </g>
</svg>