<?xml version="1.0" encoding="UTF-8"?>
<svg width="84px" height="84px" viewBox="0 0 84 84" version="1.1" xmlns="http://www.w3.org/2000/svg" xmlns:xlink="http://www.w3.org/1999/xlink">
    <!-- Generator: Sketch 49.3 (51167) - http://www.bohemiancoding.com/sketch -->
    <title>icon/twitter</title>
    <desc>Created with Sketch.</desc>
    <defs></defs>
    <g id="icon/twitter" stroke="none" stroke-width="1" fill="none" fill-rule="evenodd">
        <path d="M70,26.4975586 C68.5249023,28.7231445 66.6875,30.6123047 64.5913086,32.1391602 L64.5913086,33.5625 C64.5913086,47.925293 53.6704102,64.487793 33.6918945,64.487793 C27.5585938,64.487793 21.7875977,63.1420898 17,60.0625 C17.8540039,60.1918945 18.7080078,60.2436523 19.5878906,60.2436523 C24.6601562,60.2436523 29.3959961,58.0439453 33.0708008,55.09375 C28.3608398,55.0419922 24.2978516,51.8330078 22.9521484,47.5371094 C23.625,47.6665039 24.2978516,47.7441406 24.9707031,47.7441406 C25.9541016,47.7441406 26.9375,47.6147461 27.8691406,47.355957 C22.9003906,46.3725586 19.1479492,41.9731445 19.1479492,36.6938477 L19.1479492,36.5644531 C20.6230469,37.3666992 22.2792969,37.8583984 24.0649414,37.9101562 C21.1147461,35.9433594 19.199707,32.6308594 19.199707,28.9042969 C19.199707,26.8857422 19.769043,25.2294922 20.6748047,23.625 C26.0834961,30.1982422 34.0541992,34.2871094 43.0600586,34.7788086 C42.8789062,34.0024414 42.8271484,33.1225586 42.8271484,32.2685547 C42.8271484,26.2646484 47.6665039,21.425293 53.6704102,21.425293 C56.8017578,21.425293 59.6225586,22.7709961 61.6669922,24.8413086 C64.0996094,24.3496094 66.4545898,23.4438477 68.5249023,22.2016602 C67.7226562,24.737793 66.0146484,26.8857422 63.7373047,28.2314453 C65.9628906,27.9726562 68.0332031,27.3774414 70,26.4975586 Z" id="twitter" fill="#FFFFFF"></path>
    </g>
</svg>