<?xml version="1.0" encoding="UTF-8"?>
<svg width="84px" height="84px" viewBox="0 0 84 84" version="1.1" xmlns="http://www.w3.org/2000/svg" xmlns:xlink="http://www.w3.org/1999/xlink">
    <!-- Generator: Sketch 49.3 (51167) - http://www.bohemiancoding.com/sketch -->
    <title>icon/clouds</title>
    <desc>Created with Sketch.</desc>
    <defs></defs>
    <g id="icon/clouds" stroke="none" stroke-width="1" fill="none" fill-rule="evenodd">
        <g id="np_cloud_783812_000000" transform="translate(11.000000, 18.000000)" fill="#095FEA" fill-rule="nonzero">
            <path d="M61.0061765,29.5858529 C60.7283709,28.5993235 60.3615315,27.5557176 59.9733294,26.6439529 C59.1684144,24.7598824 57.6903618,23.5097618 56.2158559,22.4377088 C55.881065,22.1955259 55.3931341,21.9462129 54.8803029,21.6862141 C54.0540162,21.2623894 52.9179118,20.68537 52.7255294,20.1974847 C52.51183,19.6561244 52.6614205,18.5235759 52.807446,17.4300965 C52.9463442,16.3830259 53.0923725,15.2967494 52.9499092,14.5025112 C52.5973116,12.5650112 51.8600769,10.7272582 50.8378975,9.22421412 L50.7274919,9.01407971 C50.6491366,8.86093059 50.5672219,8.70778147 50.4674931,8.54395559 C49.5735351,7.25462912 48.4089107,6.17902029 47.2834284,5.14261735 C46.8133042,4.70810676 46.3467725,4.27715206 45.8730195,3.80706441 C45.5524795,3.53637971 45.2248095,3.23364647 44.890046,2.92022735 C43.7218931,1.83750676 42.4004725,0.605165588 40.8440901,0.263253824 C40.1032813,0.0994188235 39.2948195,0.0175058824 38.3723872,0.0175058824 C36.4562225,0.0175058824 34.4689401,0.366538529 32.7130636,0.676401765 L32.5136151,0.712017118 C28.1293034,1.48131859 24.1902063,3.83554065 21.408321,7.36151712 C20.1475328,9.10672594 19.1146857,10.7877465 18.334671,12.3655554 C17.9393389,12.3406241 17.5048192,12.3263777 16.9919151,12.3263777 C16.5680904,12.3263777 16.0018298,12.4510342 15.7346828,12.5151404 C15.3678434,12.5258254 14.9903089,12.5400717 14.6661857,12.5899343 C14.2281101,12.5899343 13.4409563,12.8997884 13.1774563,13.0102031 C12.1695004,13.1455454 11.2078622,13.4981431 10.1180298,14.1250178 C9.41996453,14.4063793 8.86790924,14.8052763 8.33370629,15.2041825 C7.97398776,15.2754141 7.69974718,15.5354084 7.63919688,15.5923937 C7.57508888,15.6565026 7.34002865,15.8274557 7.10852247,15.9877257 C0.629978353,21.8180051 -1.225554,29.8356081 1.73412541,39.1346963 C2.28973659,41.4924287 2.98069012,43.718411 5.32419894,45.0362757 C7.35789012,46.1795375 9.70495482,46.3362699 11.7278872,46.3362699 C12.3903389,46.3362699 13.0563284,46.3184622 13.7188166,46.3006545 C14.5985236,46.2757232 15.4675813,46.2507919 16.308046,46.2757232 C19.3104872,46.3505171 22.3128372,46.457365 25.3152784,46.5606497 L29.4466666,46.7031129 C31.2915313,46.7636596 33.1828048,46.8847547 35.1879578,47.012967 C38.1405254,47.1981647 41.1927489,47.3940573 44.1880784,47.3940573 C47.4647784,47.3940573 50.2249636,47.1554303 52.6290136,46.6639344 C57.3481254,45.6987403 61.2658872,38.3476373 61.6042431,33.8636697 C61.7146486,32.4711314 61.3406884,30.7686844 61.0058975,29.5862167 L61.0061765,29.5858529 Z M40.2598824,43.9497941 L40.2634437,43.9426705 L40.2670051,43.9497941 L40.2598824,43.9497941 Z" id="Shape"></path>
        </g>
    </g>
</svg>