<?xml version="1.0" encoding="UTF-8"?>
<svg width="84px" height="84px" viewBox="0 0 84 84" version="1.1" xmlns="http://www.w3.org/2000/svg" xmlns:xlink="http://www.w3.org/1999/xlink">
    <!-- Generator: Sketch 49.3 (51167) - http://www.bohemiancoding.com/sketch -->
    <title>icon/facebook</title>
    <desc>Created with Sketch.</desc>
    <defs></defs>
    <g id="icon/facebook" stroke="none" stroke-width="1" fill="none" fill-rule="evenodd">
        <path d="M64.8125,17 C66.5556641,17 68,18.4443359 68,20.1875 L68,64.8125 C68,66.5556641 66.5556641,68 64.8125,68 L52.0625,68 L52.0625,48.1777344 L58.4375,48.1777344 L59.5083008,40.831543 L52.0625,40.831543 L52.0625,35.0541992 C52.0625,32.9624023 53.1333008,31.7670898 55.25,31.7670898 L60.03125,31.7670898 L60.03125,25.1430664 C60.03125,25.1430664 57.8896484,24.7944336 54.8017578,24.7944336 C47.8041992,24.7944336 44.2680664,28.6791992 44.2680664,34.4814453 L44.2680664,40.831543 L37.8930664,40.831543 L37.8930664,48.1777344 L44.2680664,48.1777344 L44.2680664,68 L20.1875,68 C18.4443359,68 17,66.5556641 17,64.8125 L17,20.1875 C17,18.4443359 18.4443359,17 20.1875,17 L64.8125,17 Z" id="facebook" fill="#FFFFFF"></path>
    </g>
</svg>