<?xml version="1.0" encoding="UTF-8"?>
<svg width="84px" height="84px" viewBox="0 0 84 84" version="1.1" xmlns="http://www.w3.org/2000/svg" xmlns:xlink="http://www.w3.org/1999/xlink">
    <!-- Generator: Sketch 49.3 (51167) - http://www.bohemiancoding.com/sketch -->
    <title>icon/facebook copy</title>
    <desc>Created with Sketch.</desc>
    <defs></defs>
    <g id="icon/facebook-copy" stroke="none" stroke-width="1" fill="none" fill-rule="evenodd">
        <path d="M67.4971576,37.2340903 L42.1749992,37.2340903 L42.1749992,47.7335218 L56.7506806,47.7335218 C55.3919307,54.4037489 49.7098854,58.2329533 42.1749992,58.2329533 C33.2813631,58.2329533 26.1170451,51.0686354 26.1170451,42.1749992 C26.1170451,33.2813631 33.2813631,26.1170451 42.1749992,26.1170451 C46.0042037,26.1170451 49.4628399,27.4757951 52.1803399,29.6992041 L60.0857942,21.7937498 C55.268408,17.5939772 49.0922718,15 42.1749992,15 C27.1052269,15 15,27.1052269 15,42.1749992 C15,57.2447715 27.1052269,69.3499985 42.1749992,69.3499985 C55.7624989,69.3499985 68.1147712,59.4681806 68.1147712,42.1749992 C68.1147712,40.5692038 67.8677258,38.8398857 67.4971576,37.2340903 Z" id="G" fill="#FFFFFF"></path>
    </g>
</svg>