<?xml version="1.0" encoding="UTF-8"?>
<svg width="84px" height="84px" viewBox="0 0 84 84" version="1.1" xmlns="http://www.w3.org/2000/svg" xmlns:xlink="http://www.w3.org/1999/xlink">
    <!-- Generator: Sketch 49.3 (51167) - http://www.bohemiancoding.com/sketch -->
    <title>icon/todo</title>
    <desc>Created with Sketch.</desc>
    <defs></defs>
    <g id="icon/todo" stroke="none" stroke-width="1" fill="none" fill-rule="evenodd">
        <g id="np_checkbox-marked_783786_000000" transform="translate(10.000000, 11.000000)" fill="#095FEA" fill-rule="nonzero">
            <path d="M35.367,30.266 C33.8553,31.7816 32.4842,33.4574 31.1443,35.098 L30.65602,35.75425 C30.50368,35.96128 30.35133,36.16441 30.2029,36.36363 C30.05056,36.19957 29.90212,36.03941 29.75368,35.87925 C29.35134,35.44566 28.96462,35.03159 28.60528,34.59405 C28.16778,34.00811 27.72247,33.41825 27.10138,32.64485 L26.26154,31.81673 C25.95295,31.35579 25.63654,30.87923 25.15214,30.39483 C24.72245,29.96514 23.83574,28.93393 23.83184,28.92603 C23.06622,28.00415 21.55844,26.34793 21.46464,26.26983 L21.23808,25.92608 C20.61699,24.98858 19.68338,23.57058 18.77328,22.67998 C18.54672,22.52764 18.32015,22.38701 18.09359,22.2581 L18.117028,22.1956 C17.925618,22.097944 17.718588,22.02763 17.511558,21.96513 C17.437339,21.926067 17.363118,21.898724 17.367028,21.898724 C16.972498,21.703414 16.452968,21.695594 16.394368,21.695594 L16.374837,21.828404 C14.628737,21.844029 12.566237,22.879204 12.171737,24.738604 C11.796737,25.871404 12.488147,27.094104 13.191237,27.801104 L15.085737,29.695604 L15.199017,29.922164 L15.25761,30.012008 C16.43731,31.488608 17.64041,33.140908 18.80451,34.742508 L18.894353,34.851878 C18.952947,34.910472 19.050603,35.078438 19.132633,35.226878 C20.347433,37.508078 22.570133,39.137078 24.031033,41.234678 C24.870873,42.441678 25.765433,43.492478 26.566233,44.711278 C26.984203,45.347998 27.370923,46.410478 28.031033,46.847978 C31.277133,48.988578 32.909933,44.660478 34.238033,42.551078 L34.261471,42.496391 C35.320071,41.379191 36.175571,40.390891 37.472371,38.894791 L37.632531,38.711201 C38.671631,37.430001 39.718431,36.148701 40.761431,34.894801 L42.402031,33.156501 C44.515331,30.910401 46.511431,28.793201 48.882531,26.418201 C51.753631,22.972901 54.597331,20.117401 57.577831,17.691601 C59.257531,16.324401 61.402031,13.383001 60.905931,11.125201 C60.702811,10.191611 59.960621,9.008001 57.597331,8.605701 C54.831731,8.277581 52.691131,10.613501 50.999631,12.465101 C50.632441,12.867441 50.280881,13.258071 49.937131,13.597901 C49.609011,13.926021 49.214471,14.394781 48.999631,14.652601 C48.417601,14.758071 48.066041,15.445571 47.823831,15.914301 C47.784768,15.98852 47.753518,16.058831 47.722271,16.109611 C47.206651,16.465081 46.870711,16.972891 46.612871,17.371311 L37.187071,28.144311 C36.917541,28.413841 35.749571,29.597411 35.366771,30.265411 L35.367,30.266 Z" id="Shape"></path>
            <path d="M62.762,28.246 C61.78153,27.51162 59.2972,26.871 57.9925,27.3085 C57.70344,32.7538 56.6722,37.7495 55.5863,42.9605 C55.33239,44.1793 55.24646,45.4644 55.16442,46.7066 C55.0277,48.7535 54.89098,50.8668 53.97692,52.6714 C52.23082,56.1245 49.58242,56.2261 45.91442,56.3628 L45.57848,56.374519 C44.21128,56.429207 42.80118,56.452644 41.38708,56.452644 C35.21908,56.452644 28.66808,55.972174 20.14908,54.897944 C19.55924,54.823725 18.95378,54.761224 18.33268,54.702634 C14.09438,54.276854 9.71158,53.839354 9.07098,48.956534 C8.49676,44.585434 8.01628,40.198734 7.55148,35.952534 L7.11789,32.011134 C6.97336,30.847034 6.97336,29.854934 7.121796,28.655634 C7.363986,24.515034 7.703826,21.280634 8.637396,17.944634 C8.906926,16.979794 9.043646,15.991534 9.172556,15.030534 C9.449896,13.003234 9.711616,11.093034 11.164756,9.577434 C12.551456,8.132134 14.535856,7.932934 16.473356,7.932934 C16.969446,7.932934 17.469446,7.948559 17.965556,7.960278 C18.363996,7.971996 18.758526,7.983715 19.149156,7.987621 C22.488956,8.018871 25.867956,8.167311 29.133556,8.307931 C32.086656,8.436841 35.598356,9.182931 38.516356,8.616521 C40.692156,8.194641 43.031956,6.233721 42.672556,3.807921 C42.164746,0.405621 37.235056,1.823521 34.742856,1.710221 C32.164756,1.596941 29.578756,1.522721 26.988956,1.448501 C23.469456,1.346941 19.836656,1.245381 16.281956,1.034441 C15.778046,1.003191 15.254656,0.987566 14.719456,0.987566 C11.528056,0.987566 7.149156,1.573506 4.407456,4.370366 C1.348856,7.483666 0.891856,11.940666 0.661356,16.624366 C0.368386,22.534566 0.587138,28.515366 0.798076,34.296366 L0.860576,35.976066 C0.91917,37.620566 0.915263,39.284666 0.911357,40.894066 C0.899639,45.929266 0.88792,51.140066 2.848857,56.206066 C3.594947,58.127966 4.516857,58.975566 6.509057,59.565466 C12.923157,61.467766 19.728057,61.627966 25.599057,61.627966 C26.790457,61.627966 27.985757,61.620154 29.177157,61.612341 C30.364657,61.604529 31.544357,61.596716 32.727957,61.596716 C34.966257,61.596716 37.907657,61.62406 40.794357,61.831096 C41.708417,61.897503 42.591257,61.917034 43.462357,61.940476 C44.837357,61.971726 46.138157,62.002976 47.520957,62.202196 C48.911557,62.401416 50.392057,62.596726 51.872557,62.596726 C53.130357,62.596726 54.228057,62.456106 55.231957,62.167036 C61.544457,60.342836 61.821757,51.069036 62.021057,44.296036 C62.06012,42.952236 62.099182,41.686636 62.185117,40.678836 C62.376527,38.440536 62.657777,36.155436 62.927307,33.948336 C63.122617,32.346736 63.321837,30.717836 63.489807,29.081136 C63.271057,28.749106 63.040587,28.452226 62.763247,28.245196 L62.762,28.246 Z" id="Shape"></path>
        </g>
    </g>
</svg>