<?xml version="1.0" encoding="UTF-8"?>
<svg width="84px" height="84px" viewBox="0 0 84 84" version="1.1" xmlns="http://www.w3.org/2000/svg" xmlns:xlink="http://www.w3.org/1999/xlink">
    <!-- Generator: Sketch 49.3 (51167) - http://www.bohemiancoding.com/sketch -->
    <title>icon/video</title>
    <desc>Created with Sketch.</desc>
    <defs></defs>
    <g id="icon/video" stroke="none" stroke-width="1" fill="none" fill-rule="evenodd">
        <g id="np_camcorder-box_783742_000000" transform="translate(7.000000, 12.000000)" fill="#095FEA" fill-rule="nonzero">
            <path d="M69.238,30.816 C69.226281,29.6207 68.99972,28.4254 68.99972,27.2262 L68.99972,26.74183 C68.99972,24.67933 69.21847,22.54653 69.1091,20.44883 C69.01535,18.66763 68.96457,17.08553 68.72238,15.61293 C68.52316,14.39813 68.55441,13.16763 68.53097,11.97623 C68.484095,9.55823 68.460658,7.05823 66.92937,4.69503 C66.28874,3.70675 65.24577,2.40203 63.83167,1.79273 C62.77307,1.3357 61.55827,1.2732 60.50357,1.2732 C60.18326,1.2732 59.86685,1.281012 59.55435,1.284918 C59.25747,1.292731 58.97232,1.296637 58.69107,1.296637 L56.21837,1.300543 C53.72617,1.300543 51.64417,1.2732 49.58557,1.128663 C48.25747,1.034913 46.86677,0.991943 45.33557,0.991943 C42.91757,0.991943 40.47617,1.105223 38.11677,1.218503 C35.75347,1.327883 33.31207,1.445063 30.88237,1.445063 C28.85897,1.445063 26.78857,1.390376 24.78467,1.339593 C22.75737,1.288811 20.65967,1.234123 18.59717,1.234123 C14.56197,1.234123 11.31597,1.448963 8.37817,1.913813 L8.12817,1.952876 C6.19457,2.253656 3.54227,2.667716 2.08127,4.316176 C0.81177,5.745876 0.79217,8.011476 0.77657,10.011476 C0.772664,10.667726 0.764851,11.288776 0.71407,11.823976 C0.49141,14.144276 0.60079,16.523176 0.706257,18.823976 C0.760945,19.991976 0.811727,21.159876 0.823447,22.308376 C0.842978,24.394276 1.018757,26.480276 1.190637,28.499776 C1.366417,30.573976 1.550017,32.714576 1.557827,34.843576 C1.589077,43.249776 -1.754673,55.745576 8.917227,59.070576 C15.667227,61.172176 22.847227,59.668236 29.687227,58.906516 C32.667727,58.574486 35.382527,58.328396 38.296627,59.015896 C41.116927,59.683866 43.714627,58.922146 46.546627,59.148706 L46.882567,59.179956 C47.788817,59.359646 48.659867,59.515896 49.804467,59.625266 C50.097437,59.625266 50.585717,59.824486 50.937267,59.804956 C51.128677,59.777612 51.281017,60.000266 51.331797,60.000266 L53.132597,60.000266 C53.398227,60.000266 53.659937,59.746356 53.925567,59.726826 C54.730257,59.69167 55.538867,59.500266 56.323967,59.418236 C57.148187,59.332298 57.999767,59.183856 58.839567,59.152616 C60.984067,59.070584 63.081767,58.949496 64.831767,57.328416 C68.335667,54.078416 67.999767,48.773716 67.999767,44.531416 L67.999767,43.558756 C67.999767,42.433756 68.519297,41.363456 68.718517,40.226756 C68.909927,39.125156 69.167737,37.984556 69.187267,36.789256 C69.218517,34.797056 69.257579,32.773656 69.238048,30.816556 L69.238,30.816 Z M41,33.331 C41.046875,33.76069 41.10156,34.19428 41.16016,34.6279 C41.3125,35.7802 41.46875,36.9717 41.40625,38.1904 C41.30078,40.1279 40.82422,40.4013 39.40235,41.2177 L38.40626,41.80754 L38.484385,41.91692 C37.613295,42.02239 36.726585,42.02239 35.636685,42.02239 C35.144495,42.02239 34.351485,42.17473 34.253885,42.19817 C33.847635,42.33489 33.058585,42.47551 33.062485,42.47551 L31.511685,42.67473 C30.691375,42.7802 29.671885,42.91301 29.554685,42.92082 C28.941405,42.92082 28.117185,43.01457 27.164085,43.12394 C25.945285,43.26066 24.562485,43.42082 23.269585,43.42082 C21.058685,43.42082 19.753985,42.95598 19.289085,42.00282 C19.074245,41.56532 19.015645,40.76062 18.968775,40.17472 L18.949244,39.90519 C18.875025,39.01457 18.937525,38.12789 19.003931,37.18639 C19.074244,36.17079 19.148461,35.11999 19.031275,34.06529 C18.792995,31.90909 18.808615,29.66689 18.828155,27.49889 C18.832061,26.90905 18.839874,26.31529 18.839874,25.72159 C18.839874,25.1005 18.949254,24.44819 19.066434,23.75279 C19.218774,22.85435 19.375024,21.92079 19.281274,20.98329 C19.183618,20.40126 19.246118,19.97549 19.468774,19.71379 C19.750024,19.38176 20.332054,19.22941 21.308574,19.22941 C21.476544,19.22941 21.648414,19.233316 21.820294,19.241129 C22.800764,19.280191 23.781194,19.678629 24.765594,19.627849 C25.488254,19.588787 26.222594,19.998939 26.999994,19.998939 L27.117184,19.998939 C28.312484,19.998939 29.511684,19.502849 30.710984,19.463779 C32.402384,19.405185 34.097684,19.116119 35.792984,19.178619 L36.042984,19.069239 C36.410174,19.069239 36.800794,18.987208 37.195284,18.959869 C37.582004,18.932525 37.976534,18.877837 38.359384,18.877837 C39.601584,18.877837 40.242184,19.170807 40.558584,19.928637 C40.941394,20.834887 40.851554,22.002837 40.761704,23.139537 C40.722641,23.627817 40.687485,24.100477 40.687485,24.545737 C40.687485,24.690267 40.67186,24.881677 40.656235,25.100427 C40.582016,26.088707 40.484355,27.315227 41.179675,27.807427 C41.390615,27.955867 41.660145,28.033987 41.980455,28.033987 C42.886705,28.033987 44.101555,27.428517 44.753855,27.104297 L44.925735,27.018359 C47.601535,25.721459 49.843735,24.190259 51.781235,22.334759 C51.937485,22.186319 52.101545,22.018349 52.273425,21.842569 C52.761705,21.342569 53.316425,20.776169 53.839825,20.494869 C54.152325,20.326899 53.921856,20.303459 53.999985,20.303459 C54.394515,20.303459 53.992173,21.475359 53.992173,22.104259 L53.992173,22.287849 C53.992173,23.393349 54.472643,24.514449 54.535143,25.592549 C54.597643,26.768349 54.871083,27.983149 54.871083,29.174549 C54.871083,29.865959 55.023423,30.565149 55.074203,31.237049 C55.124984,31.893299 55.222643,32.569049 55.222643,33.225349 L55.253893,33.698009 C55.320299,39.530009 54.535143,40.522209 54.050793,40.592509 C53.687513,40.64329 53.464853,40.455789 53.074233,40.119849 C52.960953,40.022193 52.843763,39.920629 52.722673,39.830789 C51.738293,39.088599 50.894573,38.748789 50.003873,38.393289 L49.437463,38.162819 C48.546843,37.791729 47.667963,37.139419 46.816363,36.510519 C46.226523,36.073019 45.617163,35.619899 44.996063,35.252719 C44.687473,35.073029 44.320283,34.705839 43.933563,34.319129 C43.175753,33.565219 42.398363,32.783929 41.484363,32.783929 L40.937483,32.791742 L41,33.331 Z" id="Shape"></path>
        </g>
    </g>
</svg>