<svg width="300" height="490" xmlns="http://www.w3.org/2000/svg" xmlns:xlink="http://www.w3.org/1999/xlink">
  <defs>
    <path id="a" d="M0 .198h333.86V433.2H0z"/>
    <path id="c" d="M.572.32H168.18v160.935H.572z"/>
    <path id="e" d="M0 .125h355.352v594.137H0z"/>
  </defs>
  <g fill="none" fill-rule="evenodd">
    <path d="M153.13 317.086c5.06-5.348 9.612-10.596 14.1-16.562 5.188-6.827 9.17-13.98 16.072-19.346 6.754-5.278 13.514-10.485 20.535-15.49 7.071-5.027 15.836-10.656 23.72-14.122 1.253 1.902 2.166 4.333 2.68 6.584.455 1.977-.16 2.844-1.827 4.105-4.655 3.517-9.436 6.78-13.961 10.493-2.586 2.12-5.131 4.29-7.676 6.47-2.113 1.816-4.354 2.796-6.095 5.142-1.27 1.717-1.892 3.58.92 2.356a169.954 169.954 0 0 0 4.941-2.232c4.102-1.94 8.121-4.057 12.125-6.202 13.044-7.006 26.305-13.398 38.998-21.01 1.648-.984 3.34-1.808 5.02-2.74 1.518-.846 2.984-1.896 4.617-2.491 1.463-.54 3.65-2.008 5.184-1.029 1.387.89 1.75 4.28 2.58 5.7 1.328 2.272 2.225 2.673-.2 4.693-2.592 2.172-6.094 3.18-8.973 4.897-3.789 2.262-7.793 4.301-11.63 6.56-2.455 1.443-20.067 10.565-19.49 13.41.21 1.055 5.986 1.064 7.225 1.489 2.638.915 5.546 2.353 6.912 4.913 2.949 5.518-3.813 8.89-6.81 12.413 3.995-.882 8.923.541 11.656 3.654 2.72 3.1-.213 5.436-2.212 8.133-5.267 7.119 3.167 1.307 6.214 2.191 2.343.68 2.93 4.294 3.218 6.383.962 6.946-4.727 8.315-9.086 11.83-5.755 4.642-12.308 7.467-18.94 10.77a212.97 212.97 0 0 1-28.618 11.717c-15.728 5.146-31.18 11.462-46.093 18.998-11.022 5.576-24.23 11.125-36.032 14.044-5.195-3.259-13.396-14.767-17.54-25.687-2.649-6.94-3.635-13.65-1.196-17.86 3.155-5.387 12.262-6.394 17.42-8.518 12.8-5.322 22.701-13.518 32.242-23.656" fill="#7EBFFF"/>
    <g transform="rotate(60 -89.237 61.861)">
      <mask id="b" fill="#fff">
        <use xlink:href="#a"/>
      </mask>
      <path d="M30.496 70.063c7.626 6.004 14.752 13.822 18.62 18.338 14.625 17.072 19.287 39.483 32.101 58.006 14.21 20.54 25.694 44.02 37.765 65.946 8.59 15.601 20.513 28.36 27.024 45.122 2.597 6.683 2.212 12.36 6.154 18.726 3.429 5.539 7.456 10.735 11.326 15.969 7.574 10.255 19.357 5.666 23.587-5.341 2.189-5.702.33-12.354 1.546-18.323.938-4.609 3.397-8.059 4.862-12.344 3.94-11.518 2.056-25.84 2.86-37.957 1.85-27.94 5.767-55.754 12.336-82.986 5.178-21.455 7.194-44.259 9.385-66.305 1.95-19.638 2.058-46.232 9.818-64.693 2.929-6.865 31.421-2.862 37.897-2.872 12.412-.015 24.808.716 37.215 1.028 9.722.248 21.043-2.134 30.463-.615 1.31 5.802-.98 11.686-1.005 17.545-.035 7.588.03 15.18.032 22.773.003 12.262.035 24.52.03 36.781-.007 12.307-1.198 24.38-2.479 36.126-2.433 22.353-3.441 43.64-8.577 65.496-8.367 35.608-14.177 70.803-29.455 104.43-15.45 34.01-24.04 68.37-45.59 99.845-12.753 18.633-37.276 46.425-61.794 48.294-16.974 1.29-43.088-5.932-54.737-18.94-5.36-5.985-8.524-13.415-14.48-19.08-7.281-6.93-14.92-12.293-21.143-20.409-11.782-15.366-22.49-32.09-29.24-50.078-6.98-18.603-16.312-35.743-21.58-55.046-8.77-32.145-18.932-63.923-27.86-96.03C7.509 144.437-4.37 105.001 1.636 74.773c3.79-19.066 16.934-14.108 28.86-4.711" fill="#0BF7F3" mask="url(#b)"/>
    </g>
    <g>
      <g transform="scale(-1 1) rotate(-78 -.886 188.102)">
        <mask id="d" fill="#fff">
          <use xlink:href="#c"/>
        </mask>
        <path d="M8.9 113.802c4.768-10.228 9.4-19.594 16.175-28.944 2.186-3.015 3.8-6.24 6.283-9.108 2.385-2.757 4.385-5.605 6.394-8.668 2.985-4.556 7.195-8.086 10.944-11.984 4.122-4.287 9.221-8.452 12.004-13.831 1.616-3.131 3.71-5.91 6.085-8.544 3.918-4.347 7.013-8.967 11.5-12.75a14.43 14.43 0 0 0 2.572 2.129c.833.532 1.864.673 2.439 1.502 1.095 1.577-.755 2.973-1.477 4.285-1.923 3.5-3.395 7.161-5.176 10.702-.847 1.682-2.067 3.086-2.92 4.74-1.187 2.306-4.36 6.266-3.307 9.083.943 2.526 4.482 1.312 6.008.057a61.59 61.59 0 0 0 6.735-6.486c3.354-3.76 6.799-7.242 10.518-10.828 3.382-3.255 6.895-6.838 9.519-10.71 2.771-4.095 7.168-7.427 10.563-11.036 2.208-2.351 2.876-3.507 5.453-.975 1.922 1.89 4.257 3.19 5.986 5.279.041.05-3.348 5.866-3.727 6.297-1.16 1.325-2.489 2.06-3.631 3.595-3.965 5.327-8.471 10.99-13.474 15.382-3.944 3.46-6.96 7.448-10.372 11.374-1.432 1.645-5.192 5.334-4.332 7.821 1.267 3.67 6.117-.491 7.82-1.928 6.62-5.581 12.38-12.095 18.459-18.228 2.707-2.73 5.393-5.488 8.308-7.995 1.222-1.05 2.58-1.868 3.809-2.862 1.23-.998 2.163-2.361 3.659-3.03 1.112-.498 5.79 2.896 6.492 3.618.133.139 1.936 3.533 2.315 2.913-1.38 2.254-3.35 4.171-4.93 6.279-1.607 2.14-3.7 4.515-5.592 6.415-1.425 1.432-2.98 2.733-4.398 4.18-3.323 3.394-6.72 6.708-9.912 10.221-2.29 2.522-5.033 4.53-7.418 6.954-1.39 1.41-2.935 2.772-4.182 4.291.699 3.657 11.304-2.24 12.796-3.167 3.985-2.485 8.244-4.5 12.233-7.15 7.146-4.749 14.93-11.205 23.289-13.827 1.81 3.157 2.951 6.422 4.638 9.548-.315-.58-37.838 26.192-41.583 27.98-3.571 1.704-6.321 4.382-9.534 6.74-2.006 1.473-2.958 3.298-4.602 5.034-2.099 2.214-4.287 4.32-6.238 6.674-1.166 1.408-2.527 2.833-3.26 4.517.084-.188 8.21-.346 9.08-.457 3.106-.395 6.192-.932 9.311-1.22 5.43-.503 10.867-.218 16.293-.342.865 2.421 2.01 5.041 2.173 7.64-4.38 1.688-9.294 2.637-13.843 3.846-4.154 1.1-8.239 2.334-12.348 3.586-4.047 1.231-7.832 2.268-11.72 3.986a956.966 956.966 0 0 1-10.01 4.355c-3.35 1.436-6.58 3.357-9.914 4.898-3.779 1.748-7.57 2.977-11.506 4.358-3.76 1.316-8.01 2.63-11.337 4.89-1.348.912-2.208 2.367-3.412 3.457-1.29 1.17-2.75 2.21-4.14 3.265-2.258 1.714-4.297 3.815-6.32 5.764-.886.846-1.8 1.57-2.59 2.487-.604.708-.334 1.35-1.46 1.38-1.525.04-3.146-2.066-3.978-3.136-1.206-1.556-2.314-2.385-3.993-3.497-4.186-2.778-8.083-6.096-11.677-9.601C7.175 141.838.976 137.576.6 132.66c-.5-6.598 5.667-13.214 8.3-18.858" fill="#7EBFFF" mask="url(#d)"/>
      </g>
      <g transform="scale(-1 1) rotate(-78 91.814 161.525)">
        <mask id="f" fill="#fff">
          <use xlink:href="#e"/>
        </mask>
        <path d="M118.198 72.394c-2.58 15.073-8.69 29.393-10.686 44.69-1.311 10.077-.307 21.182-2.725 30.984-3.727 15.13.332 30.718-2.897 45.496-5.72 26.176-.172 55.007 11.477 79.051 16.4 33.85 40.615 64.464 69.787 87.532 24.998 19.77 47.513 43.257 76.682 57.08 7.613 3.606 14.046 8.023 21.227 12.286 4.817 2.855 9.499 5.024 14.527 7.437 7.082 3.398 13.233 7.363 20.718 9.898 6.398 2.164 12.453 3.316 19.01 3.783 3.16.229 5.977.888 8.972 1.22 3.197.355 6.726-.474 9.972.442 1.331 6.178.72 11.796.827 17.802.165 9.232.662 18.638-.376 27.836-.752 6.663-4.02 10.92-6.27 16.966-4.838 12.999-9.5 26.103-14.049 39.204-3.327 9.58-7.835 17.569-12.669 26.29-6.357 11.48-21.176 17.899-33.187 11.07-5.653-3.21-9.81-7.267-14.786-11.418-9.598-8.011-20.903-14.056-28.684-23.959-7.75-9.868-18.077-15.252-27.251-23.698-10.432-9.603-19.604-18.48-31.377-26.647-10.331-7.17-19.12-15.66-28.908-23.312-10.902-8.524-22.856-15.588-32.546-25.603-14.965-15.467-30.932-27.72-43.534-45.525-10.457-14.773-24.082-26.121-34.248-41.4-11.079-16.657-19.418-32.733-25.081-52.017-4.614-15.707-11.507-30.659-14.833-46.74-3.098-14.992-4.51-29.767-5.518-45.106-2.193-33.356-2.737-66.964.614-100.262 2.55-25.336 12.405-48.59 17.108-73.25 1.554-8.158 2.335-16.09 4.82-24.043 1.764-5.66 2.869-11.545 4.71-17.18 1.202-3.684 3.382-7.359 3.918-11.15 2.049-.358 5.145 3.175 7.283 4.345 11.028 6.04 24.394 7.448 35.117 14.155 4.652 2.91 9.747 5.38 14.14 8.641 4.217 3.13 7.281 2.377 12.12 4.373 3.66 1.516 5.843 4.95 8.978 7.218 3.855 2.786 10.437 4.512 13.632 7.76 3.403 3.459-1.547 10.371-3.371 15.164-1.284 3.382-2.022 6.967-2.643 10.587" fill="#0BF7F3" mask="url(#f)"/>
      </g>
    </g>
  </g>
</svg>
