<?xml version="1.0" encoding="UTF-8"?>
<svg width="1615px" height="776px" viewBox="0 0 1615 776" version="1.1" xmlns="http://www.w3.org/2000/svg" xmlns:xlink="http://www.w3.org/1999/xlink">
    <!-- Generator: Sketch 49.3 (51167) - http://www.bohemiancoding.com/sketch -->
    <title>Group 9</title>
    <desc>Created with Sketch.</desc>
    <defs>
        <rect id="path-1" x="0" y="0" width="504" height="530" rx="20"></rect>
        <filter x="-3.4%" y="-2.5%" width="106.7%" height="106.4%" filterUnits="objectBoundingBox" id="filter-2">
            <feOffset dx="0" dy="4" in="SourceAlpha" result="shadowOffsetOuter1"></feOffset>
            <feGaussianBlur stdDeviation="5" in="shadowOffsetOuter1" result="shadowBlurOuter1"></feGaussianBlur>
            <feColorMatrix values="0 0 0 0 0   0 0 0 0 0   0 0 0 0 0  0 0 0 0.2 0" type="matrix" in="shadowBlurOuter1"></feColorMatrix>
        </filter>
        <rect id="path-3" x="0" y="0" width="504" height="530" rx="20"></rect>
        <filter x="-3.4%" y="-2.5%" width="106.7%" height="106.4%" filterUnits="objectBoundingBox" id="filter-4">
            <feOffset dx="0" dy="4" in="SourceAlpha" result="shadowOffsetOuter1"></feOffset>
            <feGaussianBlur stdDeviation="5" in="shadowOffsetOuter1" result="shadowBlurOuter1"></feGaussianBlur>
            <feColorMatrix values="0 0 0 0 0   0 0 0 0 0   0 0 0 0 0  0 0 0 0.2 0" type="matrix" in="shadowBlurOuter1"></feColorMatrix>
        </filter>
        <rect id="path-5" x="0" y="0" width="504" height="530" rx="20"></rect>
        <filter x="-3.4%" y="-2.5%" width="106.7%" height="106.4%" filterUnits="objectBoundingBox" id="filter-6">
            <feOffset dx="0" dy="4" in="SourceAlpha" result="shadowOffsetOuter1"></feOffset>
            <feGaussianBlur stdDeviation="5" in="shadowOffsetOuter1" result="shadowBlurOuter1"></feGaussianBlur>
            <feColorMatrix values="0 0 0 0 0   0 0 0 0 0   0 0 0 0 0  0 0 0 0.2 0" type="matrix" in="shadowBlurOuter1"></feColorMatrix>
        </filter>
        <rect id="path-7" x="0" y="0" width="504" height="530" rx="20"></rect>
        <filter x="-3.4%" y="-2.5%" width="106.7%" height="106.4%" filterUnits="objectBoundingBox" id="filter-8">
            <feOffset dx="0" dy="4" in="SourceAlpha" result="shadowOffsetOuter1"></feOffset>
            <feGaussianBlur stdDeviation="5" in="shadowOffsetOuter1" result="shadowBlurOuter1"></feGaussianBlur>
            <feColorMatrix values="0 0 0 0 0   0 0 0 0 0   0 0 0 0 0  0 0 0 0.2 0" type="matrix" in="shadowBlurOuter1"></feColorMatrix>
        </filter>
        <rect id="path-9" x="0" y="0" width="504" height="530" rx="20"></rect>
        <filter x="-3.4%" y="-2.5%" width="106.7%" height="106.4%" filterUnits="objectBoundingBox" id="filter-11">
            <feOffset dx="0" dy="4" in="SourceAlpha" result="shadowOffsetOuter1"></feOffset>
            <feGaussianBlur stdDeviation="5" in="shadowOffsetOuter1" result="shadowBlurOuter1"></feGaussianBlur>
            <feColorMatrix values="0 0 0 0 0   0 0 0 0 0   0 0 0 0 0  0 0 0 0.2 0" type="matrix" in="shadowBlurOuter1"></feColorMatrix>
        </filter>
        <rect id="path-12" x="0" y="0" width="504" height="530" rx="20"></rect>
        <filter x="-3.4%" y="-2.5%" width="106.7%" height="106.4%" filterUnits="objectBoundingBox" id="filter-13">
            <feOffset dx="0" dy="4" in="SourceAlpha" result="shadowOffsetOuter1"></feOffset>
            <feGaussianBlur stdDeviation="5" in="shadowOffsetOuter1" result="shadowBlurOuter1"></feGaussianBlur>
            <feColorMatrix values="0 0 0 0 0   0 0 0 0 0   0 0 0 0 0  0 0 0 0.2 0" type="matrix" in="shadowBlurOuter1"></feColorMatrix>
        </filter>
        <circle id="path-14" cx="110" cy="20" r="20"></circle>
        <circle id="path-15" cx="80" cy="20" r="20"></circle>
        <circle id="path-16" cx="50" cy="20" r="20"></circle>
        <circle id="path-17" cx="20" cy="20" r="20"></circle>
        <rect id="path-18" x="0" y="0" width="707" height="443" rx="20"></rect>
        <filter x="-2.4%" y="-2.9%" width="104.8%" height="107.7%" filterUnits="objectBoundingBox" id="filter-19">
            <feOffset dx="0" dy="4" in="SourceAlpha" result="shadowOffsetOuter1"></feOffset>
            <feGaussianBlur stdDeviation="5" in="shadowOffsetOuter1" result="shadowBlurOuter1"></feGaussianBlur>
            <feColorMatrix values="0 0 0 0 0   0 0 0 0 0   0 0 0 0 0  0 0 0 0.2 0" type="matrix" in="shadowBlurOuter1"></feColorMatrix>
        </filter>
        <circle id="path-20" cx="653" cy="55" r="20"></circle>
        <circle id="path-21" cx="623" cy="55" r="20"></circle>
        <circle id="path-22" cx="593" cy="55" r="20"></circle>
        <circle id="path-23" cx="563" cy="55" r="20"></circle>
        <rect id="path-24" x="0" y="0" width="707" height="443" rx="20"></rect>
        <filter x="-2.4%" y="-2.9%" width="104.8%" height="107.7%" filterUnits="objectBoundingBox" id="filter-25">
            <feOffset dx="0" dy="4" in="SourceAlpha" result="shadowOffsetOuter1"></feOffset>
            <feGaussianBlur stdDeviation="5" in="shadowOffsetOuter1" result="shadowBlurOuter1"></feGaussianBlur>
            <feColorMatrix values="0 0 0 0 0   0 0 0 0 0   0 0 0 0 0  0 0 0 0.2 0" type="matrix" in="shadowBlurOuter1"></feColorMatrix>
        </filter>
        <circle id="path-26" cx="653" cy="55" r="20"></circle>
        <circle id="path-27" cx="623" cy="55" r="20"></circle>
        <circle id="path-28" cx="593" cy="55" r="20"></circle>
        <circle id="path-29" cx="563" cy="55" r="20"></circle>
        <polygon id="path-30" points="0.000348547718 0.0810668278 167.408239 0.0810668278 167.408239 125 0.000348547718 125"></polygon>
        <polygon id="path-32" points="0.0534616887 0.509078947 53.9635316 0.509078947 53.9635316 52.3833952 0.0534616887 52.3833952"></polygon>
        <polygon id="path-34" points="0.129069805 0.504114906 214.959513 0.504114906 214.959513 63.6845026 0.129069805 63.6845026"></polygon>
        <polygon id="path-36" points="0 0 45 0 45 43 0 43"></polygon>
    </defs>
    <g id="Current-Round" stroke="none" stroke-width="1" fill="none" fill-rule="evenodd">
        <g id="landing-page" transform="translate(-190.000000, -725.000000)">
            <g id="hero-modules" transform="translate(200.000000, 731.000000)">
                <g id="Group-9">
                    <g id="blocks/video">
                        <g id="video-chat">
                            <g id="files-copy">
                                <g id="Rectangle-6">
                                    <use fill="black" fill-opacity="1" filter="url(#filter-2)" xlink:href="#path-1"></use>
                                    <use fill="#FFFFFF" fill-rule="evenodd" xlink:href="#path-1"></use>
                                </g>
                                <text id="Video-Chat" font-family="BasierSquare-Medium, Basier Square" font-size="32" font-weight="400" fill="#000000">
                                    <tspan x="91" y="67">Video Chat</tspan>
                                </text>
                                <g id="Group" transform="translate(38.000000, 38.000000)" fill="#095FEA" fill-rule="nonzero">
                                    <path d="M33,16.28 C33,7.289 25.6125,0 16.5,0 C7.3875,0 0,7.289 0,16.28 C0,23.17976 4.3575,29.06276 10.5,31.43372 L10.5,34.04 L7.5,34.04 L7.5,37 L25.5,37 L25.5,34.04 L22.5,34.04 L22.5,31.43372 C28.6425,29.06276 33,23.17976 33,16.28 Z M4.5,16.28 C4.5,9.75172 9.8835,4.44 16.5,4.44 C23.1165,4.44 28.5,9.75172 28.5,16.28 C28.5,22.80828 23.1165,28.12 16.5,28.12 C9.8835,28.12 4.5,22.80828 4.5,16.28 Z" id="Shape"></path>
                                    <path d="M25.5,16.28 L16.5,16.28 L16.5,7.4 C11.529,7.4 7.5,11.37528 7.5,16.28 C7.5,21.18472 11.529,25.16 16.5,25.16 C21.471,25.16 25.5,21.18472 25.5,16.28 Z" id="Shape"></path>
                                </g>
                                <rect id="Rectangle-7" fill="#095FEA" x="0" y="111" width="504" height="5"></rect>
                                <rect id="Rectangle-8" fill="#000000" opacity="0.200000003" x="0" y="322" width="504" height="1"></rect>
                                <rect id="Rectangle-8-Copy" fill="#000000" opacity="0.200000003" transform="translate(252.500000, 322.500000) rotate(90.000000) translate(-252.500000, -322.500000) " x="45" y="322" width="415" height="1"></rect>
                            </g>
                            <g id="np_head_230329_000000" transform="translate(85.000000, 154.000000)">
                                <path d="M52.8386642,52.8055759 C53.4303293,53.4013826 53.769616,54.216446 53.769616,55.05227 C53.769616,55.8880941 53.4303399,56.7031575 52.8386642,57.2989642 C52.2428576,57.8906293 51.4277941,58.229916 50.5919701,58.229916 C49.7561461,58.229916 48.9369517,57.8906399 48.345276,57.2989642 C47.7536109,56.7031575 47.4143242,55.8880941 47.4143242,55.05227 C47.4143242,54.216446 47.7536003,53.4013826 48.345276,52.8055759 C49.5327583,51.6222245 51.6511819,51.6222245 52.8386642,52.8055759 Z M24.1117814,47.6377876 C20.0238595,47.6377876 16.6972989,50.9643481 16.6972989,55.05227 C16.6972989,61.2751393 19.1219406,67.1294028 23.5201057,71.5283093 C23.933855,71.9420586 24.4758749,72.1489439 25.0179371,72.1489439 C25.5599993,72.1489439 26.1019345,71.9420692 26.5157685,71.5283093 C27.3432777,70.7008001 27.3432777,69.3602087 26.5157685,68.5327525 C22.9161432,64.9331272 20.934252,60.1459136 20.934252,55.0521641 C20.934252,53.3020285 22.3617517,51.8745288 24.1118874,51.8745288 C25.862023,51.8745288 27.2895227,53.3020285 27.2895227,55.0521641 C27.2895227,56.2231227 28.2370194,57.1705877 29.4079463,57.1705877 C30.5788731,57.1705877 31.5263698,56.223091 31.5263698,55.0521641 C31.5263698,50.9642422 28.1998093,47.6376816 24.1118874,47.6376816 L24.1117814,47.6377876 Z M47.3519472,76.4769468 C46.524438,77.304456 46.524438,78.6450474 47.3519472,79.4725036 C51.75848,83.8747996 57.6089304,86.2994413 63.8322233,86.2994413 C65.0031819,86.2994413 65.9506469,85.3519446 65.9506469,84.1810178 C65.9506469,83.0100909 65.0031502,82.0625942 63.8322233,82.0625942 C58.7388975,82.0625942 53.9517899,80.080703 50.3484573,76.4769468 C49.5209481,75.6494376 48.1844876,75.6494376 47.3529005,76.4769468 L47.3519472,76.4769468 Z M55.3581054,41.8121227 C55.3581054,40.6411641 54.4106087,39.6936992 53.2396818,39.6936992 C47.0168126,39.6936992 41.1667859,42.1183409 36.7594057,46.516506 C35.9318965,47.3440152 35.9318965,48.6846066 36.7594057,49.5120628 C37.173155,49.9258121 37.7151748,50.1326974 38.257237,50.1326974 C38.7992993,50.1326974 39.3412344,49.9258227 39.7550684,49.5120628 C43.3546938,45.9124375 48.1460383,43.9264154 53.2388344,43.9264154 C54.4097931,43.9305527 55.357258,42.9830602 55.357258,41.8121227 L55.3581054,41.8121227 Z M73.8943116,75.3923139 L73.8943116,84.1804882 C73.8943116,90.9867712 69.4423385,96.7628649 63.3021937,98.7732489 L63.3021937,113.308812 C63.3021937,114.479771 62.354697,115.427236 61.1837702,115.427236 L18.8152988,115.427236 C17.6443402,115.427236 16.6968753,114.479739 16.6968753,113.308812 L16.6968753,95.0289353 C16.6968753,90.1052952 14.9053245,85.5208148 11.6532265,82.1160844 C4.660734,74.7925882 0.809016273,65.1814064 0.809016273,55.0521641 C0.809016273,33.4421253 18.3898135,15.8613281 39.9998523,15.8613281 L47.9439406,15.8613281 C63.7124265,15.8613281 76.5426588,28.6915605 76.5426588,44.4600463 C76.5426588,48.7465705 75.5620617,52.9999413 73.7166818,56.8401136 L78.9671946,67.3412452 C78.9754702,67.3619337 78.9796075,67.3826211 78.9920204,67.4033086 C79.0251208,67.4695093 79.0458082,67.5398516 79.070634,67.6143248 C79.0913215,67.6805255 79.1161473,67.7425847 79.1326964,67.8087855 C79.1492477,67.8708479 79.1533849,67.9329145 79.1616595,67.9949737 C79.1740724,68.0735874 79.182348,68.1522031 79.1864853,68.2308178 C79.1864853,68.2556436 79.1906226,68.2721938 79.1906226,68.2928813 C79.1906226,71.6443333 76.9521903,74.4827031 73.8945637,75.3928838 L73.8943116,75.3923139 Z M71.1842123,51.7750688 C71.7800189,49.8717711 72.144123,47.88988 72.2640787,45.8873342 C70.7373309,45.1342981 69.1112289,44.5922359 67.4355559,44.2737309 L71.1842123,51.7750688 Z M74.9121082,68.7097468 L61.9367638,42.7590581 C61.9284882,42.7383706 61.9243509,42.7176831 61.911938,42.6969957 C61.8788377,42.6307949 61.8581502,42.5604527 61.8333244,42.4859795 C61.8126369,42.4197788 61.7878111,42.3577196 61.771262,42.2915188 C61.7547107,42.2294554 61.7505735,42.1673898 61.7422989,42.1053306 C61.729886,42.0267169 61.7216104,41.9481012 61.7174731,41.8694865 C61.7174731,41.848798 61.7133358,41.8322478 61.7133358,41.8115603 C61.7133358,41.7701854 61.7216104,41.7329467 61.7257487,41.6915728 C61.729886,41.6129592 61.7381616,41.5343434 61.7505735,41.4557287 C61.7629864,41.389528 61.7753993,41.3315997 61.7919495,41.2653989 C61.8084996,41.1950609 61.8291871,41.1288559 61.8540119,41.0626552 C61.8788377,41.0005917 61.9078007,40.9385262 61.9326255,40.8805979 C61.9615886,40.8185344 61.9946889,40.7564689 62.0319266,40.6944096 C62.065027,40.6406218 62.1022657,40.5868361 62.1436417,40.5371802 C62.1850166,40.4792551 62.2305299,40.4254652 62.2801847,40.3716784 C62.3256979,40.3220278 62.3712112,40.2806529 62.4208586,40.2351354 C62.4746464,40.1896221 62.524297,40.1441089 62.5822189,40.1027339 C62.6401451,40.0613579 62.7063479,40.019983 62.7684071,39.9827464 C62.8056448,39.9620579 62.8387452,39.9330948 62.8759807,39.9124073 C62.8966692,39.9041328 62.9173567,39.8999944 62.9380441,39.8875826 C63.0042449,39.8586195 63.0745871,39.8337937 63.1449188,39.808969 C63.2111195,39.7882815 63.2731788,39.7634557 63.343521,39.7469055 C63.4014472,39.7344926 63.4635085,39.726218 63.5255783,39.7179435 C63.6083282,39.7055306 63.6869387,39.697255 63.7696949,39.6931177 C63.7903834,39.6931177 63.8069325,39.6889804 63.827621,39.6889804 C66.657729,39.6889804 69.4546836,40.2144448 72.0779275,41.2074664 C70.4891099,29.3082812 60.2772491,20.0973756 47.9437871,20.0973756 L39.9996987,20.0973756 C20.7273403,20.0973756 5.04570982,35.779006 5.04570982,55.0513644 C5.04570982,64.0835811 8.47988627,72.6565235 14.7151483,79.1855049 C18.7202399,83.3809369 20.9297557,89.0079995 20.9297557,95.0238987 L20.9338929,111.189589 L59.0655171,111.189589 L59.0655171,99.5138975 C58.8876013,99.5180358 58.7138271,99.5387233 58.5359113,99.5387233 L42.6477345,99.5387233 C41.4767759,99.5387233 40.5293109,98.5912265 40.5293109,97.4202997 C40.5293109,96.2493728 41.4768076,95.3018761 42.6477345,95.3018761 L58.5359113,95.3018761 C64.6677942,95.3018761 69.657635,90.3120353 69.657635,84.1801524 L69.657635,75.7064581 L66.4799996,75.7064581 C62.3920777,75.7064581 59.0655171,72.3798976 59.0655171,68.2919756 C59.0655171,67.121017 60.0130139,66.1735521 61.1839407,66.1735521 C62.3548676,66.1735521 63.3023643,67.1210488 63.3023643,68.2919756 C63.3023643,70.0421113 64.729864,71.469611 66.4799996,71.469611 L71.7760585,71.469611 C73.3855309,71.469611 74.7054147,70.261474 74.9122787,68.7098347 L74.9121082,68.7097468 Z" id="Shape" fill="#000000" fill-rule="nonzero"></path>
                                <circle id="Oval" stroke="#FFD4D4" stroke-width="13" fill="#FF0056" cx="116" cy="12" r="12"></circle>
                            </g>
                            <rect id="Rectangle" fill="#FFFFFF" x="100" y="264" width="50" height="11"></rect>
                            <g id="np_video-camera-add_462617_000000" transform="translate(92.000000, 200.000000)" fill="#0002B9" fill-rule="nonzero">
                                <path d="M27.75,232.148 L27.75,223.8472 L35.8516,223.8472 C37.7032,223.8472 37.8008,218.1988 35.95316,218.1988 L27.85156,218.1988 L27.800779,210.0972 C27.800779,208.2456 22.249979,208.3472 22.249979,210.147982 L22.249979,218.249582 L14.148379,218.249582 C12.296779,218.249582 12.249979,223.851182 14.097597,223.851182 L22.296797,223.851182 L22.246016,232.101182 C22.246016,233.800382 27.746016,233.749582 27.746016,232.151964 L27.75,232.148 Z M45,201 C48,201 50,203 50,206 L50,236 C50,239.5 48,241 45,241 L5,241 C2,241 0,239 0,236 L0,206 C0,203 1.5,201 5,201 L45,201 Z M55,215.25 L67.5,206.0508 L67.5,236.0508 L55,227.0508 L55,215.25 Z" id="Shape"></path>
                                <path d="M287.75,232.148 L287.75,223.8472 L295.8516,223.8472 C297.7032,223.8472 297.8008,218.1988 295.95316,218.1988 L287.85156,218.1988 L287.800779,210.0972 C287.800779,208.2456 282.249979,208.3472 282.249979,210.147982 L282.249979,218.249582 L274.148379,218.249582 C272.296779,218.249582 272.249979,223.851182 274.097597,223.851182 L282.296797,223.851182 L282.246016,232.101182 C282.246016,233.800382 287.746016,233.749582 287.746016,232.151964 L287.75,232.148 Z M305,201 C308,201 310,203 310,206 L310,236 C310,239.5 308,241 305,241 L265,241 C262,241 260,239 260,236 L260,206 C260,203 261.5,201 265,201 L305,201 Z M315,215.25 L327.5,206.0508 L327.5,236.0508 L315,227.0508 L315,215.25 Z" id="Shape-Copy"></path>
                                <path d="M287.75,31.148 L287.75,22.8472 L295.8516,22.8472 C297.7032,22.8472 297.8008,17.1988 295.95316,17.1988 L287.85156,17.1988 L287.800779,9.0972 C287.800779,7.2456 282.249979,7.3472 282.249979,9.147982 L282.249979,17.249582 L274.148379,17.249582 C272.296779,17.249582 272.249979,22.851182 274.097597,22.851182 L282.296797,22.851182 L282.246016,31.101182 C282.246016,32.800382 287.746016,32.749582 287.746016,31.151964 L287.75,31.148 Z M305,3.55271368e-15 C308,3.55271368e-15 310,2 310,5 L310,35 C310,38.5 308,40 305,40 L265,40 C262,40 260,38 260,35 L260,5 C260,2 261.5,0 265,0 L305,3.55271368e-15 Z M315,14.25 L327.5,5.0508 L327.5,35.0508 L315,26.0508 L315,14.25 Z" id="Shape-Copy-2"></path>
                            </g>
                        </g>
                    </g>
                    <g id="blocks/files">
                        <g id="files">
                            <g id="Rectangle-6">
                                <use fill="black" fill-opacity="1" filter="url(#filter-4)" xlink:href="#path-3"></use>
                                <use fill="#FFFFFF" fill-rule="evenodd" xlink:href="#path-3"></use>
                            </g>
                            <text id="Files" font-family="BasierSquare-Medium, Basier Square" font-size="32" font-weight="400" fill="#000000">
                                <tspan x="91" y="67">Files</tspan>
                            </text>
                            <g id="np_attachment_539052_000000" transform="translate(38.000000, 38.000000)" fill="#095FEA" fill-rule="nonzero">
                                <path d="M8.12990078,34 C7.55706547,34 6.9883251,33.783893 6.55765739,33.3530229 L3.64560169,30.4335821 C1.34057571,28.18766 0.0389127448,25.1768509 0.000763390561,21.9735303 C-0.0361504845,18.6709332 1.26676196,15.5631556 3.67150125,13.226001 L13.5983832,3.57157688 C15.9676681,1.26731074 19.1149898,0 22.4658331,0 C25.8126514,0 28.9652231,1.26880413 31.331883,3.57157688 C33.6792933,5.85860117 34.9823212,8.89856531 34.9998209,12.1310749 C35.017594,15.4058066 33.7119477,18.4871445 31.3290831,20.8005407 L24.1951538,27.739711 C21.4143459,30.4443752 16.5610831,30.4443752 13.7800301,27.739711 C10.9144536,24.9528764 10.9144536,20.4146352 13.7800301,17.6277667 L20.0799235,11.501136 C20.935764,10.6711848 22.3179606,10.6698611 23.1724361,11.4971585 C24.0296416,12.3244624 24.0296416,13.6674948 23.1765377,14.4961223 L16.8766444,20.6200377 C15.7090991,21.7575933 15.7090991,23.604441 16.8766444,24.7421323 C18.0032053,25.837262 19.967792,25.837262 21.0958229,24.7421323 L28.2297522,17.802962 C29.7828509,16.2928736 30.6332315,14.2856902 30.6222767,12.1470884 C30.6113394,10.0363859 29.7609762,8.05316461 28.2297522,6.56418734 C25.1426994,3.56522353 19.7752953,3.56654722 16.6935975,6.56418734 L6.7667155,16.219969 C5.19856705,17.7446519 4.34958642,19.7705027 4.37419101,21.9260748 C4.39606563,24.012883 5.24644624,25.980288 6.7667155,27.4587437 L9.70064584,30.4007211 C10.5400716,31.2426194 10.518197,32.5856518 9.65006119,33.3996849 C9.22348841,33.7987593 8.67665767,33.9976177 8.12702698,33.9976177 L8.12990078,34 Z" id="Shape"></path>
                            </g>
                            <rect id="Rectangle-7" fill="#095FEA" x="0" y="111" width="504" height="5"></rect>
                            <g id="icons" transform="translate(64.000000, 165.000000)">
                                <g id="Group-8">
                                    <g id="Group-3" transform="translate(24.000000, 0.000000)" fill="#0002B9" fill-rule="nonzero">
                                        <path d="M4,0 C1.7852,0 0,1.7852 0,4 L0,46.594 L21.656,26.532 C21.96069,26.24294 22.36303,26.05153 22.781,26.00075 C23.37084,25.934344 23.9841,26.14919 24.406,26.56325 L43.937,46.09425 L56.531,32.62525 C57.25756,31.84009 58.6443,31.80884 59.406,32.56275 L74,47.15675 L74,4.00075 C74,1.78595 72.2148,0.00075 70,0.00075 L4,0 Z M43,8 C47.418,8 51,11.582 51,16 C51,20.418 47.418,24 43,24 C38.582,24 35,20.418 35,16 C35,11.582 38.582,8 43,8 Z M22.938,30.75 L0,52 L0,62 C0,64.2148 1.7852,66 4,66 L70,66 C72.2148,66 74,64.2148 74,62 L74,52.8125 L58.062,36.8745 L45.468,50.3435 C44.74144,51.12866 43.3547,51.15991 42.593,50.406 L22.938,30.75 Z" id="Shape"></path>
                                    </g>
                                    <rect id="Rectangle-9" fill="#D8D8D8" x="0" y="86" width="123" height="9"></rect>
                                    <rect id="Rectangle-9-Copy" fill="#D8D8D8" x="18" y="104" width="88" height="9"></rect>
                                </g>
                                <g id="Group-6" transform="translate(0.000000, 205.000000)">
                                    <g id="Group-4" transform="translate(27.000000, 0.000000)" fill="#0002B9" fill-rule="nonzero">
                                        <g id="np_document_187107_000000-copy">
                                            <path d="M6.6,0 C2.95515,0 0,2.95515 0,6.6 L0,59.4 C0,63.0480675 2.95515,66 6.6,66 L46.2,66 L66,46.2 L66,6.6 C66,2.95515 63.0480675,0 59.4,0 L6.6,0 Z M9.9,13.2 L56.1,13.2 L56.1,19.8 L9.9,19.8 L9.9,13.2 Z M9.9,26.4 L56.1,26.4 L56.1,33 L9.9,33 L9.9,26.4 Z M9.9,39.6 L39.6,39.6 L39.6,46.2 L9.9,46.2 L9.9,39.6 Z" id="Shape"></path>
                                        </g>
                                    </g>
                                    <rect id="Rectangle-9-Copy-5" fill="#D8D8D8" x="0" y="86" width="123" height="9"></rect>
                                    <rect id="Rectangle-9-Copy-4" fill="#D8D8D8" x="18" y="104" width="88" height="9"></rect>
                                </g>
                                <g id="Group-5" transform="translate(250.000000, 0.000000)">
                                    <g id="Group-2" transform="translate(35.000000, 0.000000)" fill="#0002B9" fill-rule="nonzero">
                                        <g id="np_document_187107_000000">
                                            <path d="M6.6,0 C2.95515,0 0,2.95515 0,6.6 L0,59.4 C0,63.0480675 2.95515,66 6.6,66 L46.2,66 L66,46.2 L66,6.6 C66,2.95515 63.0480675,0 59.4,0 L6.6,0 Z M9.9,13.2 L56.1,13.2 L56.1,19.8 L9.9,19.8 L9.9,13.2 Z M9.9,26.4 L56.1,26.4 L56.1,33 L9.9,33 L9.9,26.4 Z M9.9,39.6 L39.6,39.6 L39.6,46.2 L9.9,46.2 L9.9,39.6 Z" id="Shape"></path>
                                        </g>
                                    </g>
                                    <rect id="Rectangle-9-Copy-3" fill="#D8D8D8" x="0" y="86" width="123" height="9"></rect>
                                    <rect id="Rectangle-9-Copy-2" fill="#D8D8D8" x="18" y="104" width="88" height="9"></rect>
                                </g>
                                <g id="Group-4-Copy" transform="translate(250.000000, 211.000000)">
                                    <g id="np_film_531914_000000">
                                        <g id="Group-7">
                                            <path d="M30,55 L92,55 C94.6992,55 96,53.6992 96,51 L96,4 C96,1.3008 94.6992,0 92,0 L30,0 C27.3008,0 26,1.3008 26,4 L26,51 C26,53.6992 27.3008,55 30,55 Z M31,50 L31,45 L36,45 L36,50 L31,50 Z M31,40 L31,35 L36,35 L36,40 L31,40 Z M31,30 L31,25 L36,25 L36,30 L31,30 Z M31,20 L31,15 L36,15 L36,20 L31,20 Z M31,10 L31,5 L36,5 L36,10 L31,10 Z M41,50 L41,5 L81,5 L81,50 L41,50 Z M86,50 L86,45 L91,45 L91,50 L86,50 Z M86,40 L86,35 L91,35 L91,40 L86,40 Z M86,30 L86,25 L91,25 L91,30 L86,30 Z M86,20 L86,15 L91,15 L91,20 L86,20 Z M86,10 L86,5 L91,5 L91,10 L86,10 Z" id="Shape" fill="#0002B9" fill-rule="nonzero"></path>
                                            <rect id="Rectangle-9" fill="#D8D8D8" x="0" y="75" width="123" height="9"></rect>
                                            <rect id="Rectangle-9-Copy" fill="#D8D8D8" x="18" y="93" width="88" height="9"></rect>
                                        </g>
                                    </g>
                                </g>
                            </g>
                            <rect id="Rectangle-8" fill="#000000" opacity="0.200000003" x="0" y="322" width="504" height="1"></rect>
                            <rect id="Rectangle-8-Copy" fill="#000000" opacity="0.200000003" transform="translate(252.500000, 322.500000) rotate(90.000000) translate(-252.500000, -322.500000) " x="45" y="322" width="415" height="1"></rect>
                        </g>
                    </g>
                    <g id="blocks/slide-deck" transform="translate(1091.000000, 226.000000)">
                        <g id="slide-deck">
                            <g id="Rectangle-6">
                                <use fill="black" fill-opacity="1" filter="url(#filter-6)" xlink:href="#path-5"></use>
                                <use fill="#FFFFFF" fill-rule="evenodd" xlink:href="#path-5"></use>
                            </g>
                            <g id="copy" transform="translate(35.000000, 395.000000)" fill="#D8D8D8">
                                <rect id="Rectangle-9" x="0" y="0" width="99" height="9"></rect>
                                <rect id="Rectangle-9-Copy" x="0" y="18" width="71" height="9"></rect>
                            </g>
                            <text id="Slide-Deck" font-family="BasierSquare-Medium, Basier Square" font-size="32" font-weight="400" fill="#000000">
                                <tspan x="114" y="67">Slide Deck</tspan>
                            </text>
                            <path d="M75.9778326,44.0999664 L75.9778326,40 L35,40 L35,44.0999664 L37.0444973,44.0999664 L37.0444973,64.5891626 L35,64.5891626 L35,68.689129 L53.444307,68.689129 L53.444307,73.4013866 L46.2941922,77.4357464 L48.3277737,81 L55.4997201,76.9437527 L62.6940578,81 L64.7276394,77.4357464 L57.555693,73.3794991 L57.555693,68.689129 L76,68.689129 L76,64.5891626 L73.9555027,64.5891626 L73.9555027,44.0999664 L75.9778326,44.0999664 Z M49.3550884,60.499944 L45.255122,60.499944 L45.255122,56.3999776 L49.3550884,56.3999776 L49.3550884,60.499944 Z M57.5441615,60.499944 L53.444195,60.499944 L53.444195,52.3002351 L57.5441615,52.3002351 L57.5441615,60.499944 Z M65.7438704,60.499944 L61.643904,60.499944 L61.643904,48.1998209 L65.7438704,48.1998209 L65.7438704,60.499944 Z" id="icon" fill="#095FEA" fill-rule="nonzero"></path>
                            <g id="arrows" transform="translate(35.000000, 478.000000)" fill="#095FEA">
                                <path d="M12.9986531,26.0068267 C12.8463251,26.0068267 12.7320792,25.9433567 12.6178332,25.8544988 L0.152327966,13.4016875 C-0.0507759887,13.1858896 -0.0507759887,12.8304577 0.152327966,12.6146597 L12.6178332,0.161848464 C12.8209372,-0.053949488 13.1890631,-0.053949488 13.392167,0.161848464 L17.1876722,3.95735362 C17.3907761,4.16045758 17.3907761,4.5285835 17.1876722,4.73168745 L8.88579803,13.0081736 L17.1876722,21.2846598 C17.3907761,21.4877637 17.3907761,21.8558897 17.1876722,22.0589936 L13.392167,25.8544988 C13.2779211,25.9433567 13.1509811,26.0068267 12.9986531,26.0068267 Z" id="navigateleft"></path>
                                <path d="M59.9986531,26.0068267 C59.8463251,26.0068267 59.7320792,25.9433567 59.6178332,25.8544988 L47.152328,13.4016875 C46.949224,13.1858896 46.949224,12.8304577 47.152328,12.6146597 L59.6178332,0.161848464 C59.8209372,-0.053949488 60.1890631,-0.053949488 60.392167,0.161848464 L64.1876722,3.95735362 C64.3907761,4.16045758 64.3907761,4.5285835 64.1876722,4.73168745 L55.885798,13.0081736 L64.1876722,21.2846598 C64.3907761,21.4877637 64.3907761,21.8558897 64.1876722,22.0589936 L60.392167,25.8544988 C60.2779211,25.9433567 60.1509811,26.0068267 59.9986531,26.0068267 Z" id="navigateleft-copy" transform="translate(55.670000, 13.003413) scale(-1, 1) translate(-55.670000, -13.003413) "></path>
                            </g>
                            <rect id="Rectangle-7" fill="#095FEA" x="0" y="111" width="504" height="5"></rect>
                            <g id="small-slides" transform="translate(159.000000, 395.000000)">
                                <rect id="Rectangle-2-Copy" fill="#D8D8D8" x="0" y="0" width="94" height="48" rx="6"></rect>
                                <rect id="Rectangle-2-Copy-2" fill="#D8D8D8" x="108" y="0" width="94" height="48" rx="6"></rect>
                                <rect id="Rectangle-2-Copy-3" fill="#095FEA" x="216" y="0" width="94" height="48" rx="6"></rect>
                                <rect id="Rectangle-2-Copy-6" fill="#D8D8D8" x="0" y="62" width="94" height="48" rx="6"></rect>
                                <rect id="Rectangle-2-Copy-5" fill="#D8D8D8" x="108" y="62" width="94" height="48" rx="6"></rect>
                                <rect id="Rectangle-2-Copy-4" fill="#D8D8D8" x="216" y="62" width="94" height="48" rx="6"></rect>
                            </g>
                            <g id="big-slide" transform="translate(35.000000, 151.000000)">
                                <rect fill="#0002B9" x="0" y="0" width="435" height="222" rx="6"></rect>
                                <g id="copy" transform="translate(147.000000, 92.000000)" fill="#FFFFFF">
                                    <rect id="Rectangle-9-Copy-3" x="0" y="0" width="141" height="12.8181818"></rect>
                                    <rect id="Rectangle-9-Copy-2" x="19.9393939" y="27.6363636" width="101.121212" height="12.8181818"></rect>
                                </g>
                            </g>
                        </g>
                    </g>
                    <g id="blocks/tasks" transform="translate(1091.000000, 226.000000)">
                        <g id="Group-10" stroke-width="1" fill-rule="evenodd">
                            <g id="files-copy-3">
                                <g id="Rectangle-6">
                                    <use fill="black" fill-opacity="1" filter="url(#filter-8)" xlink:href="#path-7"></use>
                                    <use fill="#FFFFFF" fill-rule="evenodd" xlink:href="#path-7"></use>
                                </g>
                                <text id="Tasks" font-family="BasierSquare-Medium, Basier Square" font-size="32" font-weight="400" fill="#000000">
                                    <tspan x="91" y="65.9537037">Tasks</tspan>
                                </text>
                                <g id="np_clipboard-check_570988_000000" transform="translate(38.000000, 37.296296)" fill="#095FEA" fill-rule="nonzero">
                                    <path d="M0.001799964,37.3717922 L0.001799964,3.73978906 L10.4078418,3.73978906 C10.8578328,1.58873098 12.7421702,0 15.0009,0 C17.2596298,0 19.1439671,1.59227356 19.5885582,3.71001353 L30,3.73979175 L30,37.3717949 L0,37.3717949 L0.001799964,37.3717922 Z M15.0009,3.73978906 C14.4841303,3.73978906 14.0640187,4.15843575 14.0640187,4.67341347 C14.0640187,5.1883867 14.4841258,5.60703787 15.0009,5.60703787 C15.5176741,5.60703787 15.9377812,5.18839118 15.9377812,4.67341347 C15.9377812,4.15844024 15.5176741,3.73978906 15.0009,3.73978906 Z M26.250675,7.47608039 L20.6257875,7.47608039 C20.6257875,8.50782057 19.7855643,9.34512291 18.750225,9.34512291 L11.249775,9.34512291 C10.2144357,9.34512291 9.37421252,8.50782057 9.37421252,7.47608039 L3.74932501,7.47608039 L3.74932501,33.6337071 L26.248875,33.6337071 L26.248875,7.47608039 L26.250675,7.47608039 Z M10.1670967,19.7957074 L13.1254275,22.7455031 L19.8208436,16.0715684 L22.4715606,18.7148196 L13.1252475,28.0286423 L7.51250975,22.435416 L10.1670967,19.7957074 Z" id="Shape"></path>
                                </g>
                                <rect id="Rectangle-7" fill="#095FEA" x="0" y="108.944444" width="504" height="4.90740741"></rect>
                            </g>
                        </g>
                        <rect id="Rectangle-9" fill="#D8D8D8" fill-rule="evenodd" x="105" y="166.851852" width="123" height="8.83333333"></rect>
                        <rect id="Rectangle-9-Copy" fill="#D8D8D8" fill-rule="evenodd" x="243" y="166.851852" width="88" height="8.83333333"></rect>
                        <rect id="Rectangle-9-Copy-7" fill="#D8D8D8" fill-rule="evenodd" x="105" y="229.666667" width="193" height="8.83333333"></rect>
                        <rect id="Rectangle-9-Copy-6" fill="#D8D8D8" fill-rule="evenodd" x="313" y="229.666667" width="88" height="8.83333333"></rect>
                        <rect id="Rectangle-9-Copy-10" fill="#0002B9" fill-rule="evenodd" x="105" y="355.296296" width="193" height="8.83333333"></rect>
                        <rect id="Rectangle-9-Copy-8" fill="#0002B9" fill-rule="evenodd" x="313" y="355.296296" width="88" height="8.83333333"></rect>
                        <rect id="Rectangle-9-Copy-9" fill="#D8D8D8" fill-rule="evenodd" x="105" y="292.481481" width="157" height="8.83333333"></rect>
                        <rect id="Rectangle-11" stroke="#E4E4E4" stroke-width="4" x="36" y="152.12963" width="42" height="41.2222222" rx="3"></rect>
                        <rect id="Rectangle-11-Copy" stroke="#E4E4E4" stroke-width="4" x="36" y="214.944444" width="42" height="41.2222222" rx="3"></rect>
                        <rect id="Rectangle-11-Copy-3" stroke="#0002B9" stroke-width="4" fill="#0002B9" fill-rule="evenodd" x="36" y="340.574074" width="42" height="41.2222222" rx="3"></rect>
                        <rect id="Rectangle-11-Copy-4" stroke="#095FEA" stroke-width="4" fill="#095FEA" fill-rule="evenodd" x="36" y="416.148148" width="432" height="68.7037037" rx="3"></rect>
                        <path d="M250.730886,437.741623 C250.416889,437.772206 250.178368,438.032171 250.178368,438.341547 L250.178368,449.017734 L239.611243,449.017734 C239.274449,449.018911 239.001197,449.28711 239,449.617658 L239,452.665459 C239.001199,452.996017 239.274458,453.264209 239.611243,453.265383 L250.178368,453.265383 L250.178368,463.636821 C250.179567,463.967378 250.452826,464.23557 250.789611,464.236745 L254.205418,464.236745 C254.542213,464.235568 254.815465,463.967369 254.816661,463.636821 L254.816661,453.265383 L265.383786,453.265383 C265.720581,453.264207 265.993833,452.996008 265.99503,452.665459 L265.99503,449.617658 C265.993831,449.287101 265.720571,449.018909 265.383786,449.017734 L254.816661,449.017734 L254.816661,438.341547 C254.815463,438.010989 254.542203,437.742797 254.205418,437.741623 L250.789611,437.741623 C250.770435,437.740447 250.751259,437.740447 250.730883,437.741623 L250.730886,437.741623 Z" id="Shape" fill="#FFFFFF" fill-rule="nonzero"></path>
                        <polygon id="Shape" fill="#FFFFFF" fill-rule="nonzero" points="44 362.736485 46.99943 358.90856 54.8 365.386485 67.40036 351.54739 71 354.786485 55.09943 371.86335"></polygon>
                        <rect id="Rectangle-11-Copy-2" stroke="#E4E4E4" stroke-width="4" x="36" y="277.759259" width="42" height="41.2222222" rx="3"></rect>
                    </g>
                    <g id="blocks/team-chat" transform="translate(668.000000, 0.000000)">
                        <g id="team-chat">
                            <mask id="mask-10" fill="white">
                                <use xlink:href="#path-9"></use>
                            </mask>
                            <g id="Rectangle-6">
                                <use fill="black" fill-opacity="1" filter="url(#filter-11)" xlink:href="#path-9"></use>
                                <use fill="#FFFFFF" fill-rule="evenodd" xlink:href="#path-9"></use>
                            </g>
                            <text id="Team-Chat" mask="url(#mask-10)" font-family="BasierSquare-Medium, Basier Square" font-size="32" font-weight="400" fill="#000000">
                                <tspan x="91" y="67">Team Chat</tspan>
                            </text>
                            <g id="np_chats_857565_000000" mask="url(#mask-10)" fill="#095FEA" fill-rule="nonzero">
                                <g transform="translate(31.000000, 38.000000)" id="Shape">
                                    <path d="M10.7142857,-0.0002 L10.7142857,9.64276429 L35.3571429,9.64276429 L35.3571429,24.0566929 L40.7142857,28.9283714 L40.7142857,23.5712286 L45,23.5712286 L45,-0.0002 L10.7142857,-0.0002 Z M0,11.7856214 L0,34.2856214 L4.28571429,34.2856214 L4.28571429,39.6427643 L10.1785714,34.2856214 L33.2142857,34.2856214 L33.2142857,11.7856214 L0,11.7856214 Z M6.96428571,20.8927643 C8.14869643,20.8927643 9.10714286,21.8512107 9.10714286,23.0356214 C9.10714286,24.2200321 8.14869643,25.1784786 6.96428571,25.1784786 C5.779875,25.1784786 4.82142857,24.2200321 4.82142857,23.0356214 C4.82142857,21.8512107 5.779875,20.8927643 6.96428571,20.8927643 Z M16.6071429,20.8927643 C17.7915536,20.8927643 18.75,21.8512107 18.75,23.0356214 C18.75,24.2200321 17.7915536,25.1784786 16.6071429,25.1784786 C15.4227321,25.1784786 14.4642857,24.2200321 14.4642857,23.0356214 C14.4642857,21.8512107 15.4227321,20.8927643 16.6071429,20.8927643 Z M26.25,20.8927643 C27.4344107,20.8927643 28.3928571,21.8512107 28.3928571,23.0356214 C28.3928571,24.2200321 27.4344107,25.1784786 26.25,25.1784786 C25.0655893,25.1784786 24.1071429,24.2200321 24.1071429,23.0356214 C24.1071429,21.8512107 25.0655893,20.8927643 26.25,20.8927643 Z"></path>
                                </g>
                            </g>
                            <rect id="Rectangle-7" fill="#095FEA" mask="url(#mask-10)" x="0" y="111" width="504" height="5"></rect>
                            <g id="message" mask="url(#mask-10)">
                                <g transform="translate(26.000000, 166.000000)">
                                    <g id="bubble" stroke-width="1" fill="none" transform="translate(59.000000, 0.000000)">
                                        <rect id="Rectangle-4" fill="#F3F3F3" x="24" y="1" width="355" height="81" rx="10"></rect>
                                        <rect id="Rectangle-9" fill="#D8D8D8" x="51" y="27" width="194" height="9"></rect>
                                        <rect id="Rectangle-9-Copy" fill="#D8D8D8" x="51" y="45" width="139" height="9"></rect>
                                        <polyline id="Path-2" fill="#F3F3F3" points="22.4687336 0.65625 0 0.65625 35.5336584 36.1899084 35.5336584 0.65625"></polyline>
                                    </g>
                                    <circle id="avatar" fill="#0002B9" cx="22" cy="22" r="22"></circle>
                                </g>
                            </g>
                            <g id="message-copy" mask="url(#mask-10)">
                                <g transform="translate(245.000000, 340.500000) scale(-1, 1) translate(-245.000000, -340.500000) translate(26.000000, 299.000000)">
                                    <g id="bubble" stroke-width="1" fill="none" transform="translate(59.000000, 0.000000)">
                                        <rect id="Rectangle-4" fill="#F3F3F3" x="24" y="1" width="355" height="81" rx="10"></rect>
                                        <rect id="Rectangle-9" fill="#D8D8D8" x="51" y="27" width="194" height="9"></rect>
                                        <rect id="Rectangle-9-Copy" fill="#D8D8D8" x="51" y="45" width="139" height="9"></rect>
                                        <polyline id="Path-2" fill="#F3F3F3" points="22.4687336 0.65625 0 0.65625 35.5336584 36.1899084 35.5336584 0.65625"></polyline>
                                    </g>
                                    <circle id="avatar" fill="#0002B9" cx="22" cy="22" r="22"></circle>
                                </g>
                            </g>
                            <rect id="Rectangle-10" stroke="#F3F3F3" stroke-width="9" mask="url(#mask-10)" x="29" y="432" width="446" height="66" rx="10"></rect>
                            <g id="np_next_1548862_000000" mask="url(#mask-10)" fill="#095FEA" fill-rule="nonzero">
                                <g transform="translate(429.000000, 454.000000)" id="Shape">
                                    <path d="M16.4231566,0.783552552 C15.3776128,-0.261184184 13.6345233,-0.261184184 12.5889795,0.783552552 C11.5434357,1.82828929 11.5434357,3.57003325 12.5889795,4.61476999 L16.7727816,8.79534256 L2.71147251,8.79534256 C1.20141473,8.79534256 0,9.99582991 0,11.5047221 C0,13.0136142 1.20141473,14.2141016 2.71147251,14.2141016 L16.8103548,14.2141016 L12.5889795,18.3946741 C11.5434357,19.4394109 11.5434357,21.1811548 12.5889795,22.2258916 C13.1306542,22.7671482 13.8281999,23 14.4863905,23 C15.1445811,23 15.8814818,22.729364 16.3838015,22.2258916 L25.2158422,13.440148 C26.2613859,12.3954112 26.2613859,10.6536673 25.2158422,9.60893052 L16.4231566,0.783552552 Z"></path>
                                </g>
                            </g>
                        </g>
                    </g>
                    <g id="blocks/youtube" transform="translate(668.000000, 0.000000)">
                        <g id="video-chat" stroke-width="1" fill-rule="evenodd">
                            <g id="files-copy">
                                <g id="Rectangle-6">
                                    <use fill="black" fill-opacity="1" filter="url(#filter-13)" xlink:href="#path-12"></use>
                                    <use fill="#FFFFFF" fill-rule="evenodd" xlink:href="#path-12"></use>
                                </g>
                                <text id="YouTube" font-family="BasierSquare-Medium, Basier Square" font-size="32" font-weight="400" fill="#000000">
                                    <tspan x="114" y="67">YouTube</tspan>
                                </text>
                                <rect id="Rectangle-7" fill="#095FEA" x="0" y="111" width="504" height="5"></rect>
                            </g>
                            <rect id="Rectangle-2" fill="#0002B9" x="35" y="151" width="435" height="222" rx="6"></rect>
                            <polygon id="Page-1" fill="#FFFFFF" points="221.711189 228.500762 221.711189 297.9454 281.84954 263.224034"></polygon>
                        </g>
                        <text id=".-.-." font-family="Colfax-Medium, Colfax" font-size="32" font-weight="400" letter-spacing="-1.89999998" fill="#000000">
                            <tspan x="65.4725702" y="474">. . </tspan>
                            <tspan x="88.3365703" y="474" letter-spacing="-0.001140417">.</tspan>
                        </text>
                        <path d="M39.5,399.5 L39.5,434.628336" id="Line-3" stroke="#FF0056" stroke-width="10" stroke-linecap="square"></path>
                        <path d="M39.5,455.5 L39.5,490.628336" id="Line-3-Copy" stroke="#2CEDD1" stroke-width="10" stroke-linecap="square"></path>
                        <rect id="Rectangle-10" fill="#D8D8D8" fill-rule="evenodd" x="65" y="413" width="177" height="9"></rect>
                        <rect id="Rectangle-10-Copy" fill="#D8D8D8" fill-rule="evenodd" x="257" y="413" width="89" height="9"></rect>
                        <rect id="Rectangle-10-Copy-2" fill="#D8D8D8" fill-rule="evenodd" x="361" y="413" width="108" height="9"></rect>
                        <g id="Group-2" stroke-width="1" fill-rule="evenodd" transform="translate(339.000000, 36.000000)">
                            <g id="Oval-2-Copy-3">
                                <use fill="#095FEA" fill-rule="evenodd" xlink:href="#path-14"></use>
                                <circle stroke="#FFFFFF" stroke-width="7" cx="110" cy="20" r="23.5"></circle>
                            </g>
                            <g id="Oval-2-Copy-2">
                                <use fill="#2CEDD1" fill-rule="evenodd" xlink:href="#path-15"></use>
                                <circle stroke="#FFFFFF" stroke-width="7" cx="80" cy="20" r="23.5"></circle>
                            </g>
                            <g id="Oval-2-Copy">
                                <use fill="#FF0056" fill-rule="evenodd" xlink:href="#path-16"></use>
                                <circle stroke="#FFFFFF" stroke-width="7" cx="50" cy="20" r="23.5"></circle>
                            </g>
                            <g id="Oval-2">
                                <use fill="#BD10E0" fill-rule="evenodd" xlink:href="#path-17"></use>
                                <circle stroke="#FFFFFF" stroke-width="7" cx="20" cy="20" r="23.5"></circle>
                            </g>
                        </g>
                        <path d="M59.1427328,65.4286336 L59.1427328,49.5713664 L72.8750235,57.5 L59.1427328,65.4286336 Z M89.7525753,44.7775517 C89.1443203,42.5037747 87.3534925,40.7125118 85.0792803,40.1046919 C80.9572437,39 64.4281985,39 64.4281985,39 C64.4281985,39 47.8995884,39 43.7775517,40.1046919 C41.5033396,40.7125118 39.7125118,42.5037747 39.1046919,44.7775517 C38,48.8995884 38,57.5 38,57.5 C38,57.5 38,66.1004116 39.1046919,70.2224483 C39.7125118,72.4962253 41.5033396,74.2874882 43.7775517,74.8953081 C47.8995884,76 64.4281985,76 64.4281985,76 C64.4281985,76 80.9572437,76 85.0792803,74.8953081 C87.3534925,74.2874882 89.1443203,72.4962253 89.7525753,70.2224483 C90.8568321,66.1004116 90.8568321,57.5 90.8568321,57.5 C90.8568321,57.5 90.8568321,48.8995884 89.7525753,44.7775517 Z" id="Fill-1" fill="#095FEA" fill-rule="evenodd"></path>
                    </g>
                    <g id="blocks/doc" transform="translate(293.000000, 313.000000)">
                        <g id="Group-9">
                            <g id="files-copy-2">
                                <g id="Rectangle-6">
                                    <use fill="black" fill-opacity="1" filter="url(#filter-19)" xlink:href="#path-18"></use>
                                    <use fill="#FFFFFF" fill-rule="evenodd" xlink:href="#path-18"></use>
                                </g>
                                <path d="M40.5,234.5 L40.5,269.628336" id="Line-3" stroke="#BD10E0" stroke-width="10" stroke-linecap="square"></path>
                                <path d="M40.5,290.5 L40.5,325.628336" id="Line-3-Copy" stroke="#FF0056" stroke-width="10" stroke-linecap="square"></path>
                                <path d="M40.5,348.5 L40.5,383.628336" id="Line-3-Copy-2" stroke="#2CEDD1" stroke-width="10" stroke-linecap="square"></path>
                                <text id=".-.-." font-family="Colfax-Medium, Colfax" font-size="32" font-weight="400" letter-spacing="-1.89999998" fill="#000000">
                                    <tspan x="65.9725702" y="370">. . </tspan>
                                    <tspan x="88.8365703" y="370" letter-spacing="-0.001140417">.</tspan>
                                </text>
                                <text id="Live-Doc" font-family="BasierSquare-Medium, Basier Square" font-size="32" font-weight="400" fill="#000000">
                                    <tspan x="91" y="67">Live Doc</tspan>
                                </text>
                                <text id="Meetings-Notes" font-family="BasierSquare-Medium, Basier Square" font-size="32" font-weight="400" fill="#000000">
                                    <tspan x="32" y="191">Meetings Notes</tspan>
                                </text>
                                <g id="np_attachment_539052_000000" transform="translate(38.000000, 38.000000)" fill="#095FEA" fill-rule="nonzero">
                                    <path d="M3.4,0 C1.52235,0 0,1.52235 0,3.4 L0,30.6 C0,32.4793075 1.52235,34 3.4,34 L23.8,34 L34,23.8 L34,3.4 C34,1.52235 32.4793075,0 30.6,0 L3.4,0 Z M6,6 L30,6 L30,10 L6,10 L6,6 Z M6,14 L30,14 L30,18 L6,18 L6,14 Z M6,20 L22,20 L22,24 L6,24 L6,20 Z" id="Shape"></path>
                                </g>
                                <rect id="Rectangle-7" fill="#095FEA" x="0" y="111" width="708" height="5"></rect>
                            </g>
                            <g id="Oval-2-Copy-3">
                                <use fill="#095FEA" fill-rule="evenodd" xlink:href="#path-20"></use>
                                <circle stroke="#FFFFFF" stroke-width="7" cx="653" cy="55" r="23.5"></circle>
                            </g>
                            <g id="Oval-2-Copy-2">
                                <use fill="#2CEDD1" fill-rule="evenodd" xlink:href="#path-21"></use>
                                <circle stroke="#FFFFFF" stroke-width="7" cx="623" cy="55" r="23.5"></circle>
                            </g>
                            <g id="Oval-2-Copy">
                                <use fill="#FF0056" fill-rule="evenodd" xlink:href="#path-22"></use>
                                <circle stroke="#FFFFFF" stroke-width="7" cx="593" cy="55" r="23.5"></circle>
                            </g>
                            <g id="Oval-2">
                                <use fill="#BD10E0" fill-rule="evenodd" xlink:href="#path-23"></use>
                                <circle stroke="#FFFFFF" stroke-width="7" cx="563" cy="55" r="23.5"></circle>
                            </g>
                            <rect id="Rectangle-10" fill="#D8D8D8" x="66" y="248" width="177" height="9"></rect>
                            <rect id="Rectangle-10-Copy" fill="#D8D8D8" x="258" y="248" width="89" height="9"></rect>
                            <rect id="Rectangle-10-Copy-2" fill="#D8D8D8" x="362" y="248" width="146" height="9"></rect>
                            <rect id="Rectangle-10-Copy-4" fill="#D8D8D8" x="66" y="305" width="89" height="9"></rect>
                            <rect id="Rectangle-10-Copy-5" fill="#D8D8D8" x="331" y="305" width="89" height="9"></rect>
                            <rect id="Rectangle-10-Copy-3" fill="#D8D8D8" x="170" y="305" width="146" height="9"></rect>
                        </g>
                    </g>
                    <g id="blocks/whiteboard" transform="translate(293.000000, 313.000000)">
                        <g id="Group-9">
                            <g id="files-copy-2">
                                <g id="Rectangle-6">
                                    <use fill="black" fill-opacity="1" filter="url(#filter-25)" xlink:href="#path-24"></use>
                                    <use fill="#FFFFFF" fill-rule="evenodd" xlink:href="#path-24"></use>
                                </g>
                                <text id="Whiteboard" font-family="BasierSquare-Medium, Basier Square" font-size="32" font-weight="400" fill="#000000">
                                    <tspan x="93" y="67">Whiteboard</tspan>
                                </text>
                                <rect id="Rectangle-7" fill="#095FEA" x="0" y="111" width="708" height="5"></rect>
                            </g>
                            <g id="Oval-2-Copy-3">
                                <use fill="#095FEA" fill-rule="evenodd" xlink:href="#path-26"></use>
                                <circle stroke="#FFFFFF" stroke-width="7" cx="653" cy="55" r="23.5"></circle>
                            </g>
                            <g id="Oval-2-Copy-2">
                                <use fill="#2CEDD1" fill-rule="evenodd" xlink:href="#path-27"></use>
                                <circle stroke="#FFFFFF" stroke-width="7" cx="623" cy="55" r="23.5"></circle>
                            </g>
                            <g id="Oval-2-Copy">
                                <use fill="#FF0056" fill-rule="evenodd" xlink:href="#path-28"></use>
                                <circle stroke="#FFFFFF" stroke-width="7" cx="593" cy="55" r="23.5"></circle>
                            </g>
                            <g id="Oval-2">
                                <use fill="#BD10E0" fill-rule="evenodd" xlink:href="#path-29"></use>
                                <circle stroke="#FFFFFF" stroke-width="7" cx="563" cy="55" r="23.5"></circle>
                            </g>
                        </g>
                        <g id="Page-1" transform="translate(131.000000, 167.000000)">
                            <g id="Group" transform="translate(6.000000, 146.000000)" fill="#D8D8D8" stroke="#D8D8D8">
                                <path d="M59.495374,0.00437342586 C57.0862809,0.161558856 54.6484915,0.354551006 52.2491971,0.57910162 C51.481395,0.650715059 50.9249658,1.249719 51.0082552,1.91608812 C51.0852454,2.5387609 51.692768,3 52.3975782,3 C52.4486717,3 52.4990653,2.99757243 52.5501588,2.99271728 C54.9186571,2.77120113 57.3256504,2.58002966 59.7046473,2.42466491 C60.4752492,2.37429275 61.0540754,1.79167494 60.9959828,1.12409203 C60.9378902,0.455295335 60.2680756,-0.0526745681 59.495374,0.00437342586" id="Fill-6"></path>
                                <path d="M42.3673914,2.01612368 C39.9664334,2.38928816 37.5358427,2.80806163 35.1440567,3.26069632 C34.3785441,3.40581584 33.8783151,4.13072239 34.0257733,4.87981552 C34.155593,5.5411459 34.7468368,6 35.4100459,6 C35.4989441,6 35.5885479,5.99170746 35.6788572,5.97512237 C38.0403049,5.52801604 40.4398518,5.11407989 42.809766,4.74644377 C43.5795119,4.62689293 44.1044348,3.91857147 43.9823761,3.16464102 C43.8603174,2.41071056 43.1357262,1.90141016 42.3673914,2.01612368" id="Fill-8"></path>
                                <path d="M24.2310387,6.04133147 C21.8550456,6.65577354 19.4376065,7.32394145 17.046607,8.02767435 C16.2862892,8.25090146 15.8411031,9.08478711 16.0526201,9.8906748 C16.2276933,10.5611128 16.8022192,11 17.4281951,11 C17.5546766,11 17.6840163,10.9810824 17.811927,10.944004 C20.1736284,10.2493516 22.5617696,9.58875068 24.9091794,8.98263234 C25.6759284,8.7836197 26.146125,7.96486808 25.9589039,7.15292678 C25.7716827,6.34098549 24.9942149,5.84988586 24.2310387,6.04133147" id="Fill-10"></path>
                                <path d="M6.87828947,12.1736489 C4.4070908,13.5165963 2.26012487,14.9675805 0.496930003,16.4858193 C-0.102757105,17.0023926 -0.16875138,17.9067535 0.348442884,18.504891 C0.632505198,18.8325787 1.03277482,19 1.43519644,19 C1.7673198,19 2.10159515,18.8855239 2.37274554,18.6522789 C3.98099733,17.266403 5.95867359,15.9327568 8.25125732,14.6878296 C8.94706653,14.3093431 9.20387034,13.4407559 8.82512058,12.7460292 C8.4456535,12.0527335 7.57409867,11.7973088 6.87828947,12.1736489" id="Fill-12"></path>
                                <path d="M113.769114,1.93925992 L113.576966,1.91313914 C111.230512,1.5843247 108.867228,1.28009451 106.55163,1.00889941 C105.770414,0.918244963 105.089479,1.53054663 105.008132,2.37255746 C104.925382,3.21687306 105.483594,3.97360724 106.252889,4.06426169 C108.549552,4.33315201 110.893201,4.63507742 113.224928,4.9615871 L113.425491,4.98847613 C113.483697,4.99615871 113.541902,5 113.599407,5 C114.29647,5 114.900966,4.43072078 114.989326,3.65170712 C115.083998,2.81046455 114.538409,2.04297475 113.769114,1.93925992" id="Fill-14"></path>
                                <path d="M77.6085787,0.00145348837 L76.9491583,0 C74.741321,0 72.5230168,0.03125 70.3570475,0.09375 C69.586677,0.115552326 68.9795915,0.784156977 69.0005255,1.58648256 C69.0207617,2.37572674 69.6418032,3 70.3947287,3 C70.4079869,3 70.4205473,3 70.4338055,2.99927326 C72.574654,2.93822674 74.7664418,2.90697674 76.9449715,2.90697674 L77.6002051,2.90843023 L77.6043919,2.90843023 C78.3733668,2.90843023 78.9971995,2.26017442 78.9999907,1.45930233 C79.0027819,0.65625 78.3789492,0.00436046512 77.6085787,0.00145348837" id="Fill-16"></path>
                                <path d="M149.31122,11.2660287 C147.392507,10.1022485 145.200841,9.03259229 142.797923,8.08697531 C142.103136,7.81408892 141.332565,8.20444779 141.080403,8.96254658 C140.828241,9.72064538 141.189048,10.556816 141.885176,10.8311616 C144.153295,11.7242443 146.212173,12.7282327 148.005475,13.8154004 C148.212034,13.9408989 148.436029,14 148.656671,14 C149.128134,14 149.584172,13.7300322 149.829628,13.2513866 C150.191105,12.5472813 149.958391,11.6585765 149.31122,11.2660287" id="Fill-18"></path>
                                <path d="M131.8773,5.27955582 C129.634568,4.82317004 127.262734,4.41008592 124.624932,4.01762164 C123.858071,3.89596458 123.134245,4.41764652 123.01643,5.16820869 C122.898614,5.91877085 123.427021,6.6198454 124.197409,6.73462917 C126.785121,7.1209075 129.108278,7.52505636 131.300215,7.97113222 C131.396866,7.99037741 131.494222,8 131.590168,8 C132.244151,8 132.831113,7.55529879 132.970094,6.90646117 C133.128827,6.16345962 132.639927,5.43557928 131.8773,5.27955582" id="Fill-20"></path>
                                <path d="M95.701414,0.393562391 C93.2775801,0.233065857 90.8418716,0.100623595 88.4599484,0.000150155735 C87.7153355,-0.0102886432 87.0370811,0.524699802 87.001457,1.24562935 C86.9665315,1.96525406 87.5637585,2.57527137 88.3342164,2.60789261 C90.6916917,2.7070612 93.1043493,2.83754619 95.5037353,2.99673788 C95.5372638,2.99869515 95.5707924,3 95.6036224,3 C96.330074,3 96.9433669,2.47479793 96.9964537,1.78779447 C97.0509376,1.0688222 96.4711733,0.444451535 95.701414,0.393562391" id="Fill-22"></path>
                            </g>
                            <g id="Group-3" transform="translate(0.000000, 71.000000)">
                                <mask id="mask-31" fill="white">
                                    <use xlink:href="#path-30"></use>
                                </mask>
                                <g id="Clip-2"></g>
                                <path d="M160.115502,32.6118017 C156.540797,35.3045391 151.983884,36.6571927 147.66956,37.5950419 C132.904382,40.8038408 117.774622,42.8380587 102.730606,44.1327514 C77.4964481,46.3038408 51.4689959,46.3164106 26.8364315,39.7647346 C21.8626556,38.4421089 16.8470539,36.9218575 12.2148548,34.6474162 C8.74959336,32.9462989 4.48964315,30.6523045 4.14248963,26.3352654 C3.73956846,21.3101257 8.7126473,17.5084497 12.4992697,15.185824 C16.7850124,12.5566341 21.4158174,10.8638966 26.2641162,9.62786313 C54.4177095,2.45118715 83.7438174,4.48680168 112.640515,5.36319832 C117.233676,5.91906425 121.808714,6.63624302 126.350988,7.56990223 C132.959452,8.92814246 139.309295,10.9672486 145.745577,12.9414106 C150.857378,14.5098464 156.772232,15.9714385 160.880913,19.5901536 C161.909129,20.4951816 162.647353,21.5147346 163.131137,22.5852654 C163.124863,22.6481145 163.112315,22.7074721 163.112315,22.7759078 L163.112315,28.9323324 C162.494689,30.3087291 161.484598,31.5796788 160.115502,32.6118017 M165.888149,96.4288408 C166.302224,96.1550978 166.597793,95.6990922 166.597793,95.0482542 L166.597793,30.2256285 C167.201477,28.8017458 167.501228,27.2102654 167.382722,25.4218575 C166.971436,19.2032821 162.202606,15.5580307 156.935353,13.2046788 C150.690075,10.414176 143.799286,8.48959497 137.229859,6.62297486 C135.061892,6.0077514 132.88068,5.45537709 130.68971,4.94839385 C131.352647,3.92674581 130.89605,2.17814246 129.305278,2.17604749 C123.886755,2.1676676 118.44732,2.05034916 112.993942,1.89182961 C101.417975,0.49797486 89.6942241,0.122276536 78.0715519,0.081075419 C77.3305394,0.0789804469 76.8390871,0.460265363 76.5874357,0.968645251 C59.9373112,0.942108939 43.3575934,1.92046089 27.1055104,5.82269553 C18.0390871,7.99867318 5.16791701,12.2263268 1.42521162,21.8296788 C1.05644813,22.7759078 0.82013278,23.6802374 0.698838174,24.5447626 C0.291037344,24.8192039 0.000348547718,25.2731145 0.000348547718,25.9183659 L0.000348547718,95.0482542 L0.000348547718,96.1285615 C0.000348547718,98.3757682 3.48582573,98.3792598 3.48582573,96.1285615 L3.48582573,95.0482542 L3.48582573,32.7039804 C6.71128631,36.211662 12.0398838,38.5538408 16.2768299,40.1250698 C41.5402656,49.4958799 69.9476017,49.914176 96.4623237,48.1076117 C113.370373,46.9560754 130.223353,44.6250698 146.843502,41.3157123 C151.762207,40.336662 158.686456,38.4847067 163.112315,34.7626397 L163.112315,95.0482542 C163.112315,95.5622207 163.299137,95.9518855 163.580066,96.2312151 C162.991718,96.7263268 162.641776,97.5601257 163.018207,98.4456006 C167.511685,109.002165 152.770905,112.739595 145.341959,114.199092 C131.257842,116.96655 117.031519,119.041271 102.730606,120.269623 C78.5943734,122.343645 53.7359502,122.456075 30.0632863,116.72074 C24.9452116,115.481215 19.8215602,114.039176 14.9502573,112.018226 C11.2431037,110.479818 6.33694606,108.406494 4.58514523,104.495182 C3.66846473,102.449092 0.663983402,104.222137 1.57508714,106.257053 C5.0013112,113.904399 17.0847635,116.815014 24.2794855,118.824791 C34.7268548,121.743785 45.4251784,123.440014 56.2308548,124.278701 C72.3281826,125.528003 88.5412282,125.061522 104.607187,123.594344 C119.693029,122.21655 135.126025,120.363897 149.873776,116.808031 C159.555037,114.474232 170.969278,108.292668 166.027568,96.6837291 C165.987137,96.5873603 165.93834,96.5084497 165.888149,96.4288408" id="Fill-1" stroke="#000000" fill="#000000" mask="url(#mask-31)"></path>
                            </g>
                            <path d="M211.340964,20.0178139 C188.206243,17.2132494 164.483133,20.2365949 142.776163,28.691961 C122.431413,36.6160018 102.256068,49.2038986 89.7590666,67.4550988 C83.8472863,76.0875733 80.0729492,86.0820467 80.0987435,96.5119985 C78.6075527,95.1527779 77.3722137,93.6129761 76.2888521,91.9106513 C75.0911588,90.0277453 72.0732229,91.76827 73.2792818,93.6629832 C74.4553636,95.5118566 75.7883027,97.2502976 77.3896423,98.7574559 C78.3321809,99.6443873 79.7599316,101.110567 81.1632823,101.719682 C81.4484141,101.88151 81.7718889,101.967633 82.0932722,101.980135 C82.116278,101.982913 82.1385866,101.98847 82.1615923,101.989859 C83.719709,102.119738 84.4809901,100.979299 85.2806142,99.8749755 C86.994891,97.5072785 88.8869396,95.6514597 91.4043262,94.128327 C93.3193805,92.9698293 91.5695493,89.965931 89.6454322,91.1306795 C87.3183658,92.5378236 85.2792199,94.2457048 83.5788859,96.3362791 C83.666726,76.5487499 98.0334676,59.6713557 113.498211,48.4857412 C131.325575,35.59294 152.287298,27.2341153 174.048645,23.9510107 C186.39088,22.0882465 198.955505,21.9889268 211.340964,23.4905287 C213.562761,23.7600114 213.543241,20.2845184 211.340964,20.0178139" id="Fill-26" stroke="#BD10E0" fill="#BD10E0"></path>
                            <g id="Group-30" transform="translate(240.000000, 0.000000)">
                                <mask id="mask-33" fill="white">
                                    <use xlink:href="#path-32"></use>
                                </mask>
                                <g id="Clip-29"></g>
                                <path d="M44.3908385,42.0239092 C39.1410692,50.3700145 26.9204538,49.5282908 18.6252231,47.160725 C8.34376154,44.2268961 1.67337692,34.2970671 3.78699231,23.4808829 C6.51399231,9.52584342 20.9306077,2.39664605 34.0429154,5.03827763 C34.2582231,5.08151447 34.4576077,5.078725 34.6479923,5.05361974 C41.3024538,6.54040921 47.3532231,9.87173816 49.6281462,16.7533697 C52.3309154,24.9293171 48.7655308,35.0676592 44.3908385,42.0239092 M53.7369923,19.335725 C52.3004538,8.95958026 44.2572231,3.84786974 35.1755308,1.74111974 C35.1056077,1.71880395 35.0405308,1.69160658 34.9629923,1.67626447 C34.8286846,1.64906711 34.6950692,1.62814605 34.5621462,1.60304079 C30.4436077,0.713198684 26.1409154,0.422396053 22.1615308,0.530488158 C21.1673769,0.557685526 20.6197615,1.26969868 20.5131462,2.04308026 C12.6783,4.08288289 5.83137692,9.18134342 2.2383,17.1194882 C-2.81346923,28.2836592 1.05099231,42.6396855 12.2186077,48.4055276 C20.5761462,52.7208434 33.9702231,54.3164224 42.2966077,49.1314882 C47.1995308,46.0770145 49.7354538,39.9366855 51.6358385,34.6820145 C53.3936077,29.8213566 54.4535308,24.5088039 53.7369923,19.335725" id="Fill-28" stroke="#000000" fill="#000000" mask="url(#mask-33)"></path>
                            </g>
                            <path d="M213.947298,136.239905 C213.898022,135.815563 213.704434,135.412337 213.367945,135.134437 C212.993442,134.718951 212.497859,134.372257 211.99946,134.024883 C209.909423,132.565912 208.271324,130.950962 206.926773,128.809502 C205.752579,126.938449 202.707981,128.648075 203.887807,130.527983 C204.872638,132.097297 206.024305,133.511314 207.367448,134.759818 L182.699519,134.759818 C180.435606,134.759818 180.431382,138.165448 182.699519,138.165448 L209.063271,138.165448 C208.994987,138.253313 208.926704,138.33641 208.857013,138.411334 C207.622983,139.742935 206.218596,140.830693 204.660748,141.786313 C202.753034,142.956487 204.516437,145.905081 206.436822,144.727415 C208.106599,143.703001 209.679934,142.541681 211.039972,141.147417 C212.062112,140.100526 213.856488,138.429724 213.990943,136.914219 C214.014174,136.667652 213.990239,136.44901 213.947298,136.239905" id="Fill-31" stroke="#BD10E0" fill="#BD10E0"></path>
                            <g id="Group-35" transform="translate(232.000000, 108.000000)">
                                <mask id="mask-35" fill="white">
                                    <use xlink:href="#path-34"></use>
                                </mask>
                                <g id="Clip-34"></g>
                                <path d="M48.4887127,58.3905391 C33.5315536,58.4545391 18.5750925,58.5394087 3.61932955,58.6409739 L3.61932955,4.21732174 C57.3476899,5.60862609 111.086521,6.64375652 164.829541,7.30671304 C179.967495,7.49384348 195.106148,7.65036522 210.245498,7.77975652 C210.64618,25.1550609 211.048258,40.9630609 211.44894,58.462887 C211.395888,58.458713 211.34842,58.446887 211.291878,58.446887 C157.023924,58.1790609 102.755969,58.1581913 48.4887127,58.3905391 M213.670141,4.96514783 C213.624768,2.98114783 210.872349,2.75645217 210.29157,4.3008 C156.302138,3.8381913 102.315498,3.01453913 48.3372354,1.81801739 C33.1462289,1.48062609 17.9559205,1.11332174 2.76631006,0.718886957 C1.73319318,0.176278261 0.129069805,0.661147826 0.129069805,2.18114783 L0.129069805,62.0072348 C0.129069805,64.2054957 3.48809578,64.2430609 3.60816071,62.1192348 C57.5284854,61.7533217 111.450904,61.6288 165.372625,61.7568 C180.67881,61.7929739 195.985693,61.8493217 211.291878,61.9251478 C212.089752,61.9286261 212.598631,61.4896696 212.830385,60.9254957 C213.823015,61.1376696 214.988761,60.6006261 214.959443,59.2962783 C214.528745,40.5185391 214.099443,23.742887 213.670141,4.96514783" id="Fill-33" stroke="#000000" fill="#000000" mask="url(#mask-35)"></path>
                            </g>
                        </g>
                        <g id="Page-1" transform="translate(29.000000, 35.000000)">
                            <mask id="mask-37" fill="white">
                                <use xlink:href="#path-36"></use>
                            </mask>
                            <g id="Clip-2"></g>
                            <path d="M31.3900229,25.954376 L30.4052833,26.9391156 L17.6025125,14.135574 L18.5868667,13.1508344 L20.2129396,11.5251469 L26.7769708,4.96227187 C27.2255958,4.51364687 27.2255958,3.78636562 26.7769708,3.33619896 C26.3283458,2.88757396 25.6010646,2.88757396 25.1512833,3.33619896 L17.7771062,10.7088344 L15.1647521,13.3196469 C15.0911375,13.4052094 15.0475854,13.4549281 15.0144396,13.5077302 C14.9570125,13.6117927 14.9284917,13.6642094 14.9072937,13.7185531 C14.906266,13.7216365 13.7826479,16.7358517 11.5364396,22.761199 L7.62060625,26.6770323 C7.17198125,27.1256573 7.17198125,27.8544802 7.62060625,28.3031052 L8.47430417,29.1568031 L3.33747083,34.2947927 C3.0800125,34.5507094 2.95937708,34.9153135 3.01217917,35.273751 C3.06498125,35.6333448 3.28312708,35.9466885 3.60379375,36.1197406 L10.4630542,39.8278344 C10.6345646,39.9195635 10.8230333,39.9650427 11.009575,39.9650427 C11.3078875,39.9650427 11.6011896,39.8490323 11.8224187,39.6278031 L15.384825,36.0653969 L16.2593354,36.9399073 C16.4836479,37.1642198 16.7773354,37.2756052 17.0725646,37.2756052 C17.3658667,37.2756052 17.6610958,37.1626781 17.8854083,36.9399073 L21.8012417,33.0244594 L30.8103563,29.6401156 C30.8843562,29.6112094 30.9444812,29.5796052 31.0046063,29.5437615 C31.0994187,29.4863344 31.1626271,29.435074 31.2215958,29.3764906 L33.8320229,26.7656781 L41.2092833,19.3899594 C41.6532833,18.9397927 41.6532833,18.2125115 41.2046583,17.7638865 C40.7560333,17.3152615 40.0272104,17.3152615 39.5785854,17.7642719 L33.0145542,24.3279177 L31.3900229,25.954376 Z M20.7579188,30.9597823 C20.6045229,31.0172094 20.4657729,31.1073969 20.3497625,31.2234073 L17.0710229,34.5025323 L10.0595229,27.489876 L13.3386479,24.2111365 C13.4562,24.0935844 13.5448458,23.9536781 13.6038146,23.7983552 L16.4308458,16.2118135 L28.3321271,28.114251 L20.7579188,30.9597823 Z" id="Fill-1" stroke="#095FEA" stroke-width="2" fill="#095FEA" mask="url(#mask-37)"></path>
                        </g>
                    </g>
                </g>
            </g>
        </g>
    </g>
</svg>