<svg xmlns="http://www.w3.org/2000/svg" width="200" height="200"><style>@keyframes a0_t{0%,to{transform:translate(60.52px,45.87px) rotate(-15deg) translate(-49.5205px,-45.8705px)}50%{transform:translate(60.52px,45.87px) rotate(0deg) translate(-49.5205px,-45.8705px);animation-timing-function:cubic-bezier(.42,0,1,1)}}@keyframes a1_t{0%,to{transform:translate(49.9914px,43.099923px) rotate(0deg) translate(-49.975px,-45.8705px)}50%{transform:translate(49.9914px,43.099923px) rotate(-15deg) translate(-49.975px,-45.8705px);animation-timing-function:cubic-bezier(.42,0,.784356,1)}}</style><g id="Landing" fill="none" fill-rule="evenodd"><g id="landing-page-mvp" transform="translate(-886 -1899)"><g id="Group-7" transform="translate(338 1751)"><g id="Group-5-Copy" transform="translate(484 148)"><g id="Group-9" transform="translate(64)"><g id="five" transform="rotate(-90 109.275 8.912)"><g transform="translate(.016 .457)"><g transform="rotate(-15 55.018 4.096)" style="animation:a0_t 4s linear infinite both"><path id="Fill-1" d="M39.219 88.635c1.433-2.703-2.214-26.395-1.733-26.514 9.113-2.238 24.888-9.363 31.506-15.724 11.989-11.526 34.634-7.854 29.252-19.979-8.504-12.041-33.235 3.996-33.235 3.996-.018-4.942.142-24.41-.254-29.269C58.762.066 52.12.602 47.603 4.487 40.832-5.433 22.676 6.53 15.75 3.012 7.319 11.057 1.37 33.36.264 44.02-1.16 57.8 4.05 72.74 3.54 87.036c10.76.956 31.171 10.042 35.679 1.599z" fill="#080061" transform="translate(-.016 -.457)"/><path id="Fill-1-2" d="M64.114 12.753c-.061-.017-.068.197-.02.227 3.088 1.869-4.414 8.472-5.445 9.072-6.417 3.718-5.584-6.006-5.177-9.754.105-.95-.67-3.31-1.294-1.322-2.91 9.236-11.936 22.176-15.056 6.54a30.097 30.097 0 0 0-.541-3.212c-.86-3.808-2.595.08-2.67 2.493-.026.015-.05.032-.075.047 1.447 9.229-8.816 7.92-10.356-.774 0-1.583-.086-2.994-.216-4.02-.475-3.702-2.608-2.023-2.76.784-.048.82-.035 1.88.037 3.053-.402 4.089-3.344 6.935-7.06 8.573-1.016.447-.884 3.173-.093 3.75 5.048 3.678 7.7 1.023 8.995-3.257 1.494 3.835 4.011 6.793 8.105 6.117 3.441-.57 5.282-2.822 6.153-5.659 2.377 4.738 6.054 8.023 10.686 1.834 1.908-2.558 3.497-5.42 4.582-8.455.022.33.03.667.062 1.001.083 1.256.463 2.36.866 3.535 3.044 8.886 16.187-8.944 11.276-10.573" fill="#095FEA" transform="translate(-.016 -.457)"/></g></g></g><g id="five-copy" transform="matrix(0 -1 -1 0 95.636 164.026)"><g transform="translate(.016 -2.77)" style="animation:a1_t 4s linear infinite both"><path id="Fill-1-3" d="M39.219 88.635c1.433-2.703-2.214-26.395-1.733-26.514 9.113-2.238 24.888-9.363 31.506-15.724 11.989-11.526 35.57-7.854 30.188-19.979-5.584-9.58-32.809-2.998-34.171 2.125-.018-4.942.142-22.54-.254-27.398C58.762.066 52.12.602 47.603 4.487 40.832-5.433 22.676 6.53 15.75 3.012 7.319 11.057 1.37 33.36.264 44.02-1.16 57.8 4.05 72.74 3.54 87.036c10.76.956 31.171 10.042 35.679 1.599z" fill="#FF0056" transform="translate(-.016 -.457)"/><path id="Fill-1-4" d="M64.114 12.753c-.061-.017-.068.197-.02.227 3.088 1.869-4.414 8.472-5.445 9.072-6.417 3.718-5.584-6.006-5.177-9.754.105-.95-.67-3.31-1.294-1.322-2.91 9.236-11.936 22.176-15.056 6.54a30.097 30.097 0 0 0-.541-3.212c-.86-3.808-2.595.08-2.67 2.493-.026.015-.05.032-.075.047 1.447 9.229-8.816 7.92-10.356-.774 0-1.583-.086-2.994-.216-4.02-.475-3.702-2.608-2.023-2.76.784-.048.82-.035 1.88.037 3.053-.402 4.089-3.344 6.935-7.06 8.573-1.016.447-.884 3.173-.093 3.75 5.048 3.678 7.7 1.023 8.995-3.257 1.494 3.835 4.011 6.793 8.105 6.117 3.441-.57 5.282-2.822 6.153-5.659 2.377 4.738 6.054 8.023 10.686 1.834 1.908-2.558 3.497-5.42 4.582-8.455.022.33.03.667.062 1.001.083 1.256.463 2.36.866 3.535 3.044 8.886 16.187-8.944 11.276-10.573" fill="#0A0261" transform="translate(-.016 -.457)"/></g></g></g></g></g></g></g></svg>