<svg width="48px" height="68px" viewBox="0 0 48 68">
<polygon id="shape" fill="#095FEA" fill-rule="nonzero" points="36.6150463 22.7082126 36.6150463 8.61592614 22.584769 8.61592614 33.8103379 0.157693475 47.8422991 0.157693475 43.3520714 3.54098654 47.8434216 0.157693475 47.8434216 42.4347644 36.6150463 50.8901787 36.6150463 36.8005696 25.3931256 45.2532358 25.3931256 59.3484113 14.1675567 67.8010069 14.1675567 25.5247816 0.133350404 25.5247816 11.3589193 17.0693674 25.3908805 17.0693674 20.9017754 20.4515331 25.3931256 17.0685218 25.3931256 31.1608788"></polygon>
<path d="M36.617572,22.7063102 L25.3920031,31.1617245 L25.3920031,22.7063102 L25.3920031,17.0693674 L22.5856108,17.0693674 L22.5856108,8.6139532 L36.617572,8.6139532 L36.617572,22.7063102 Z M0.134472961,67.8018526 L0.134472961,25.5247816 L14.1664341,25.5247816 L14.1664341,67.8018526 L0.134472961,67.8018526 Z M36.617572,36.7986672 L36.617572,50.8910242 L25.3920031,50.8910242 L25.3920031,45.2540813 L36.617572,36.7986672 Z" id="shade" fill="#095FEA" fill-rule="nonzero" opacity="0.35"></path>
</svg>