<svg width="660" height="265" xmlns="http://www.w3.org/2000/svg" xmlns:xlink="http://www.w3.org/1999/xlink">
  <defs>
    <path id="a" d="M4.422.389h203.784v106.215L0 111.42z"/>
    <path id="c" d="M.264.36h12.583v13.754H.264z"/>
    <path id="e" d="M.543.303h159.019v152.689H.543z"/>
  </defs>
  <g fill="none" fill-rule="evenodd">
    <g transform="rotate(-3 1172.13 -328.127)">
      <mask id="b" fill="#fff">
        <use xlink:href="#a"/>
      </mask>
      <path d="M187.059.387c-10.155 2.645-57.332 23.336-62.91 26.048l1.295 11.998c-6.152 6.92-14.85 13.397-25.862 13.397C75.94 51.83 67 39.98 67 39.98a407.443 407.443 0 0 0-32.74 11.88c-2.99 1.233-6.07 2.574-8.221 4.996-1.526 1.723-3.84 4.87-5.443 6.873-5.478 6.843-9.798 12.842-14.35 19.737-.84 1.274-.918 2.858-.207 4.064.47.801 1.448 1.201 2.227 1.562 8.675 4.021 17.628-8.97 21.527-15.865 1.93-3.408 7.782-5.262 11.49-6.494 1.315-.438 2.68-.638 4.064-.765-1.176.784-2.288 1.651-3.233 2.706-1.259 1.41-2.21 3.064-3.153 4.706-4.437 7.737-8.923 12.595-12.279 20.894-1.967 4.865.143 10.182 5.258 9.087 6.574-1.538 12.26-11.71 15.473-16.741 2.062-3.225 9.029-10.102 12.493-11.714.153-.07.342-.163.553-.268-1.03 1.043-2.05 2.083-3.063 3.102-1.767 1.778-3.545 3.565-4.96 5.638-2.84 4.159-3.832 6.38-4.985 11.285l11.274 5.746c2-3.677 3.998-7.355 5.994-11.035 2.701-4.975 5.542-8.065 10.093-11.416 2.432-1.793 5.174-3.37 7.98-4.841-4.537 3.064-8.842 6.517-13.043 10.266-1.358 1.215-2.704 2.474-3.72 3.99-1.983 2.963-2.548 6.626-3.062 10.155l.547 2.13a24.38 24.38 0 0 0 8.594 1.996c.74.035 1.519.023 2.144-.368 2.478-1.535 2.69-5.01 3.854-7.344 1.535-3.085 1.793-3.839 5.523-8.521 3.73-4.682 8.868-6.206 10.323-6.197 4.727.029 16.514 6.293 35.927-1.08 30.23-11.479 49.462-20.928 78.328-34.386L187.059.387z" fill="#0BF7F3" mask="url(#b)"/>
    </g>
    <path d="M107.973 158.889c-.878 2.632-3.702 4.041-6.305 3.153l-71.286-24.355c-2.603-.888-4.004-3.74-3.125-6.368l10.431-31.22c.879-2.627 3.7-4.038 6.306-3.148l71.286 24.35c2.603.893 4.003 3.743 3.124 6.373l-10.43 31.215z" fill="#0051A1"/>
    <path d="M33.245 115.497a726.16 726.16 0 0 0 40.858 13.25c2.83.825 3.34-1.121.5-1.95a704.44 704.44 0 0 1-39.593-12.843c-1.998-.715-4.982.395-1.765 1.543" fill="#63B2FF"/>
    <path d="M68.479 149.57a746.577 746.577 0 0 1 15.367-38.793c.277-.643-2.156-.608-2.447.066a749.789 749.789 0 0 0-15.367 38.793c-.25.684 2.202.61 2.447-.066" fill="#63B2FF"/>
    <g transform="rotate(7 -1184.034 794.715)">
      <mask id="d" fill="#fff">
        <use xlink:href="#c"/>
      </mask>
      <path d="M12.293 9.518c-1.42 3.58-5.146 5.464-8.315 4.206C.809 12.464-.604 8.539.816 4.959 2.242 1.374 5.963-.51 9.132.751c3.17 1.26 4.585 5.184 3.161 8.767" fill="#0BF7F3" mask="url(#d)"/>
    </g>
    <path d="M84.403 155.92c-1.43 4.153-5.703 6.484-9.546 5.209-3.839-1.274-5.798-5.672-4.366-9.823 1.426-4.152 5.7-6.484 9.54-5.21 3.844 1.276 5.8 5.674 4.372 9.824M144.412 80.653c-26.119-2.928-40.773-9.66-63.881 3.12-12.74 7.05-25.481 14.097-38.222 21.144l.367 1.24c4.363 4.13 10.427 6.4 16.422 6.148 8.88-.371 16.592-5.836 24.598-9.71 1.15-.558 2.415-1.099 3.667-.85 1.052.207 1.912.935 2.747 1.607 8.696 7.02 19.988 10.86 31.144 10.276 9.17-.48 30.286-14.277 30.286-14.277l-7.128-18.698z" fill="#0BF7F3"/>
    <path d="M82.287 107.318c2.552-2.052 5.443-4.7 8.654-3.284 2.345 1.033 4.452 3.117 6.777 4.313 4.475 2.298 9.38 3.729 14.359 4.398 10.365 1.388 21.204-.765 29.9-6.643 3.788-2.56-4.62-2.784-6.517-1.5-12.255 8.283-25.15 4.348-36.577-3.052-8.033-5.202-17.767-.127-24.36 5.178-1.589 1.278 1.037 2.006 1.925 2.128 1.904.258 4.33-.325 5.839-1.538" fill="#095FEA"/>
    <path d="M373.655-99.456c-4.073 4.072-10.516 5.022-15.192 8.36-3.61 2.575-5.64 6.016-8.77 8.923-8.41 7.811-21.472 11.682-31.601 17.021-23.36 12.31-45.819 26.354-66.759 42.457-16.497 12.69-35.368 23.173-53.52 33.516-16.17 9.213-39.038 19.506-51.966 33.271-4.79 5.156 9.587 28.167 12.062 33.75 4.747 10.697 10.132 21.096 15.16 31.664 3.942 8.281 6.232 18.947 11.154 26.48 5.5-1.096 9.69-5.327 14.728-7.596 6.524-2.94 13.09-5.797 19.632-8.707 10.563-4.7 21.136-9.374 31.697-14.081 10.599-4.727 20.543-10.383 30.17-15.992 18.324-10.67 36.276-19.703 53.134-32.51 27.466-20.865 55.557-39.37 78.665-65.429 23.374-26.355 49.679-46.934 68.528-77.57 11.16-18.134 25.697-49.92 17.903-71.758-5.398-15.117-117.165 50.335-125.025 58.2z" fill="#63B2FF"/>
    <g>
      <g transform="rotate(-177 238.615 127.842)">
        <mask id="f" fill="#fff">
          <use xlink:href="#e"/>
        </mask>
        <path d="M9.007 104.767c4.844-10.394 9.551-19.913 16.437-29.414 2.222-3.065 3.862-6.342 6.385-9.256 2.424-2.802 4.456-5.697 6.497-8.81 3.035-4.63 7.313-8.217 11.123-12.178 4.189-4.357 9.37-8.59 12.198-14.056 1.643-3.182 3.771-6.005 6.185-8.683 3.981-4.417 7.127-9.112 11.686-12.956.784.81 1.662 1.555 2.614 2.163.847.54 1.895.684 2.479 1.526 1.113 1.603-.767 3.021-1.5 4.355-1.955 3.557-3.451 7.277-5.261 10.876-.86 1.71-2.1 3.136-2.967 4.817-1.207 2.343-4.431 6.368-3.361 9.23.958 2.567 4.554 1.333 6.105.059a62.592 62.592 0 0 0 6.845-6.592c3.409-3.822 6.91-7.36 10.688-11.004 3.438-3.308 7.008-6.95 9.674-10.885 2.817-4.161 7.285-7.547 10.735-11.215 2.244-2.389 2.923-3.564 5.542-.99 1.953 1.92 4.326 3.242 6.084 5.364.04.052-3.403 5.961-3.789 6.4-1.178 1.347-2.529 2.094-3.69 3.653-4.03 5.414-8.608 11.17-13.692 15.632-4.008 3.517-7.073 7.57-10.541 11.559-1.455 1.672-5.276 5.42-4.402 7.948 1.287 3.73 6.216-.5 7.946-1.959 6.729-5.672 12.582-12.292 18.76-18.525 2.75-2.773 5.48-5.577 8.443-8.124 1.241-1.067 2.622-1.899 3.87-2.908 1.25-1.015 2.198-2.4 3.719-3.08 1.13-.506 5.883 2.943 6.598 3.677.135.141 1.967 3.59 2.352 2.96-1.402 2.291-3.404 4.24-5.01 6.38-1.633 2.177-3.76 4.59-5.683 6.52-1.448 1.455-3.028 2.778-4.47 4.248-3.376 3.449-6.829 6.817-10.072 10.388-2.327 2.562-5.115 4.604-7.54 7.067-1.41 1.433-2.981 2.816-4.25 4.36.71 3.716 11.49-2.275 13.005-3.218 4.05-2.526 8.378-4.574 12.432-7.267 7.262-4.825 15.172-11.386 23.667-14.051 1.84 3.208 3 6.526 4.714 9.703-.32-.59-38.454 26.618-42.26 28.435-3.628 1.731-6.423 4.452-9.688 6.85-2.04 1.496-3.006 3.351-4.677 5.115-2.133 2.25-4.357 4.39-6.339 6.782-1.185 1.431-2.568 2.88-3.313 4.591.085-.191 8.343-.352 9.227-.465 3.157-.401 6.293-.947 9.463-1.24 5.517-.51 11.044-.221 16.557-.347.88 2.46 2.043 5.123 2.209 7.764-4.45 1.716-9.445 2.68-14.068 3.909-4.221 1.119-8.373 2.372-12.549 3.644-4.112 1.251-7.96 2.305-11.91 4.05a972.538 972.538 0 0 1-10.173 4.427c-3.405 1.46-6.688 3.412-10.075 4.977-3.84 1.777-7.694 3.026-11.693 4.429-3.82 1.337-8.14 2.673-11.521 4.969-1.37.927-2.244 2.406-3.468 3.513-1.311 1.19-2.795 2.246-4.206 3.319-2.296 1.742-4.368 3.877-6.424 5.857-.9.86-1.83 1.596-2.631 2.528-.615.719-.34 1.373-1.484 1.403-1.55.04-3.198-2.1-4.043-3.188-1.226-1.581-2.352-2.424-4.058-3.553-4.254-2.823-8.214-6.196-11.867-9.758-3.318-3.234-9.618-7.564-9.999-12.561-.507-6.705 5.76-13.428 8.435-19.164" fill="#0BF7F3" mask="url(#f)"/>
      </g>
      <path d="M470.386 78.538c6.866-6.768 12.602-15.656 20.135-21.573 11.624-9.135 17.695-23.16 28.74-32.322 19.567-16.228 77.138-133.937 80.437-147.199 3.299-13.262 38.175-60.77 23.942-88.653-3.627-7.105 74.08 123.011 75.474 136.159 2.154 20.304-77.828 121.84-86.034 133.896-17.844 26.22-37.068 51.663-59.024 74.6-16.705 17.452-37.656 29.082-55.576 44.771-5.927 5.192-11.144 10.665-17.647 15.16-4.626 3.202-8.889 6.956-13.556 10.094-3.051 2.051-6.827 3.526-9.443 6.047-1.74-.93-1.992-5.38-2.907-7.503-4.716-10.957-13.886-19.817-17.986-31.095-1.778-4.893-4.144-9.716-5.524-14.72-1.325-4.803-4.055-6.03-6.506-10.348-1.851-3.271-1.478-7.114-2.498-10.64-1.254-4.335-5.166-9.47-5.658-13.764-.524-4.575 7.215-6.851 11.378-9.368 2.935-1.78 5.58-4.029 8.16-6.372 10.733-9.762 23.665-16.899 34.093-27.17z" fill="#63B2FF"/>
    </g>
  </g>
</svg>
