<svg xmlns="http://www.w3.org/2000/svg" width="200" height="200"><style>@keyframes top-right-wiggle_o{0%,11.1111%{opacity:0}27.7778%,61.1111%{opacity:.5}44.4444%,94.4444%,to{opacity:1}77.7778%{opacity:.25}}@keyframes top-right-wiggle_s{0%,11.1111%,27.7778%{stroke:#cf7eff}44.4444%{stroke:#7ebfff}61.1111%{stroke:#ffee7e}77.7778%{stroke:#7e9dff}94.4444%,to{stroke:#ffb97e}}@keyframes top-right-wiggle_f{0%,11.1111%{fill:#7effb7}27.7778%{fill:#cf7eff}44.4444%{fill:#7ebfff}61.1111%{fill:#ffee7e}77.7778%{fill:#7e9dff}94.4444%,to{fill:#ffb97e}}@keyframes top-left-wiggle_o{0%,11.1111%{opacity:0}27.7778%,61.1111%{opacity:1}44.4444%,77.7778%,94.4444%,to{opacity:.5}}@keyframes top-left-wiggle_s{0%,11.1111%,44.4444%{stroke:#cf7eff}27.7778%{stroke:#ffee7e}61.1111%{stroke:#7e9dff}77.7778%{stroke:#7effb7}94.4444%,to{stroke:#c27eff}}@keyframes top-left-wiggle_f{0%,11.1111%{fill:#ffb97e}27.7778%{fill:#ffee7e}44.4444%{fill:#cf7eff}61.1111%{fill:#7ebfff}77.7778%{fill:#7effb7}94.4444%,to{fill:#c27eff}}@keyframes bottom-left-wiggle_o{0%,11.1111%{opacity:0}27.7778%,61.1111%{opacity:.5}44.4444%,94.4444%,to{opacity:1}77.7778%{opacity:.25}}@keyframes bottom-left-wiggle_s{0%,11.1111%{stroke:#cf7eff}27.7778%{stroke:#7effb7}44.4444%{stroke:#ffb97e}61.1111%{stroke:#7e9dff}77.7778%{stroke:#ffee7e}94.4444%,to{stroke:#7ebfff}}@keyframes bottom-left-wiggle_f{0%,11.1111%{fill:#cf7eff}27.7778%{fill:#7effb7}44.4444%{fill:#ffb97e}61.1111%{fill:#7e9dff}77.7778%{fill:#ffee7e}94.4444%,to{fill:#7ebfff}}@keyframes top-star_t{0%,11.1111%{transform:translate(38.879283px,38.879283px)}to{transform:translate(0,-.000001px)}}@keyframes top-star_o{0%,77.7778%{opacity:0}88.8889%{opacity:.25}to{opacity:1}}@keyframes bottom-star_t{0%,11.1111%{transform:translate(-39.562723px,-39.562723px)}to{transform:translate(0,-.000002px)}}@keyframes bottom-star_o{0%,66.6667%{opacity:0}77.7778%{opacity:.25}88.8889%,to{opacity:1}}@keyframes red-star_t{0%,11.1111%{transform:translate(38.992331px,-38.992331px)}to{transform:translate(0,.000002px)}}@keyframes red-star_o{0%,55.5556%{opacity:0}66.6667%{opacity:.25}77.7778%,to{opacity:1}}@keyframes purple-star_t{0%,11.1111%{transform:translate(-39.278718px,39.592427px)}to{transform:translate(-.000001px,0)}}@keyframes purple-star_o{0%,44.4444%{opacity:0}55.5556%{opacity:.25}66.6667%,to{opacity:1}}@keyframes a0_t{0%,to{transform:translate(50.150542px,45.64px)}5.5555%{transform:translate(50.150543px,49.140001px)}88.8888%{transform:translate(50.150542px,49.635349px)}}@keyframes wand_t{0%{transform:rotate(15deg) translate(-50.150542px,-49.635349px);animation-timing-function:cubic-bezier(.42,0,1,1)}5.5555%{transform:rotate(0deg) translate(-50.150542px,-49.635349px)}88.8888%{transform:rotate(0deg) translate(-50.150542px,-49.635349px);animation-timing-function:cubic-bezier(.42,0,1,1)}to{transform:rotate(15deg) translate(-50.150542px,-49.635349px)}}</style><g id="Landing" fill="none" fill-rule="evenodd"><g id="landing-page-mvp" transform="translate(-1382 -1875)"><g id="Group-7" transform="translate(338 1751)"><g id="Group-5-Copy-2" transform="translate(970 124)"><g id="Group-13" transform="translate(74)"><g id="Group-23" transform="translate(16 16)"><g id="Group" fill="#7EBFFF" stroke="#cf7eff" stroke-width="3"><path id="top-right-wiggle" d="M118.089 30.09c2.303-2.245 4.89-3.995 7.377-6.011 2.839-2.3 5.347-4.972 7.521-7.882 2.142-2.866 4.608-5.497 7.392-7.776 2.52-2.064 5.163-3.834 7.507-6.118.412-.4-1.504-1.088-1.952-.651-2.304 2.244-4.891 3.995-7.378 6.01-2.839 2.301-5.347 4.974-7.522 7.883-2.142 2.867-4.607 5.497-7.391 7.777-2.52 2.063-5.163 3.832-7.507 6.115-.411.402 1.504 1.09 1.953.653" opacity="0" filter="hue-rotate(0deg)" fill="#7effb7" style="animation:top-right-wiggle_o 1.8s linear infinite both,top-right-wiggle_s 1.8s linear infinite both,top-right-wiggle_f 1.8s linear infinite both"/><path id="top-left-wiggle" d="M31.764 29.71c-2.328-2.323-4.117-4.958-6.232-7.444a45.396 45.396 0 0 0-7.909-7.294c-2.964-2.152-5.697-4.633-8.026-7.454C7.56 5.05 5.762 2.51 3.48.234 3.085-.16 1.046-.051 1.618.52c2.329 2.323 4.118 4.958 6.234 7.445a45.376 45.376 0 0 0 7.909 7.294c2.963 2.152 5.697 4.632 8.025 7.453 2.038 2.468 3.835 5.008 6.117 7.284.394.394 2.433.285 1.861-.286" opacity="0" filter="hue-rotate(0deg)" fill="#ffb97e" style="animation:top-left-wiggle_o 1.8s linear infinite both,top-left-wiggle_s 1.8s linear infinite both,top-left-wiggle_f 1.8s linear infinite both"/><path id="bottom-left-wiggle" d="M29.783 113.572c-2.343 2.308-5.003 4.081-7.512 6.179a45.337 45.337 0 0 0-7.36 7.843c-2.171 2.939-4.676 5.648-7.523 7.957-2.49 2.021-5.053 3.804-7.35 6.067-.33.325 1.579.709 2.042.252 2.344-2.309 5.005-4.082 7.514-6.181a45.32 45.32 0 0 0 7.36-7.843c2.172-2.939 4.676-5.647 7.523-7.957 2.49-2.021 5.052-3.803 7.35-6.065.33-.326-1.58-.709-2.044-.252" opacity="0" filter="hue-rotate(0deg)" fill="#cf7eff" transform="skewY(5)" style="animation:bottom-left-wiggle_o 1.8s linear infinite both,bottom-left-wiggle_s 1.8s linear infinite both,bottom-left-wiggle_f 1.8s linear infinite both"/></g><g id="Group-2" transform="rotate(45 23.242 101.067)"><path id="top-star" d="M8.448 1.062a1.04 1.04 0 0 1 1.472 1.47c-2.245 2.244-2.245 4.423 0 6.667a1.04 1.04 0 1 1-1.472 1.47c-2.245-2.243-4.427-2.242-6.672.001A1.04 1.04 0 1 1 .304 9.2C2.55 6.956 2.552 4.776.306 2.532a1.04 1.04 0 1 1 1.472-1.47c2.245 2.243 4.426 2.243 6.671 0z" fill="#095FEA" opacity="0" transform="translate(38.88 38.88)" style="animation:top-star_t 1.8s linear infinite both,top-star_o 1.8s linear infinite both"/><path id="bottom-star" d="M87.191 78.992a1.04 1.04 0 0 1 1.472 1.471c-2.245 2.244-2.245 4.423 0 6.667a1.04 1.04 0 1 1-1.472 1.47c-2.245-2.243-4.427-2.242-6.672.001a1.04 1.04 0 1 1-1.472-1.47c2.245-2.244 2.246-4.424.001-6.668a1.04 1.04 0 1 1 1.472-1.47c2.245 2.243 4.426 2.243 6.671 0z" fill="#095FEA" opacity="0" transform="translate(-39.563 -39.563)" style="animation:bottom-star_t 1.8s linear infinite both,bottom-star_o 1.8s linear infinite both"/><path id="red-star" d="M.512 80.727a1.04 1.04 0 1 1 1.472-1.47c2.245 2.243 4.426 2.243 6.671 0a1.04 1.04 0 0 1 1.472 1.47c-2.245 2.244-2.244 4.424.001 6.668a1.04 1.04 0 0 1-1.472 1.47c-2.245-2.243-4.427-2.244-6.672 0a1.04 1.04 0 0 1-1.472-1.47c2.246-2.245 2.246-4.424 0-6.668z" fill="#FF0056" opacity="0" transform="translate(38.992 -38.992)" style="animation:red-star_t 1.8s linear infinite both,red-star_o 1.8s linear infinite both"/><path id="purple-star" d="M80.544 10.358a1.04 1.04 0 0 1-1.471-1.47c2.245-2.244 2.245-4.423 0-6.667a1.04 1.04 0 1 1 1.472-1.47C82.79 2.993 84.97 2.992 87.216.75a1.04 1.04 0 1 1 1.472 1.47c-2.246 2.244-2.247 4.424-.002 6.668a1.04 1.04 0 1 1-1.471 1.47c-2.245-2.243-4.426-2.243-6.672 0z" fill="#BD10E0" opacity="0" transform="translate(-39.279 39.592)" style="animation:purple-star_t 1.8s linear infinite both,purple-star_o 1.8s linear infinite both"/></g><g id="Group-22" stroke-width="2.88" transform="translate(70.13 68.16)"><g id="wand" style="animation:a0_t 1.8s linear infinite both"><g transform="rotate(15 65.324 47.638)" style="animation:wand_t 1.8s linear infinite both"><path id="Fill-1" d="M100.02 92.197L22.45 14.68a.963.963 0 0 0-1.361 0l-5.437 5.433a.962.962 0 0 0 0 1.36l77.57 77.515a.964.964 0 0 0 1.36 0l5.438-5.434a.964.964 0 0 0 0-1.359" stroke="#0A0261" fill="#0A0261"/><path id="Fill-3" d="M15.235 8.432L7.079.282a.963.963 0 0 0-1.36 0L.28 5.713a.962.962 0 0 0 0 1.36l8.157 8.15a.958.958 0 0 0 1.36 0l5.437-5.433a.958.958 0 0 0 0-1.359" stroke="#D9D7D7" fill="#D9D7D7"/></g></g></g></g></g></g></g></g></g></svg>