<?xml version="1.0" encoding="UTF-8"?>
<svg width="200px" height="200px" viewBox="0 0 200 200" version="1.1" xmlns="http://www.w3.org/2000/svg" xmlns:xlink="http://www.w3.org/1999/xlink">
    <!-- Generator: Sketch 50.2 (55047) - http://www.bohemiancoding.com/sketch -->
    <title>icon-wand</title>
    <desc>Created with Sketch.</desc>
    <defs></defs>
    <g id="Landing" stroke="none" stroke-width="1" fill="none" fill-rule="evenodd">
        <g id="landing-page-mvp" transform="translate(-1355.000000, -1867.000000)">
            <g id="Group-7" transform="translate(338.000000, 1751.000000)">
                <g id="Group-5-Copy-2" transform="translate(970.000000, 116.000000)">
                    <g id="wand" transform="translate(47.000000, 0.000000)">
                        <path d="M192.927907,185.015116 L112.182558,104.269767 C111.790698,103.87907 111.15814,103.87907 110.766279,104.269767 L105.106977,109.92907 C104.716279,110.319767 104.716279,110.953488 105.106977,111.345349 L185.852326,192.090698 C186.039535,192.277907 186.295349,192.383721 186.559302,192.383721 C186.825581,192.383721 187.080233,192.277907 187.267442,192.090698 L192.927907,186.430233 C193.115116,186.243023 193.22093,185.987209 193.22093,185.722093 C193.22093,185.456977 193.115116,185.202326 192.927907,185.015116" id="Fill-1" stroke="#0A0261" stroke-width="3" fill="#0A0261"></path>
                        <path d="M104.718605,97.8069767 L96.2290698,89.3162791 C95.8372093,88.9255814 95.2046512,88.9255814 94.8127907,89.3162791 L89.1534884,94.9755814 C88.7627907,95.3662791 88.7627907,96 89.1534884,96.3918605 L97.644186,104.881395 C97.8395349,105.076744 98.0953488,105.174419 98.3511628,105.174419 C98.6081395,105.174419 98.8639535,105.076744 99.0593023,104.881395 L104.718605,99.222093 C105.110465,98.8313953 105.110465,98.1976744 104.718605,97.8069767" id="Fill-3" stroke="#D9D7D7" stroke-width="3" fill="#D9D7D7"></path>
                        <path d="M61.4027889,53.7300906 C61.7941642,53.3387152 62.4280937,53.3395374 62.8178246,53.7292684 C63.2092,54.1206438 63.2100222,54.7545732 62.8186469,55.1459486 C60.6586823,57.3059131 60.6586823,59.4042114 62.8186469,61.564176 C63.2100222,61.9555513 63.2083778,62.5886586 62.8170024,62.980034 C62.4272715,63.3697649 61.7941642,63.3714093 61.4027889,62.980034 C59.2428243,60.8200694 57.1437038,60.8208916 54.9837393,62.9808562 C54.5931861,63.3714093 53.9584345,63.3714093 53.5670591,62.980034 C53.1773281,62.590303 53.1773281,61.9555513 53.5678813,61.5649982 C55.7278458,59.4050336 55.7286681,57.3059131 53.5687035,55.1459486 C53.1773281,54.7545732 53.1773281,54.1198215 53.5670591,53.7300906 C53.9584345,53.3387152 54.5931861,53.3387152 54.9845615,53.7300906 C57.1445261,55.8900551 59.2428243,55.8900551 61.4027889,53.7300906 Z" id="Fill-5" fill="#095FEA"></path>
                        <path d="M53.5672999,130.726281 C53.1759245,130.334906 53.1767467,129.700976 53.5664777,129.311245 C53.9578531,128.91987 54.5917825,128.919048 54.9831579,129.310423 C57.1431224,131.470387 59.2414207,131.470387 61.4013853,129.310423 C61.7927606,128.919048 62.4258679,128.920692 62.8172433,129.312067 C63.2069742,129.701798 63.2086186,130.334906 62.8172433,130.726281 C60.6572787,132.886245 60.6581009,134.985366 62.8180655,137.14533 C63.2086186,137.535884 63.2086186,138.170635 62.8172433,138.562011 C62.4275123,138.951742 61.7927606,138.951742 61.4022075,138.561188 C59.2422429,136.401224 57.1431224,136.400402 54.9831579,138.560366 C54.5917825,138.951742 53.9570308,138.951742 53.5672999,138.562011 C53.1759245,138.170635 53.1759245,137.535884 53.5672999,137.144508 C55.7272644,134.984544 55.7272644,132.886245 53.5672999,130.726281 Z" id="Fill-7" fill="#FF0056"></path>
                        <path d="M130.562909,62.9797931 C130.171533,63.3711685 129.537604,63.3703463 129.147873,62.9806153 C128.756498,62.58924 128.755675,61.9553105 129.147051,61.5639351 C131.307015,59.4039706 131.307015,57.3056723 129.147051,55.1457078 C128.755675,54.7543324 128.75732,54.1212252 129.148695,53.7298498 C129.538426,53.3401188 130.171533,53.3384744 130.562909,53.7298498 C132.722873,55.8898143 134.821994,55.8889921 136.981958,53.7290276 C137.372512,53.3384744 138.007263,53.3384744 138.398639,53.7298498 C138.78837,54.1195807 138.78837,54.7543324 138.397816,55.1448855 C136.237852,57.3048501 136.23703,59.4039706 138.396994,61.5639351 C138.78837,61.9553105 138.78837,62.5900622 138.398639,62.9797931 C138.007263,63.3711685 137.372512,63.3711685 136.981136,62.9797931 C134.821172,60.8198286 132.722873,60.8198286 130.562909,62.9797931 Z" id="Fill-9" fill="#BD10E0"></path>
                        <g id="Group-13" transform="translate(7.000000, 7.000000)" fill="#2CEDD1">
                            <path d="M84.975605,60.1722796 C83.606605,55.3762796 82.911605,50.5102796 82.463605,45.6552796 C82.010605,40.7962796 81.972605,35.9462796 82.011605,31.1062796 C82.065605,26.2642796 82.353605,21.4432796 82.737605,16.6302796 C83.140605,11.8072796 83.640605,7.04527962 84.357605,2.19827962 C84.566605,0.791279618 85.875605,-0.180720382 87.283605,0.0282796184 C88.690605,0.236279618 89.662605,1.54627962 89.454605,2.95327962 L89.448605,2.99127962 L89.439605,3.04627962 C88.663605,7.64227962 88.066605,12.3822796 87.579605,17.0752796 C87.109605,21.7822796 86.732605,26.5032796 86.585605,31.2202796 C86.453605,35.9332796 86.396605,40.6572796 86.739605,45.3282796 C87.073605,49.9932796 87.652605,54.6392796 88.821605,59.0722796 L88.831605,59.1122796 C89.113605,60.1812796 88.476605,61.2752796 87.408605,61.5572796 C86.353605,61.8342796 85.273605,61.2152796 84.975605,60.1722796" id="Fill-1"></path>
                            <path d="M58.8513438,90.1120863 C54.1413438,89.6260863 49.3853438,89.2200863 44.6463438,88.8810863 C39.9023438,88.5420863 35.1553438,88.2710863 30.4123438,88.1060863 C25.6713438,87.9460863 20.9283438,87.8800863 16.2293438,88.0490863 C13.8813438,88.1400863 11.5413438,88.2860863 9.25434376,88.5620863 C6.99234376,88.8410863 4.68234376,89.2570863 2.88734376,90.0150863 L2.77834376,90.0610863 C1.76134376,90.4920863 0.588343764,90.0160863 0.158343764,88.9990863 C-0.271656236,87.9820863 0.204343764,86.8090863 1.22034376,86.3790863 L1.23134376,86.3750863 C3.85334376,85.2840863 6.31334376,84.9270863 8.77534376,84.6090863 C11.2313438,84.3190863 13.6623438,84.1750863 16.0863438,84.0880863 C20.9343438,83.9250863 25.7483438,84.0070863 30.5523438,84.1810863 C35.3563438,84.3600863 40.1463438,84.6450863 44.9283438,84.9990863 C49.7153438,85.3550863 54.4773438,85.7710863 59.2673438,86.2780863 C60.3273438,86.3900863 61.0943438,87.3400863 60.9823438,88.3980863 C60.8703438,89.4580863 59.9203438,90.2250863 58.8623438,90.1130863 L58.8513438,90.1120863 Z" id="Fill-4"></path>
                            <path d="M86.749986,114.621056 C86.933986,114.486056 87.132986,114.362056 87.335986,114.257056 C87.526986,114.148056 87.957986,114.034056 88.274986,114.007056 C88.616986,113.974056 89.063986,114.060056 89.418986,114.197056 C89.703986,114.331056 89.959986,114.508056 90.189986,114.707056 C90.338986,114.858056 90.464986,115.011056 90.587986,115.175056 C90.721986,115.350056 90.749986,115.435056 90.831986,115.573056 C90.986986,115.847056 91.048986,116.035056 91.134986,116.252056 C91.423986,117.062056 91.534986,117.721056 91.650986,118.392056 C91.854986,119.708056 91.954986,120.961056 92.027986,122.210056 C92.166986,124.702056 92.190986,127.155056 92.180986,129.605056 C92.151986,134.500056 91.976986,139.367056 91.750986,144.228056 C91.286986,153.951056 90.623986,163.635056 89.832986,173.333056 C89.749986,174.345056 88.862986,175.099056 87.850986,175.017056 C86.841986,174.934056 86.089986,174.052056 86.165986,173.044056 L86.166986,173.032056 C86.899986,163.392056 87.507986,153.716056 87.915986,144.059056 C88.112986,139.231056 88.259986,134.401056 88.261986,129.597056 C88.257986,127.197056 88.219986,124.799056 88.075986,122.449056 C88.001986,121.278056 87.896986,120.112056 87.723986,119.032056 C87.634986,118.510056 87.519986,117.972056 87.394986,117.641056 C87.366986,117.577056 87.333986,117.476056 87.328986,117.489056 C87.331986,117.499056 87.310986,117.436056 87.340986,117.499056 C87.367986,117.546056 87.399986,117.578056 87.450986,117.615056 C87.555986,117.731056 87.688986,117.814056 87.845986,117.871056 C88.051986,117.988056 88.350986,118.008056 88.544986,117.995056 C88.718986,118.012056 88.986986,117.896056 89.050986,117.869056 C89.124986,117.844056 89.194986,117.800056 89.249986,117.744056 C88.386986,118.434056 87.127986,118.295056 86.437986,117.432056 C85.747986,116.569056 85.888986,115.310056 86.749986,114.621056" id="Fill-6"></path>
                            <path d="M116.476074,86.1586721 C117.142074,85.3736721 117.736074,85.3736721 118.325074,85.4396721 L120.097074,85.5596721 L123.642074,85.7986721 L130.734074,86.1446721 C135.462074,86.3286721 140.192074,86.4156721 144.913074,86.4506721 C149.632074,86.4826721 154.353074,86.4296721 159.050074,86.1916721 C161.400074,86.0916721 163.747074,85.9706721 166.079074,85.7786721 C168.390074,85.5906721 170.788074,85.3576721 172.947074,85.0396721 L173.044074,85.0246721 C174.296074,84.8406721 175.460074,85.7056721 175.645074,86.9576721 C175.825074,88.1786721 175.001074,89.3176721 173.798074,89.5436721 C171.263074,90.0166721 168.922074,90.2866721 166.492074,90.5066721 C164.082074,90.7366721 161.677074,90.8926721 159.272074,91.0276721 C154.458074,91.2346721 149.655074,91.2526721 144.857074,91.1826721 L141.259074,91.1096721 L137.667074,90.9426721 C135.272074,90.8516721 132.884074,90.6576721 130.494074,90.5186721 L123.335074,89.9556721 L119.764074,89.6096721 L117.978074,89.4356721 C117.381074,89.4056721 116.788074,89.3066721 116.269074,88.4246721 C115.838074,87.6896721 115.941074,86.7896721 116.462074,86.1746721 L116.476074,86.1586721 Z" id="Fill-9"></path>
                        </g>
                    </g>
                </g>
            </g>
        </g>
    </g>
</svg>