<?xml version="1.0" encoding="UTF-8" standalone="no"?>
<!-- Created with Keyshape -->
<svg xmlns="http://www.w3.org/2000/svg" xmlns:xlink="http://www.w3.org/1999/xlink" width="200px" height="200px" viewBox="0 0 200 200">
    <style>
@keyframes top-right-wiggle_o { 0% { opacity: 0; } 11.1111% { opacity: 0; } 27.7778% { opacity: 0.5; } 44.4444% { opacity: 1; } 61.1111% { opacity: 0.5; } 77.7778% { opacity: 0.25; } 94.4444% { opacity: 1; } 100% { opacity: 1; } }
@keyframes top-right-wiggle_s { 0% { stroke: #cf7eff; } 11.1111% { stroke: #cf7eff; } 27.7778% { stroke: #cf7eff; } 44.4444% { stroke: #7ebfff; } 61.1111% { stroke: #ffee7e; } 77.7778% { stroke: #7e9dff; } 94.4444% { stroke: #ffb97e; } 100% { stroke: #ffb97e; } }
@keyframes top-right-wiggle_f { 0% { fill: #7effb7; } 11.1111% { fill: #7effb7; } 27.7778% { fill: #cf7eff; } 44.4444% { fill: #7ebfff; } 61.1111% { fill: #ffee7e; } 77.7778% { fill: #7e9dff; } 94.4444% { fill: #ffb97e; } 100% { fill: #ffb97e; } }
@keyframes top-left-wiggle_o { 0% { opacity: 0; } 11.1111% { opacity: 0; } 27.7778% { opacity: 1; } 44.4444% { opacity: 0.5; } 61.1111% { opacity: 1; } 77.7778% { opacity: 0.5; } 94.4444% { opacity: 0.5; } 100% { opacity: 0.5; } }
@keyframes top-left-wiggle_s { 0% { stroke: #cf7eff; } 11.1111% { stroke: #cf7eff; } 27.7778% { stroke: #ffee7e; } 44.4444% { stroke: #cf7eff; } 61.1111% { stroke: #7e9dff; } 77.7778% { stroke: #7effb7; } 94.4444% { stroke: #c27eff; } 100% { stroke: #c27eff; } }
@keyframes top-left-wiggle_f { 0% { fill: #ffb97e; } 11.1111% { fill: #ffb97e; } 27.7778% { fill: #ffee7e; } 44.4444% { fill: #cf7eff; } 61.1111% { fill: #7ebfff; } 77.7778% { fill: #7effb7; } 94.4444% { fill: #c27eff; } 100% { fill: #c27eff; } }
@keyframes bottom-left-wiggle_o { 0% { opacity: 0; } 11.1111% { opacity: 0; } 27.7778% { opacity: 0.5; } 44.4444% { opacity: 1; } 61.1111% { opacity: 0.5; } 77.7778% { opacity: 0.25; } 94.4444% { opacity: 1; } 100% { opacity: 1; } }
@keyframes bottom-left-wiggle_s { 0% { stroke: #cf7eff; } 11.1111% { stroke: #cf7eff; } 27.7778% { stroke: #7effb7; } 44.4444% { stroke: #ffb97e; } 61.1111% { stroke: #7e9dff; } 77.7778% { stroke: #ffee7e; } 94.4444% { stroke: #7ebfff; } 100% { stroke: #7ebfff; } }
@keyframes bottom-left-wiggle_f { 0% { fill: #cf7eff; } 11.1111% { fill: #cf7eff; } 27.7778% { fill: #7effb7; } 44.4444% { fill: #ffb97e; } 61.1111% { fill: #7e9dff; } 77.7778% { fill: #ffee7e; } 94.4444% { fill: #7ebfff; } 100% { fill: #7ebfff; } }
@keyframes top-star_t { 0% { transform: translate(38.8793px,38.8793px); } 11.1111% { transform: translate(38.8793px,38.8793px); } 100% { transform: translate(0px,-0.000001px); } }
@keyframes top-star_o { 0% { opacity: 0; } 77.7778% { opacity: 0; } 88.8889% { opacity: 0.25; } 100% { opacity: 1; } }
@keyframes bottom-star_t { 0% { transform: translate(-39.5627px,-39.5627px); } 11.1111% { transform: translate(-39.5627px,-39.5627px); } 100% { transform: translate(0px,-0.000002px); } }
@keyframes bottom-star_o { 0% { opacity: 0; } 66.6667% { opacity: 0; } 77.7778% { opacity: 0.25; } 88.8889% { opacity: 1; } 100% { opacity: 1; } }
@keyframes red-star_t { 0% { transform: translate(38.9923px,-38.9923px); } 11.1111% { transform: translate(38.9923px,-38.9923px); } 100% { transform: translate(0px,0.000002px); } }
@keyframes red-star_o { 0% { opacity: 0; } 55.5556% { opacity: 0; } 66.6667% { opacity: 0.25; } 77.7778% { opacity: 1; } 100% { opacity: 1; } }
@keyframes purple-star_t { 0% { transform: translate(-39.2787px,39.5924px); } 11.1111% { transform: translate(-39.2787px,39.5924px); } 100% { transform: translate(-0.000001px,0px); } }
@keyframes purple-star_o { 0% { opacity: 0; } 44.4444% { opacity: 0; } 55.5556% { opacity: 0.25; } 66.6667% { opacity: 1; } 100% { opacity: 1; } }
@keyframes a0_t { 0% { transform: translate(50.1505px,45.64px); } 5.5555% { transform: translate(50.1505px,49.14px); } 88.8888% { transform: translate(50.1505px,49.6353px); } 100% { transform: translate(50.1505px,45.64px); } }
@keyframes wand_t { 0% { transform: rotate(15deg) translate(-50.1505px,-49.6353px); animation-timing-function: cubic-bezier(0.42,0,1,1); } 5.5555% { transform: rotate(0deg) translate(-50.1505px,-49.6353px); } 88.8888% { transform: rotate(0deg) translate(-50.1505px,-49.6353px); animation-timing-function: cubic-bezier(0.42,0,1,1); } 100% { transform: rotate(15deg) translate(-50.1505px,-49.6353px); } }
    </style>
    <title>icon-wand</title>
    <desc>Created with Sketch.</desc>
    <g id="Landing" stroke="none" stroke-width="1" fill="none" fill-rule="evenodd" transform="translate(0,-15)">
        <g id="landing-page-mvp" transform="translate(-1382,-1875)">
            <g id="Group-7" transform="translate(338,1751)">
                <g id="Group-5-Copy-2" transform="translate(970,124)">
                    <g id="Group-13" transform="translate(74,0)">
                        <g id="Group-23" transform="translate(16,16)">
                            <g id="Group" fill="#7EBFFF" stroke="#7EBFFF" stroke-width="3">
                                <path id="top-right-wiggle" d="M118.089,30.0897C120.392,27.8454,122.979,26.0947,125.466,24.079C128.305,21.7788,130.813,19.1066,132.987,16.197C135.129,13.3307,137.595,10.6998,140.379,8.42051C142.899,6.35727,145.542,4.58678,147.886,2.30334C148.298,1.90259,146.382,1.21484,145.934,1.6516C143.63,3.89642,141.043,5.64657,138.556,7.66284C135.717,9.9635,133.209,12.6357,131.034,15.5453C128.892,18.4116,126.427,21.042,123.643,23.3218C121.123,25.3845,118.48,27.1545,116.136,29.4374C115.725,29.8387,117.64,30.5264,118.089,30.0897" opacity="0" filter="hue-rotate(0deg)" fill="#7effb7" stroke="#cf7eff" style="animation: top-right-wiggle_o 1.8s linear infinite both, top-right-wiggle_s 1.8s linear infinite both, top-right-wiggle_f 1.8s linear infinite both;"/>
                                <path id="top-left-wiggle" d="M31.7643,29.7097C29.4357,27.3869,27.6472,24.752,25.5316,22.2663C23.1998,19.5267,20.5375,17.0889,17.623,14.9722C14.6591,12.8203,11.9263,10.3388,9.59708,7.51776C7.55899,5.04995,5.76152,2.5096,3.48016,0.233645C3.08497,-0.160048,1.04581,-0.0507183,1.61788,0.520111C3.94705,2.84285,5.73603,5.47781,7.8522,7.96455C10.1835,10.7041,12.8462,13.142,15.7608,15.2587C18.7241,17.4106,21.4575,19.891,23.7862,22.7125C25.8237,25.1804,27.6212,27.7202,29.9026,29.9961C30.2972,30.3898,32.3364,30.2805,31.7643,29.7097" opacity="0" filter="hue-rotate(0deg)" fill="#ffb97e" stroke="#cf7eff" style="animation: top-left-wiggle_o 1.8s linear infinite both, top-left-wiggle_s 1.8s linear infinite both, top-left-wiggle_f 1.8s linear infinite both;"/>
                                <path id="bottom-left-wiggle" d="M29.7834,113.572C27.4399,115.88,24.7798,117.653,22.2708,119.751C19.5073,122.063,17.0471,124.704,14.9116,127.594C12.7395,130.533,10.2353,133.242,7.38791,135.551C4.89752,137.572,2.33499,139.355,0.038206,141.618C-0.292255,141.943,1.61678,142.327,2.08038,141.87C4.42437,139.561,7.08503,137.788,9.59399,135.689C12.3581,133.377,14.8182,130.736,16.9538,127.846C19.1259,124.907,21.6296,122.199,24.4769,119.889C26.9673,117.868,29.5293,116.086,31.8266,113.824C32.1571,113.498,30.2475,113.115,29.7834,113.572" opacity="0" filter="hue-rotate(0deg)" fill="#cf7eff" stroke="#cf7eff" transform="translate(0,0) skewY(5)" style="animation: bottom-left-wiggle_o 1.8s linear infinite both, bottom-left-wiggle_s 1.8s linear infinite both, bottom-left-wiggle_f 1.8s linear infinite both;"/>
                            </g>
                            <g id="Group-2" transform="translate(78.2728,13.1673) rotate(45)">
                                <path id="top-star" d="M8.44846,1.0615C8.85527,0.654979,9.5142,0.655833,9.9193,1.06065C10.3261,1.46717,10.327,2.12564,9.92015,2.53216C7.67501,4.77573,7.67501,6.95525,9.92015,9.19882C10.327,9.60534,10.3253,10.263,9.91844,10.6695C9.51334,11.0743,8.85527,11.076,8.44846,10.6695C6.20331,8.42591,4.02141,8.42676,1.77627,10.6703C1.37031,11.076,0.710528,11.076,0.303719,10.6695C-0.101382,10.2647,-0.101382,9.60534,0.304573,9.19967C2.54972,6.9561,2.55057,4.77573,0.305428,2.53216C-0.101382,2.12564,-0.101382,1.46632,0.303719,1.0615C0.710528,0.654979,1.37031,0.654979,1.77712,1.0615C4.02227,3.30507,6.20331,3.30507,8.44846,1.0615Z" fill="#095FEA" opacity="0" transform="translate(38.8793,38.8793)" style="animation: top-star_t 1.8s linear infinite both, top-star_o 1.8s linear infinite both;"/>
                                <path id="bottom-star" d="M87.1912,78.9924C87.598,78.5858,88.2569,78.5867,88.662,78.9915C89.0688,79.398,89.0697,80.0565,88.6629,80.463C86.4177,82.7066,86.4177,84.8861,88.6629,87.1297C89.0697,87.5362,89.068,88.1938,88.6612,88.6003C88.2561,89.0051,87.598,89.0069,87.1912,88.6003C84.946,86.3568,82.7641,86.3576,80.519,88.6012C80.113,89.0069,79.4532,89.0069,79.0464,88.6003C78.6413,88.1955,78.6413,87.5362,79.0473,87.1305C81.2924,84.887,81.2933,82.7066,79.0481,80.463C78.6413,80.0565,78.6413,79.3972,79.0464,78.9924C79.4532,78.5858,80.113,78.5858,80.5198,78.9924C82.765,81.2359,84.946,81.2359,87.1912,78.9924Z" fill="#095FEA" opacity="0" transform="translate(-39.5627,-39.5627)" style="animation: bottom-star_t 1.8s linear infinite both, bottom-star_o 1.8s linear infinite both;"/>
                                <path id="red-star" d="M0.512389,80.7272C0.105579,80.3206,0.106434,79.6622,0.511534,79.2574C0.918344,78.8508,1.57727,78.85,1.98408,79.2565C4.22923,81.5001,6.41027,81.5001,8.65542,79.2565C9.06223,78.85,9.7203,78.8517,10.1271,79.2582C10.5322,79.663,10.5339,80.3206,10.1271,80.7272C7.88197,82.9707,7.88282,85.1511,10.128,87.3947C10.5339,87.8003,10.5339,88.4597,10.1271,88.8662C9.72201,89.271,9.06223,89.271,8.65627,88.8653C6.41113,86.6218,4.22923,86.6209,1.98408,88.8645C1.57727,89.271,0.917489,89.271,0.512389,88.8662C0.105579,88.4597,0.105579,87.8003,0.512389,87.3938C2.75753,85.1502,2.75753,82.9707,0.512389,80.7272Z" fill="#FF0056" opacity="0" transform="translate(38.9923,-38.9923)" style="animation: red-star_t 1.8s linear infinite both, red-star_o 1.8s linear infinite both;"/>
                                <path id="purple-star" d="M80.5444,10.3584C80.1376,10.765,79.4787,10.7641,79.0736,10.3593C78.6667,9.95277,78.6659,9.2943,79.0727,8.88778C81.3178,6.64421,81.3178,4.46469,79.0727,2.22112C78.6659,1.8146,78.6676,1.15699,79.0744,0.750462C79.4795,0.345646,80.1376,0.343938,80.5444,0.750462C82.7895,2.99403,84.9714,2.99318,87.2166,0.749608C87.6225,0.343938,88.2823,0.343938,88.6891,0.750462C89.0942,1.15528,89.0942,1.8146,88.6883,2.22027C86.4431,4.46384,86.4423,6.64421,88.6874,8.88778C89.0942,9.2943,89.0942,9.95362,88.6891,10.3584C88.2823,10.765,87.6225,10.765,87.2157,10.3584C84.9706,8.11487,82.7895,8.11487,80.5444,10.3584Z" fill="#BD10E0" opacity="0" transform="translate(-39.2787,39.5924)" style="animation: purple-star_t 1.8s linear infinite both, purple-star_o 1.8s linear infinite both;"/>
                            </g>
                            <g id="Group-22" stroke-width="2.88" transform="translate(70.1292,68.16)">
                                <g id="wand" style="animation: a0_t 1.8s linear infinite both;">
                                    <g transform="translate(50.1505,45.64) rotate(15) translate(-50.1505,-49.6353)" style="animation: wand_t 1.8s linear infinite both;">
                                        <path id="Fill-1" d="M100.02,92.1968L22.4496,14.6813C22.0732,14.3062,21.4655,14.3062,21.089,14.6813L15.6523,20.1142C15.277,20.4893,15.277,21.0977,15.6523,21.4739L93.2223,98.9894C93.4021,99.1691,93.6479,99.2707,93.9014,99.2707C94.1572,99.2707,94.4019,99.1691,94.5817,98.9894L100.02,93.5553C100.199,93.3756,100.301,93.13,100.301,92.8755C100.301,92.621,100.199,92.3766,100.02,92.1968" stroke="#0A0261" fill="#0A0261"/>
                                        <path id="Fill-3" d="M15.2345,8.43237L7.07883,0.281302C6.70238,-0.0937674,6.0947,-0.0937674,5.71825,0.281302L0.2815,5.71423C-0.0938333,6.0893,-0.0938333,6.69767,0.2815,7.07386L8.43829,15.2238C8.62596,15.4113,8.87171,15.5051,9.11747,15.5051C9.36434,15.5051,9.61009,15.4113,9.79776,15.2238L15.2345,9.79088C15.611,9.41581,15.611,8.80744,15.2345,8.43237" stroke="#D9D7D7" fill="#D9D7D7"/>
                                    </g>
                                </g>
                            </g>
                        </g>
                    </g>
                </g>
            </g>
        </g>
    </g>
</svg>
