<?xml version="1.0" encoding="UTF-8"?>
<svg width="200px" height="200px" viewBox="0 0 200 200" version="1.1" xmlns="http://www.w3.org/2000/svg" xmlns:xlink="http://www.w3.org/1999/xlink">
    <!-- Generator: Sketch 50.2 (55047) - http://www.bohemiancoding.com/sketch -->
    <title>icon-dog</title>
    <desc>Created with Sketch.</desc>
    <defs></defs>
    <g id="Landing" stroke="none" stroke-width="1" fill="none" fill-rule="evenodd">
        <g id="landing-page-mvp" transform="translate(-411.000000, -1893.000000)">
            <g id="Group-7" transform="translate(338.000000, 1751.000000)">
                <g id="Group-5" transform="translate(0.000000, 142.000000)">
                    <g id="dog-with-newspaper" transform="translate(73.000000, 0.000000)">
                        <path d="M156.336117,109.490715 C156.044461,100.129349 152.048094,83.5147236 147.587077,75.9974813 C147.593322,75.9718338 147.593322,75.9480628 147.599567,75.9167853 C148.006136,72.3242479 149.074707,62.7652082 146.853254,56.9357016 C145.127053,52.4067148 143.01302,48.093543 140.964562,43.9204945 L140.488045,42.9471377 C138.809309,39.5503976 137.459075,36.0510672 136.008292,32.2977633 C135.328179,30.523076 134.056011,27.2257985 130.717275,26.2524417 C125.970223,24.8587148 122.530936,29.5985122 121.062042,31.6127853 C116.576043,37.7644505 114.194711,44.166336 112.450399,48.8379483 C112.140007,49.6711818 111.303762,50.1691201 110.467516,50.0340012 C108.049336,49.6330232 103.217973,49.4484857 101.260072,49.4234637 L101.260072,49.4297192 C101.247581,49.4297192 101.23509,49.4234637 101.223224,49.4234637 C101.210734,49.4234637 101.200117,49.4297192 101.188251,49.4297192 L101.188251,49.4234637 C99.2297248,49.4484857 94.3971123,49.6330232 91.9789324,50.0340012 C91.1376906,50.1691201 90.3020696,49.6711818 89.9960499,48.8379483 C88.2529869,44.166336 85.8697807,37.7644505 81.3925257,31.6127853 C79.9230068,29.5985122 76.4837205,24.8718514 71.7354195,26.2524417 C68.3979316,27.2257985 67.1257641,30.523076 66.4256661,32.3340452 C64.9936189,36.0448117 63.6433852,39.5453932 61.9602771,42.9533932 L61.4881325,43.9136135 C59.4396743,48.0866619 57.325016,52.4004593 55.5994398,56.9300716 C53.3779869,62.7652082 54.4478066,72.3179923 54.8531266,75.9105298 C54.8593719,75.9355518 54.8593719,75.9549439 54.8593719,75.9780893 C50.4227113,83.4171377 46.4101065,100.093067 46.1165775,109.478204 L46.0872246,110.477208 C45.7705879,119.826063 45.4714381,128.656336 61.4999985,148.877261 C75.3539458,166.348265 93.0899711,167.999719 99.2890552,167.999719 C100.213984,167.999719 100.871614,167.963437 101.22947,167.938415 C101.586701,167.963437 102.244331,167.999719 103.171133,167.999719 C109.368344,167.999719 127.111239,166.348265 140.958316,148.877261 C156.987501,128.658213 156.687727,119.826063 156.37109,110.477208 L156.336117,109.490715 Z M101.205113,164.684926 L101.23509,164.684926 L101.223224,164.850697 L101.205113,164.684926 Z" id="Fill-1" fill="#80A7F5"></path>
                        <path d="M103.81585,153.542945 C107.346318,153.620513 111.086628,153.472883 113.964462,152.260566 C116.114094,151.354143 117.726005,149.538795 119.2611,147.779747 C120.487052,146.375386 121.713004,144.97165 122.938332,143.567289 C123.770206,142.614575 124.606451,141.656231 125.270951,140.580284 C127.346889,137.222328 127.574842,133.065544 127.511765,129.117068 C123.527264,130.352531 119.24049,130.593994 115.14295,129.813932 C114.203657,129.63565 98.560431,129.269077 101.142238,124.791386 C98.686586,129.05076 93.2113322,131.048143 88.6516392,131.916408 C85.3035343,132.554469 76.135435,130.179879 76.5032831,133.795562 C77.4125987,142.728425 81.5182584,149.508769 90.6039198,152.336258 C93.3131306,153.178875 96.1884663,153.277712 99.0232077,153.370293 C100.495849,153.417835 102.132118,153.506038 103.81585,153.542945" id="Fill-3" fill="#0A0261"></path>
                        <path d="M91.857726,155.090464 C91.8583506,155.872402 91.8645959,156.679988 92.1774854,157.396244 C92.8675909,158.97701 94.7524222,159.580667 96.4217907,160.007918 C99.9809868,160.920596 104.034186,161.760711 107.106249,159.741433 C109.950982,157.872288 110.915257,154.21657 111.659696,150.891768 C112.151201,148.69546 112.643331,146.499151 113.134836,144.302843 C113.590743,142.267301 114.049148,140.176711 113.748124,138.112394 C113.13671,133.918076 109.618733,130.846623 106.335579,128.171768 C102.066292,124.694332 97.3573365,123.513918 94.0148524,129.294006 C89.6899827,136.771838 91.8433619,146.881988 91.857726,155.090464" id="Fill-5" fill="#FF0056"></path>
                        <path d="M99.2294899,126.46389 C99.169535,127.659942 99.137684,128.850991 99.1283161,130.037035 C99.1201972,131.550868 99.137684,133.059696 99.1807766,134.55789 L99.2813259,137.665 C99.2813259,137.665 99.5523719,140.373009 99.8184216,143.034727 C100.091966,145.680806 100.275578,148.255572 100.315547,148.031625 C100.557241,150.187273 100.795186,151.970092 101.156789,152.360436 C101.335405,152.554357 101.544622,152.395467 101.7732,151.743643 C102.007399,151.091819 102.25846,149.943934 102.46393,148.166744 C102.76308,146.071775 102.932952,143.524533 103.028505,141.516515 C103.109694,139.496612 103.1684,138.02907 103.1684,138.02907 L103.051613,134.45655 C103.012892,132.984004 103.000402,131.521467 103.011643,130.063934 C103.017888,129.305766 103.036624,128.550727 103.062855,127.797564" id="Fill-7" fill="#0A0261"></path>
                        <path d="M24.2697237,117.332914 C21.5380298,123.260632 20.0735072,129.769487 20.0023108,136.297108 C19.9854485,137.825328 20.0541467,139.40109 20.6905427,140.789813 C21.7797229,143.168157 24.3733957,144.562509 26.957076,144.945346 C29.5407563,145.328183 32.1656556,144.869654 34.7480868,144.477434 C51.1594841,141.982112 67.8381803,142.142253 84.4325649,141.727513 C112.524545,141.025646 140.545329,138.662315 168.546129,136.300236 C169.772081,136.19702 171.074226,136.065029 172.045994,135.309364 C172.808545,134.716967 173.263203,133.815549 173.614813,132.915381 C176.57571,125.348095 173.807793,116.872509 171.044248,109.230157 C161.89426,112.280342 152.383919,114.243945 142.77615,115.069046 C140.853847,115.234192 138.559949,114.950817 137.070445,116.329531 C135.736449,117.563742 134.77842,118.767302 133.152769,119.825734 C129.607937,122.134641 125.752714,124.169557 121.500289,124.700024 C119.295699,124.975267 117.059882,124.83702 114.84967,124.60932 C111.976833,124.31406 109.019683,123.832386 106.594634,122.261628 C102.972985,119.915187 103.59689,116.354553 101.778259,113.126086 C102.580155,114.550465 100.324978,117.017637 99.5393192,118.111099 C98.0910343,120.127249 96.0844197,122.971002 93.8760818,124.079478 C88.6493909,126.703663 83.0242499,125.829143 77.6651586,124.032562 C74.3582727,122.924712 70.8783919,121.641082 68.7362543,118.885531 C67.8812728,117.785813 67.1961635,116.379575 65.7466296,116.114342 C64.3832807,115.864747 62.0163123,116.577875 60.5617821,116.67546 C56.5360622,116.945698 52.5059706,117.150253 48.4733809,117.289126 C40.408826,117.56687 32.3355277,117.581258 24.2697237,117.332914" id="Fill-9" fill="#D9D7D7"></path>
                        <path d="M122.596277,92.1160288 L122.595028,92.1166543 C122.587534,92.0991389 122.586909,92.0960112 122.596277,92.1160288 M122.736796,92.4194209 C122.725555,92.3975266 122.713689,92.3737557 122.701823,92.3499847 C122.714938,92.3743812 122.728053,92.3987777 122.740543,92.4237997 C122.739294,92.4225486 122.738045,92.4212975 122.736796,92.4194209 M120.645246,97.5983548 C120.754538,97.7772623 120.91192,97.9555442 121.063056,98.1012975 C121.204824,98.2307865 121.35721,98.34839 121.485863,98.4272094 C121.758158,98.6004869 121.991107,98.6986984 122.204697,98.7750156 C122.6325,98.9238966 122.994727,98.9883283 123.353207,99.0271125 C123.719806,99.0615178 124.042064,99.0771565 124.515457,99.0246103 C125.314231,98.9276499 126.031816,98.5510684 126.515202,98.1769891 C126.766263,97.9880728 126.973607,97.7960288 127.159093,97.6114913 L127.420146,97.3393768 L127.699311,97.0266015 C128.794736,95.8655794 129.191938,94.2529098 128.746648,92.9079759 C128.55804,92.323086 128.177701,91.7932446 127.688694,91.451694 C127.207181,91.0982579 126.563291,90.9012094 125.89317,90.7879847 C125.89317,90.7879847 125.775759,90.7817292 125.570288,90.7698438 C125.46849,90.7679671 125.344209,90.7660905 125.201816,90.7642138 C125.073163,90.7654649 124.867068,90.7654649 124.786503,90.779227 C124.569792,90.8011213 124.318731,90.8330244 124.036443,90.8849451 C123.949633,90.8999583 123.861575,90.9155971 123.772267,90.9312358 C123.668595,90.9500023 123.565547,90.9725222 123.463125,90.9975442 C123.257654,91.0469627 123.055931,91.11202 122.866698,91.1958438 C122.094155,91.5223812 121.549565,92.1466808 121.339098,92.6658878 C121.314117,92.724064 121.292883,92.779738 121.272898,92.8329098 C121.123635,92.964901 120.985614,93.1106543 120.871325,93.2776764 C120.328609,94.027086 120.122514,95.0223372 120.158737,95.9744253 C120.169354,96.2146367 120.205576,96.452346 120.259286,96.6856764 C120.317367,96.9064957 120.4073,97.230531 120.645246,97.5983548" id="Fill-12" fill="#0A0261"></path>
                        <path d="M74.4925466,92.1218464 C74.489424,92.1162164 74.4900485,92.116842 74.4925466,92.1218464 M74.5075353,92.1162164 L74.5062863,92.116842 C74.4987919,92.0993266 74.4981674,92.0955733 74.5075353,92.1162164 M74.6480546,92.4196085 C74.6361885,92.3970887 74.6249469,92.3739433 74.6130809,92.3501724 C74.626196,92.3739433 74.6393111,92.3989653 74.6518017,92.4233618 C74.6505527,92.4221107 74.6486791,92.4214852 74.6480546,92.4196085 M79.5999523,91.4518816 C79.1184397,91.09782 78.4739249,90.9013971 77.8044288,90.7881724 C77.8044288,90.7881724 77.6870172,90.7812913 77.4815468,90.7700314 C77.3797484,90.7681548 77.255467,90.7662781 77.1130742,90.7644015 C76.984421,90.7656526 76.7783261,90.7656526 76.6977618,90.7794147 C76.4810499,90.801309 76.2299889,90.833212 75.9477013,90.8845072 C75.8608917,90.900146 75.7728329,90.9157847 75.6835252,90.9314235 C75.5798532,90.9495645 75.4768058,90.9727098 75.3743829,90.9977319 C75.1689125,91.0471504 74.9671893,91.1122076 74.7779568,91.1960314 C74.0054133,91.5225689 73.4608232,92.1468684 73.2503566,92.6660755 C73.2253754,92.7242517 73.2041414,92.7793001 73.1841564,92.8330975 C73.0348938,92.9650887 72.8968726,93.110842 72.7825837,93.277864 C72.2398672,94.0272737 72.0337723,95.0225248 72.069995,95.9746129 C72.080612,96.2141988 72.1168348,96.4519081 72.1705443,96.6852385 C72.2286256,96.9060579 72.3185579,97.2307186 72.5565038,97.5979169 C72.6657966,97.7774499 72.8231781,97.9557319 72.9743144,98.1014852 C73.1160827,98.2309742 73.268468,98.3485777 73.3971211,98.4273971 C73.6694162,98.6006746 73.9023658,98.698886 74.1153305,98.7752032 C74.5437581,98.9240843 74.9059854,98.988516 75.2644656,99.0273001 C75.6310647,99.0610799 75.9533221,99.0773442 76.4267158,99.0247979 C77.2254896,98.927212 77.9430744,98.5506305 78.4264606,98.1771768 C78.6775216,97.9876349 78.8848656,97.7962164 79.0703509,97.6110535 L79.3314045,97.3389389 L79.6105693,97.0261636 C80.7059948,95.8651416 81.1025713,94.252472 80.657906,92.9081636 C80.469298,92.3226482 80.0883347,91.7934323 79.5999523,91.4518816" id="Fill-14" fill="#0A0261"></path>
                        <path d="M99.2294899,119.582832 C99.0777291,119.781757 98.9265929,119.980683 98.7673378,120.173352 C97.0280219,122.313986 94.806569,124.063026 92.344672,125.29974 C89.8833996,126.53833 87.177936,127.299 84.4193873,127.43537 L83.3870393,127.481035 L82.356565,127.451009 C81.6670839,127.45226 80.9900935,127.331528 80.3074823,127.270224 C78.9578731,127.050656 77.6145092,126.767282 76.3298512,126.306876 C73.7424237,125.442365 71.3348609,124.089925 69.2251988,122.360277 C67.4084412,120.86959 65.8033993,119.095528 64.5555885,117.070621 C64.5043771,116.97929 64.4850167,116.946136 64.4975073,116.779114 C64.4956337,116.224876 64.6473944,115.499863 65.1270334,115.068233 C65.6041743,114.625969 66.4079443,114.488973 67.5883058,114.863053 C67.6320229,114.876815 67.8056423,114.957511 67.8581028,115.018815 C68.8660941,116.658383 70.1832277,118.116542 71.6852221,119.350127 C73.4289097,120.781387 75.4348998,121.911757 77.577662,122.62426 C78.6399874,123.009599 79.7472789,123.235423 80.8526969,123.420586 C81.4104021,123.464374 81.9649847,123.57322 82.523939,123.566339 L83.3614336,123.593238 L84.195181,123.554453 C86.4185076,123.449986 88.6118567,122.827564 90.5978618,121.829185 C92.5857406,120.83018 94.3725207,119.430823 95.7795866,117.695546 C97.1991431,115.971528 98.2689629,113.952251 98.9902949,111.78722 C99.147052,111.23611 99.3375336,110.697511 99.4718075,110.138268 L99.7484743,108.82774 C99.7572177,108.409246 99.7784517,107.983872 99.8277896,107.543484 C99.8527708,107.382092 99.8727557,107.225079 99.8958633,107.066189 C98.8803777,107.613546 98.0716114,108.591282 97.0342672,109.150524 C95.7183827,109.859898 94.1451918,109.827995 92.6519407,109.778577 C91.7894649,109.750427 90.8857701,109.710392 90.1438286,109.270004 C89.5986139,108.946594 89.1876733,108.429264 88.9053857,107.86189 C87.8842793,105.810083 88.5425338,103.239696 89.9364846,101.421846 C93.2920839,97.0454931 103.119687,92.1136517 108.03099,96.6807971 C108.994015,97.5765856 109.600434,98.7813962 110.187492,99.9593081 C111.203602,101.999229 112.247192,104.172392 112.051714,106.444392 C111.477771,113.115264 107.36087,109.476436 103.848513,107.594779 C103.784811,108.097722 103.725481,108.600665 103.651162,109.102357 L103.623682,109.230594 C103.628679,109.889925 103.679266,110.579282 103.765451,111.262383 C103.913464,112.391502 104.133923,113.535634 104.458054,114.635352 C105.10132,116.790374 106.03874,119.074885 107.388973,119.73922 C110.687116,121.711581 115.241813,121.878603 119.57043,121.802912 C120.110023,121.784145 120.647119,121.757246 121.179219,121.711581 C121.446517,121.692189 121.711318,121.665916 121.975494,121.636515 L122.371446,121.592101 L122.709941,121.547687 C123.076541,121.502022 123.438143,121.440718 123.799122,121.378163 C124.521703,121.253678 125.227422,121.084154 125.922523,120.890233 C125.922523,120.890233 126.256647,120.830806 126.803111,120.691308 C127.35457,120.554938 128.115248,120.351634 128.960237,120.026348 C130.668326,119.405176 132.68993,118.223511 134.134467,116.905475 C135.344806,115.776982 135.973708,114.856172 136.427117,114.358859 C136.855544,113.845282 137.104732,113.738312 137.215898,113.978524 C137.318945,114.215608 137.297087,114.813009 137.066635,115.618092 C136.828689,116.415669 136.373407,117.413423 135.69142,118.394912 C135.7851,118.310462 135.430367,118.862198 134.727771,119.641009 C134.028297,120.419194 132.962849,121.40944 131.747514,122.222031 C130.547167,123.048383 129.205053,123.724603 128.182697,124.133713 C127.158468,124.554709 126.448378,124.764268 126.448378,124.764268 C125.662719,124.974453 124.87019,125.130841 124.078287,125.264083 L123.484359,125.35729 L123.177714,125.397951 C122.893553,125.43611 122.609392,125.472392 122.325856,125.49929 C121.191085,125.619396 120.060686,125.680075 118.93903,125.698841 C116.698216,125.721361 114.499871,125.656304 112.198478,125.329141 C109.920818,125.001352 107.554474,124.348903 105.403593,123.072779 L105.403593,123.072154 C105.090079,122.867599 104.817784,122.733105 104.423081,122.393431 C104.246339,122.243925 104.048363,122.090665 103.8991,121.935528 L103.485661,121.46574 C103.332027,121.283079 103.194006,121.100418 103.062855,120.916506 C103.062855,120.916506 101.570228,118.939141 101.570228,115.811387 C100.945698,117.062489 99.2294899,119.582832 99.2294899,119.582832" id="Fill-16" fill="#0A0261"></path>
                        <path d="M67.9090644,84.8739662 C68.2082142,85.1173054 68.6809834,85.1091733 69.32987,84.8739662 C69.7726617,84.7576138 70.1954685,84.6462658 70.5133542,84.562442 C70.8356116,84.4786182 71.0554462,84.4285742 71.0554462,84.4285742 C71.0554462,84.4285742 71.2877713,84.2190147 71.6837233,83.956909 C72.0802998,83.6960543 72.659239,83.4114288 73.2706538,83.235649 C73.8814441,83.0554905 74.5140929,82.9960631 74.9774941,83.018583 C75.4433934,83.0342217 75.7462904,83.1017812 75.7619037,83.1067856 C75.7762679,83.0930235 75.8206095,82.987931 75.831851,82.9585301 C76.133499,82.160953 76.3658241,81.420301 76.4719942,80.7972526 C76.5837851,80.1767063 76.5737926,79.6750147 76.5257038,79.3866358 C76.5150868,79.2884244 76.5069679,79.2871733 76.4851093,79.2821689 C76.4563809,79.2752878 75.9099173,79.1558076 75.1036491,79.1295345 C74.2980055,79.0945037 73.2406764,79.1983451 72.2433021,79.487975 C71.2440542,79.7700984 70.310382,80.2254993 69.6627444,80.6496226 C69.3342417,80.8541777 69.078809,81.0549794 68.8945726,81.1857195 C68.7203288,81.3308473 68.6210285,81.4140455 68.6210285,81.4140455 C68.6210285,81.4140455 68.5292226,81.5460367 68.390577,81.7443363 C68.2669201,81.9557724 68.1001706,82.2253847 67.9621495,82.506257 C67.681111,83.0698781 67.5162351,83.6478869 67.5786881,83.629746 C67.492503,84.1508297 67.6180335,84.6443891 67.9090644,84.8739662" id="Fill-18" fill="#0A0261"></path>
                        <path d="M123.66847,83.0189583 C123.702819,83.108412 123.707191,83.1077865 123.719681,83.1065354 C123.73467,83.101531 124.03382,83.0364737 124.492849,83.0208349 C124.950005,82.9983151 125.572662,83.0577424 126.174709,83.2322711 C126.77738,83.4030464 127.350074,83.6801653 127.738531,83.9372667 C127.937757,84.0605001 128.087644,84.1831081 128.200684,84.2581742 C128.303107,84.3457512 128.361188,84.3957953 128.361188,84.3957953 C128.361188,84.3957953 128.460488,84.4245706 128.609751,84.4683592 C128.747147,84.5246587 128.947621,84.5922182 129.139977,84.676042 C129.524687,84.8405618 129.897531,85.064509 129.913145,85.0125883 C130.294732,85.1477072 130.715041,85.2521742 131.087885,85.1314429 C131.445117,85.0132138 131.756132,84.6610288 131.694304,83.8096543 C131.694304,83.2823151 131.528804,82.688042 131.332701,82.2464032 C131.14222,81.798509 130.939872,81.5026235 130.939872,81.5026235 C130.939872,81.5026235 130.550165,81.1460596 129.895658,80.7119275 C129.24115,80.2790464 128.300608,79.8073812 127.290744,79.5133724 C126.283377,79.2106059 125.211683,79.100509 124.395423,79.132412 C123.578538,79.1543063 123.02458,79.2756631 122.995851,79.2819186 C122.97774,79.3013107 122.957755,79.4182887 122.955257,79.4495662 C122.886559,80.3140772 123.045814,81.070368 123.21069,81.6809054 C123.380562,82.2914429 123.560426,82.7581037 123.66847,83.0189583" id="Fill-20" fill="#0A0261"></path>
                        <path d="M127.139982,55.1334164 C127.301111,55.7558394 127.4816,56.3263416 127.668334,56.9831698 L128.593888,60.1403239 L130.416266,56.6997953 L130.784739,56.0066852 L130.968975,55.6595046 C130.997703,55.6082094 131.033926,55.5275134 131.057034,55.5012402 L131.130104,55.4130376 L131.710292,54.7061653 C131.903272,54.4271698 132.097501,54.343346 132.291105,54.1950905 L132.582136,53.9892843 C132.677689,53.9217248 132.793851,53.8366499 132.811338,53.8366499 C132.974341,53.757205 133.147335,53.665249 133.285981,53.6227116 C133.869916,53.3918834 134.481956,53.325575 135.067765,53.3887557 C135.095244,53.3724913 135.16082,53.269901 135.176433,53.2436279 C135.601113,52.4704473 135.933363,51.7466852 135.99082,51.114879 C136.06389,50.4868261 135.876531,49.9507292 135.659819,49.6348261 C135.600489,49.5284825 135.579255,49.5303592 135.523047,49.5228526 C134.287727,49.3827292 133.029299,49.5466235 131.903896,49.9870112 C131.607245,50.0914781 131.373046,50.2134605 131.123234,50.3323151 L131.05516,50.3648438 L131.179442,49.9719979 C131.290608,49.6379539 131.426755,49.3201742 131.579141,49.0286675 C131.729028,48.7284032 131.889532,48.5013283 132.082512,48.2511081 C132.082512,48.2511081 132.109367,48.2041918 132.155582,48.1222446 C132.19805,48.0359186 132.273618,47.9239451 132.365424,47.7856984 C132.552158,47.5142094 132.836944,47.1645266 133.172317,46.8667645 C133.834318,46.2424649 134.684928,45.9690993 134.601866,45.9328173 C135.280105,45.5937689 135.988946,45.4423856 136.254996,45.120227 C136.381776,44.9607116 136.380527,44.749901 136.12322,44.4821653 C135.868412,44.2144297 135.323822,43.8916455 134.375786,43.7909319 C133.818705,43.7177424 133.181684,43.7440156 132.565273,43.8716279 C131.947613,43.996738 131.364927,44.230694 130.864678,44.4802887 C129.872925,44.9957424 129.255889,45.5968966 129.255889,45.5968966 C128.873053,46.0247733 128.545174,46.5202094 128.259764,47.0212755 C127.984971,47.5129583 127.772631,48.0140244 127.582774,48.5182182 C127.49534,48.7715662 127.406032,49.0242887 127.336084,49.2801389 C127.205558,49.6936279 127.134986,50.13902 127.03631,50.5668966 C126.906408,51.4195222 126.813353,52.2796543 126.853323,53.0422006 C126.878304,53.8116279 126.969485,54.5278834 127.139982,55.1334164" id="Fill-22" fill="#0A0261"></path>
                        <path d="M70.9701354,52.4824579 C71.3011362,52.5475151 71.8176225,52.5981847 72.4977356,52.7276737 C72.9018064,52.8202552 73.319617,52.9985372 73.7012047,53.1618059 C74.0790453,53.3626076 74.4306557,53.5508984 74.7023262,53.77422 C74.9359004,53.9512508 75.1532368,54.1157706 75.3474656,54.262775 C75.5716719,54.3691186 75.877067,54.8332772 76.1025223,55.1072684 C76.5228309,55.5176297 76.9812359,56.5841935 76.9662472,56.5235151 L79.5649162,61.4084402 L80.3430805,54.7826076 C80.468611,53.6209601 80.5579188,52.3717354 80.4823507,51.0618323 L80.4436298,50.5751539 C80.4311392,50.4306517 80.4173995,50.2067046 80.4055335,50.1441495 C80.3786787,49.9533565 80.3599428,49.7631891 80.3249691,49.5717706 C80.2625161,49.1889336 80.1856989,48.8048455 80.0826515,48.421383 C79.8815529,47.6588367 79.6005144,46.8894094 79.1889492,46.1399997 C78.7836293,45.4049777 78.2821317,44.7300085 77.6882038,44.1288543 C76.5140875,42.9409336 74.8840644,41.9932244 72.9779991,41.8537266 C72.9180442,41.8649865 72.798759,41.9675768 72.7744023,41.9963521 C72.1024081,42.83459 72.1567422,43.6190305 72.2547934,44.242079 C72.3722051,44.8732596 72.5514451,45.3574358 72.6469982,45.6351803 C72.6757266,45.7327662 72.683221,45.7333918 72.7075776,45.7371451 C73.4451475,45.7840614 74.269527,46.1937971 74.9365249,46.8725195 C75.2687748,47.2084402 75.5616794,47.6006605 75.7921309,48.0197794 C76.0169617,48.4251363 76.1962018,48.9011803 76.3317248,49.4122552 L76.5640499,50.6658587 C76.5640499,50.6658587 76.577165,50.7209072 76.5478121,50.774079 C76.5715443,50.8191186 76.4035457,50.7747046 76.2817624,50.7565636 C75.9557578,50.6652332 75.5679247,50.5407486 75.1950803,50.4863257 C73.6805953,50.1748015 72.2210688,50.5526341 72.3628371,50.5801583 C71.160617,50.9029424 70.4324151,51.6698675 70.4536491,52.0602112 C70.4592699,52.2666429 70.6297666,52.4030129 70.9701354,52.4824579" id="Fill-24" fill="#0A0261"></path>
                        <path d="M25.0665615,118.835737 C25.0272161,118.816345 25.0128519,118.809464 24.9816254,118.74253 C24.7636644,118.331543 24.4395334,117.392592 25.7591651,117.097332 C25.7835218,117.092327 25.8934391,117.08357 25.9396543,117.097332 C26.9632588,117.614037 27.926284,118.243966 28.8118674,118.967103 C31.9001679,121.484319 34.0903943,125.219482 34.4370084,129.274301 C34.8073547,133.28846 33.5014626,137.440239 30.692327,140.430372 C30.4974737,140.629922 30.2570297,140.858248 29.920408,141.045913 C29.5794147,141.236081 29.1715966,141.339297 28.7962542,141.344927 C28.0355767,141.346803 27.4354035,141.072186 26.9389022,140.760037 C25.9665091,140.107587 25.2813998,139.278107 24.7449285,138.341032 C23.6982164,136.471887 23.4390365,134.279332 23.710707,132.272565 C23.836862,131.262927 24.0854249,130.288944 24.389571,129.350618 C24.5425809,128.88083 24.7105794,128.419799 24.8910686,127.967526 C25.0490746,127.556539 25.2963885,126.946627 25.6860951,126.476838 C25.7329349,126.415535 25.7853954,126.354231 25.8416031,126.294178 C25.8871938,126.239755 25.975877,126.153429 25.9789997,126.151552 L26.1070283,126.033323 C26.2082022,125.951376 26.278774,125.889446 26.424914,125.79749 C26.7072016,125.627341 26.9963589,125.517244 27.3086239,125.493473 C27.927533,125.437799 28.552063,125.735561 28.9311526,126.239129 C28.9448923,126.252891 29.1328758,126.521878 29.2621535,126.845913 C29.3951784,127.163693 29.5669241,127.615966 29.7024471,128.147684 C29.9853591,129.210495 30.0596782,130.594213 29.8498361,131.678918 C29.6993244,132.600979 29.4551332,133.15772 29.2790158,133.457984 C29.0947795,133.756372 28.9754943,133.80579 28.9105431,133.69194 C28.7787673,133.461737 28.8643279,132.589094 28.7781428,131.568195 C28.751288,131.678292 28.7412955,130.440327 28.3366001,129.285561 C28.1473676,128.706927 27.8856895,128.156442 27.655238,127.767975 C27.5478188,127.567799 27.4397752,127.437059 27.436028,127.448944 C27.4279091,127.452698 27.425411,127.457702 27.425411,127.457702 C27.4216638,127.462706 27.4585111,127.433931 27.3748241,127.498988 C27.3804448,127.478971 27.081295,127.78549 26.945772,128.082627 C26.904553,128.163949 26.8776982,128.221499 26.8358547,128.323464 L26.7096997,128.633737 L26.4717538,129.25616 C26.3193685,129.672151 26.1800983,130.090019 26.058315,130.509138 C25.8134992,131.347376 25.6461252,132.193746 25.5780515,133.036363 C25.4344096,134.707834 25.776652,136.400574 26.6447486,137.738001 C26.8595869,138.070794 27.1112724,138.371059 27.3879392,138.63942 C27.6733494,138.913411 27.9562614,139.13986 28.2416716,139.268098 C28.5302044,139.407596 28.7718975,139.425112 28.8943054,139.383825 C28.9973528,139.368812 29.2321761,139.181147 29.5250806,138.827711 C30.6623496,137.561596 31.4817328,136.013984 31.9982191,134.377543 C32.4866015,132.731094 32.6789567,130.983931 32.4890996,129.276803 C32.1449836,125.863173 30.2638995,122.653473 27.5846661,120.475305 C26.8065018,119.83912 25.9608883,119.286759 25.0665615,118.835737" id="Fill-26" fill="#0A0261"></path>
                    </g>
                </g>
            </g>
        </g>
    </g>
</svg>