<svg xmlns="http://www.w3.org/2000/svg" width="200" height="200"><style>@keyframes Landing_t{0%,85.7142%,to{transform:translate(97.444042px,96.99986px) rotate(0deg) translate(-97.444042px,-96.99986px)}28.5714%{transform:translate(97.444042px,96.99986px) rotate(0deg) translate(-97.444042px,-96.99986px);animation-timing-function:cubic-bezier(.42,0,1,1)}31.4285%{transform:translate(97.444042px,96.99986px) rotate(-4deg) translate(-97.444042px,-96.99986px);animation-timing-function:cubic-bezier(.322727,0,.65805,.35777)}82.8571%{transform:translate(97.444042px,96.99986px) rotate(-4deg) translate(-97.444042px,-96.99986px);animation-timing-function:cubic-bezier(.460874,.17006,1,1)}}@keyframes a0_t{0%{transform:translate(91.309076px,125.261281px)}7.1428%{transform:translate(91.309076px,129.259993px)}14.2857%,28.5714%,42.8571%,57.1428%,71.4285%,85.7142%,to{transform:translate(91.309076px,125.26px)}21.4285%,35.7142%,50%,64.2857%,78.5714%,92.8571%{transform:translate(91.309076px,129.26px)}}@keyframes Fill-20_t{0%,85.7142%,to{transform:translate(0,0)}35.7142%{transform:translate(0,0);animation-timing-function:cubic-bezier(.42,0,1,1)}38.5714%,82.8571%{transform:translate(0,-4px)}}</style><g id="Landing" fill="none" fill-rule="evenodd" style="animation:Landing_t 7s linear infinite both"><g id="landing-page-mvp" transform="translate(-411 -1893)"><g id="Group-7" transform="translate(338 1751)"><g id="Group-5" transform="translate(0 142)"><g id="dog-with-newspaper" transform="translate(73)"><path id="Fill-1" d="M156.336 109.491c-.292-9.362-4.288-25.976-8.749-33.493.006-.026.006-.05.013-.081.406-3.593 1.475-13.152-.747-18.981-1.726-4.53-3.84-8.843-5.888-13.016l-.477-.973c-1.679-3.397-3.029-6.896-4.48-10.65-.68-1.774-1.952-5.071-5.291-6.045-4.747-1.393-8.186 3.347-9.655 5.36-4.486 6.152-6.867 12.554-8.612 17.226-.31.833-1.146 1.331-1.982 1.196-2.419-.401-7.25-.585-9.208-.61v.006c-.012 0-.025-.007-.037-.007-.012 0-.023.007-.035.007v-.007c-1.958.026-6.79.21-9.21.611-.84.135-1.676-.363-1.982-1.196-1.743-4.672-4.126-11.074-8.603-17.225-1.47-2.014-4.91-6.741-9.658-5.36-3.337.973-4.61 4.27-5.31 6.081-1.431 3.71-2.782 7.211-4.465 10.62l-.472.96C59.44 48.087 57.325 52.4 55.6 56.93c-2.221 5.835-1.151 15.388-.746 18.98a.253.253 0 0 1 .006.068c-4.436 7.44-8.449 24.115-8.742 33.5l-.03.999c-.316 9.349-.616 18.179 15.413 38.4C75.354 166.348 93.09 168 99.29 168c.924 0 1.582-.037 1.939-.062.358.025 1.015.062 1.942.062 6.197 0 23.94-1.652 37.787-19.123 16.03-20.219 15.73-29.051 15.413-38.4l-.035-.986zm-55.131 55.194h.03l-.012.166-.018-.166z" fill="#80A7F5"/><path id="Fill-3" d="M103.816 153.543c3.53.078 7.271-.07 10.148-1.282 2.15-.907 3.762-2.722 5.297-4.481l3.677-4.213c.832-.952 1.668-1.911 2.333-2.987 2.076-3.358 2.304-7.514 2.241-11.463a25.716 25.716 0 0 1-12.369.697c-.939-.178-16.583-.545-14.001-5.023-2.455 4.26-7.93 6.257-12.49 7.125-3.349.638-12.517-1.736-12.149 1.88.91 8.932 5.015 15.713 14.1 18.54 2.71.843 5.586.942 8.42 1.034 1.473.048 3.109.136 4.793.173" fill="#0A0261"/><g transform="translate(91.31 125.261)" style="animation:a0_t 7s linear infinite both"><g><path id="Fill-5" d="M91.858 155.09c0 .782.007 1.59.32 2.306.69 1.581 2.574 2.185 4.244 2.612 3.559.913 7.612 1.753 10.684-.267 2.845-1.869 3.809-5.524 4.554-8.849l1.475-6.589c.456-2.036.914-4.126.613-6.191-.611-4.194-4.129-7.265-7.412-9.94-4.27-3.478-8.979-4.658-12.321 1.122-4.325 7.478-2.172 17.588-2.157 25.796" fill="#FF0056" transform="translate(-91.31 -125.261)"/><path id="Fill-7" d="M99.23 126.464a84.684 84.684 0 0 0-.102 3.573c-.008 1.514.01 3.023.053 4.521l.1 3.107.537 5.37c.274 2.646.458 5.221.498 4.997.241 2.155.479 3.938.841 4.328.178.194.388.035.616-.616.234-.652.485-1.8.691-3.577.299-2.095.469-4.642.565-6.65l.139-3.488-.116-3.572a126.52 126.52 0 0 1-.04-4.393c.006-.758.025-1.513.051-2.266" fill="#0A0261" transform="translate(-91.31 -125.261)"/></g></g><path id="Fill-9" d="M24.27 117.333a46.692 46.692 0 0 0-4.268 18.964c-.017 1.528.052 3.104.689 4.493 1.089 2.378 3.682 3.773 6.266 4.155 2.584.383 5.209-.075 7.791-.468 16.412-2.495 33.09-2.335 49.685-2.749 28.092-.702 56.112-3.066 84.113-5.428 1.226-.103 2.528-.235 3.5-.991.763-.592 1.217-1.493 1.569-2.394 2.961-7.567.193-16.042-2.571-23.685a122.683 122.683 0 0 1-28.268 5.839c-1.922.165-4.216-.118-5.706 1.261-1.334 1.234-2.292 2.437-3.917 3.496-3.545 2.309-7.4 4.344-11.653 4.874-2.204.275-4.44.137-6.65-.091-2.873-.295-5.83-.777-8.255-2.347-3.622-2.347-2.998-5.907-4.817-9.136.802 1.424-1.453 3.892-2.239 4.985-1.448 2.016-3.455 4.86-5.663 5.968-5.227 2.625-10.852 1.75-16.21-.046-3.308-1.108-6.788-2.392-8.93-5.147-.855-1.1-1.54-2.506-2.99-2.772-1.363-.249-3.73.464-5.184.561a371.34 371.34 0 0 1-36.292.658" fill="#D9D7D7"/><path id="Fill-12" d="M122.596 92.116h-.001c-.007-.017-.008-.02.001 0m.141.303l-.035-.069a8.284 8.284 0 0 1 .035.07m-2.092 5.178a2.715 2.715 0 0 0 .841.83c.272.172.505.27.719.347.427.149.79.213 1.148.252.367.034.689.05 1.162-.002.799-.097 1.517-.474 2-.848.251-.189.459-.381.644-.566l.261-.272.279-.312c1.096-1.161 1.493-2.774 1.048-4.119a2.872 2.872 0 0 0-1.058-1.456c-.482-.354-1.126-.55-1.796-.664l-.323-.018a88.18 88.18 0 0 0-.368-.006c-.129.002-.335.002-.415.015a9.308 9.308 0 0 0-.751.106l-.264.046a5.493 5.493 0 0 0-.309.067c-.205.049-.407.114-.596.198-.773.326-1.317.95-1.528 1.47a3.82 3.82 0 0 0-.066.167 2.47 2.47 0 0 0-.402.445c-.542.75-.748 1.744-.712 2.696.01.24.047.478.1.712.058.22.148.544.386.912" fill="#0A0261"/><path id="Fill-14" d="M74.493 92.122c-.004-.006-.003-.005 0 0m.014-.006c-.008-.017-.009-.02 0 0m.141.304l-.035-.07.039.073-.004-.003m4.952-.968c-.482-.354-1.126-.55-1.796-.664l-.323-.018a86.91 86.91 0 0 0-.368-.006c-.129.002-.335.002-.415.015a9.508 9.508 0 0 0-.75.106l-.264.046a4.829 4.829 0 0 0-.31.067 3.5 3.5 0 0 0-.596.198c-.773.327-1.317.95-1.528 1.47a3.447 3.447 0 0 0-.066.167c-.15.132-.287.278-.401.445-.543.75-.75 1.744-.713 2.697.01.24.047.477.1.71.059.221.149.546.386.913a2.668 2.668 0 0 0 .841.83c.272.173.505.27.718.347.429.15.791.213 1.15.252.366.034.688.05 1.162-.002.798-.098 1.516-.474 2-.848a6.14 6.14 0 0 0 .643-.566l.261-.272.28-.313c1.095-1.16 1.492-2.773 1.047-4.118a2.87 2.87 0 0 0-1.058-1.456" fill="#0A0261"/><path id="Fill-16" d="M99.23 119.583c-.152.199-.303.398-.463.59-1.739 2.141-3.96 3.89-6.422 5.127-2.462 1.238-5.167 1.999-7.926 2.135l-1.032.046-1.03-.03c-.69.001-1.367-.119-2.05-.181-1.35-.219-2.692-.503-3.977-.963a22.467 22.467 0 0 1-7.105-3.947c-1.817-1.49-3.422-3.264-4.67-5.289-.05-.092-.07-.125-.058-.292-.001-.554.15-1.279.63-1.711.477-.442 1.28-.579 2.461-.205.044.014.218.095.27.156 1.008 1.639 2.325 3.098 3.827 4.331a18.573 18.573 0 0 0 5.893 3.274c1.062.386 2.17.611 3.275.797.557.043 1.112.152 1.67.145l.838.027.834-.039c2.224-.104 4.417-.726 6.403-1.725 1.988-.999 3.775-2.398 5.182-4.133 1.42-1.724 2.489-3.744 3.21-5.909.157-.551.348-1.089.482-1.649l.277-1.31c.008-.419.03-.844.079-1.285.025-.161.045-.318.068-.477-1.016.548-1.824 1.525-2.862 2.085-1.316.709-2.889.677-4.382.628-.862-.029-1.766-.069-2.508-.509-.545-.323-.956-.841-1.239-1.408-1.02-2.052-.362-4.622 1.031-6.44 3.356-4.376 13.184-9.308 18.095-4.741.963.896 1.569 2.1 2.156 3.278 1.017 2.04 2.06 4.213 1.865 6.485-.574 6.671-4.691 3.032-8.203 1.151-.064.503-.124 1.006-.198 1.507l-.027.129c.005.659.055 1.348.141 2.031.148 1.13.369 2.274.693 3.373.643 2.155 1.581 4.44 2.931 5.104 3.298 1.973 7.853 2.14 12.181 2.064a32.784 32.784 0 0 0 2.405-.166l.396-.045.339-.044c.367-.046.728-.107 1.089-.17a21.33 21.33 0 0 0 2.124-.488s.334-.059.88-.199a17.627 17.627 0 0 0 2.157-.665c1.708-.621 3.73-1.802 5.174-3.121 1.211-1.128 1.84-2.049 2.293-2.546.429-.514.678-.621.789-.38.103.237.081.834-.149 1.639-.238.798-.694 1.795-1.376 2.777.094-.085-.261.467-.963 1.246a16.63 16.63 0 0 1-2.98 2.581 19.254 19.254 0 0 1-3.565 1.912c-1.025.421-1.735.63-1.735.63-.785.21-1.578.367-2.37.5l-.594.093-.306.041c-.284.038-.569.074-.852.101-1.135.12-2.265.181-3.387.2-2.241.022-4.439-.043-6.741-.37-2.277-.328-4.644-.98-6.794-2.256v-.001c-.314-.204-.586-.339-.981-.679-.177-.149-.375-.302-.524-.457l-.413-.47a8.79 8.79 0 0 1-.423-.549s-1.493-1.978-1.493-5.106c-.624 1.251-2.34 3.772-2.34 3.772" fill="#0A0261"/><path id="Fill-18" d="M67.91 84.874c.298.243.771.235 1.42 0l1.183-.312c.323-.083.542-.133.542-.133s.233-.21.629-.472c.396-.26.975-.546 1.587-.721.61-.18 1.243-.24 1.707-.217.465.015.768.083.784.088a.946.946 0 0 0 .07-.148c.302-.798.534-1.539.64-2.162.112-.62.102-1.122.054-1.41-.01-.099-.019-.1-.04-.105a8.05 8.05 0 0 0-1.382-.153 9.308 9.308 0 0 0-2.86.359c-1 .282-1.934.737-2.581 1.162-.329.204-.584.405-.768.536l-.274.228-.23.33c-.124.212-.29.481-.429.762-.28.564-.446 1.142-.383 1.124-.086.52.039 1.014.33 1.244" fill="#0A0261"/><path id="Fill-20" d="M123.668 83.019c.035.09.039.089.052.087.015-.004.314-.07.773-.085a5.401 5.401 0 0 1 1.682.211c.602.171 1.175.448 1.564.705.199.124.349.246.462.321l.16.138.249.072c.137.057.338.124.53.208.385.165.758.388.773.337.382.135.802.24 1.175.118.357-.118.668-.47.606-1.321 0-.528-.165-1.122-.361-1.564-.191-.447-.393-.743-.393-.743s-.39-.357-1.044-.791a9.987 9.987 0 0 0-2.605-1.199 9.29 9.29 0 0 0-2.896-.38c-.816.021-1.37.143-1.399.149a.574.574 0 0 0-.041.168c-.068.864.091 1.62.256 2.23.17.611.349 1.078.457 1.339" fill="#0A0261" style="animation:Fill-20_t 7s linear infinite both"/><path id="Fill-22" d="M127.14 55.133c.161.623.342 1.193.528 1.85l.926 3.157 1.822-3.44.369-.693.184-.347c.029-.052.065-.132.088-.159l.073-.088.58-.707c.193-.279.388-.363.581-.51l.291-.207c.096-.067.212-.152.229-.152.163-.08.336-.172.475-.214a3.744 3.744 0 0 1 1.782-.234.703.703 0 0 0 .108-.145c.425-.774.757-1.497.815-2.13.073-.627-.114-1.163-.331-1.48-.06-.105-.081-.104-.137-.111a7.633 7.633 0 0 0-3.619.464c-.297.105-.531.227-.781.345l-.068.033.124-.393a6.56 6.56 0 0 1 .4-.943c.15-.3.311-.528.504-.778l.073-.129c.042-.086.118-.198.209-.336.187-.272.472-.622.807-.92.662-.623 1.513-.897 1.43-.933.678-.34 1.387-.49 1.653-.813.127-.16.126-.37-.132-.638-.255-.268-.799-.59-1.747-.691a5.567 5.567 0 0 0-1.811.08c-.617.126-1.2.36-1.7.61-.992.515-1.609 1.116-1.609 1.116a8.26 8.26 0 0 0-.996 1.424c-.275.492-.487.993-.677 1.497-.088.254-.177.506-.247.762-.13.414-.201.859-.3 1.287-.13.852-.223 1.713-.183 2.475.025.77.116 1.486.287 2.091" fill="#0A0261"/><path id="Fill-24" d="M70.97 52.483c.331.065.848.115 1.528.245.404.092.822.27 1.203.434.378.2.73.389 1.001.612l.645.489c.225.106.53.57.756.844.42.41.878 1.477.863 1.416l2.599 4.885.778-6.625c.126-1.162.215-2.411.14-3.721l-.04-.487c-.012-.144-.026-.368-.037-.43-.027-.192-.046-.382-.081-.573-.063-.383-.14-.767-.242-1.15a10 10 0 0 0-.894-2.282 9.12 9.12 0 0 0-1.5-2.011c-1.175-1.188-2.805-2.136-4.711-2.275-.06.011-.18.114-.204.142-.672.839-.617 1.623-.52 2.246.118.631.297 1.115.393 1.393.029.098.036.098.06.102.738.047 1.563.457 2.23 1.136.332.335.625.728.855 1.147.225.405.404.881.54 1.392l.232 1.254s.013.055-.016.108c.023.045-.145 0-.266-.017-.326-.092-.714-.216-1.087-.27-1.514-.312-2.974.066-2.832.093-1.202.323-1.93 1.09-1.91 1.48.006.207.177.343.517.422" fill="#0A0261"/><path id="Fill-26" d="M25.067 118.836c-.04-.02-.054-.027-.085-.093-.218-.411-.543-1.35.777-1.646a.602.602 0 0 1 .18 0 15.84 15.84 0 0 1 2.873 1.87c3.088 2.517 5.278 6.252 5.625 10.307.37 4.014-.935 8.166-3.745 11.156-.195.2-.435.428-.772.616-.34.19-.748.293-1.124.299-.76.002-1.36-.273-1.857-.585-.973-.652-1.658-1.482-2.194-2.419-1.047-1.869-1.306-4.062-1.034-6.068.126-1.01.374-1.984.679-2.922.153-.47.32-.931.501-1.383.158-.411.405-1.021.795-1.491.047-.061.1-.123.156-.183.045-.054.134-.141.137-.142l.128-.119c.101-.082.172-.144.318-.236.282-.17.571-.28.884-.304.618-.055 1.243.243 1.622.746.014.014.202.283.331.607.133.318.305.77.44 1.302.283 1.062.358 2.446.148 3.531-.15.922-.395 1.479-.571 1.779-.184.298-.303.348-.369.234-.131-.23-.046-1.103-.132-2.124-.027.11-.037-1.128-.441-2.282a7.945 7.945 0 0 0-.682-1.518c-.107-.2-.215-.331-.219-.319-.008.004-.01.009-.01.009-.004.005.033-.024-.051.041.005-.02-.294.286-.43.584a2.826 2.826 0 0 0-.11.24l-.125.311-.238.622a19.35 19.35 0 0 0-.414 1.253 12.675 12.675 0 0 0-.48 2.527c-.144 1.672.199 3.365 1.067 4.702.215.333.466.633.743.901.285.274.568.501.854.629.288.14.53.157.652.116.103-.015.338-.203.631-.556 1.137-1.266 1.957-2.814 2.473-4.45.489-1.647.681-3.394.491-5.101-.344-3.414-2.225-6.624-4.904-8.802a13.82 13.82 0 0 0-2.518-1.639" fill="#0A0261"/></g></g></g></g></g></svg>