<?xml version="1.0" encoding="UTF-8"?>
<svg width="40px" height="29px" viewBox="0 0 40 29" version="1.1" xmlns="http://www.w3.org/2000/svg" xmlns:xlink="http://www.w3.org/1999/xlink">
    <!-- Generator: Sketch 50.2 (55047) - http://www.bohemiancoding.com/sketch -->
    <title>logo/wide-white</title>
    <desc>Created with Sketch.</desc>
    <defs>
        <rect id="path-1" x="0" y="0" width="40" height="29"></rect>
    </defs>
    <g id="logos" stroke="none" stroke-width="1" fill="none" fill-rule="evenodd">
        <g id="logo/wide-white" transform="translate(-3.000000, -8.000000)">
            <g transform="translate(3.000000, 8.000000)">
                <g>
                    <mask id="mask-2" fill="white">
                        <use xlink:href="#path-1"></use>
                    </mask>
                    <g id="Rectangle-2"></g>
                    <path d="M20.725033,19.2800007 L29,19.2800007 L29,29.0050337 L20,20.0050337 L11,29.0050337 L11,19.2800007 L20.725033,19.2800007 Z M20,9 L29,0 L29,9.72503299 L20.725033,9.72503299 L11,9.72503299 L11,0 L20,9 Z" id="shadow" fill="#FFFFFF" opacity="0.400000006" mask="url(#mask-2)"></path>
                    <path d="M29,20 L11,20 L11,29 L0,29 L0,0 L11,0 L11,9 L29,9 L29,0 L40,0 L40,29 L29,29 L29,20 Z" id="Combined-Shape" fill="#FFFFFF" mask="url(#mask-2)"></path>
                </g>
            </g>
        </g>
    </g>
</svg>