<?xml version="1.0" encoding="UTF-8"?>
<svg width="649px" height="487px" viewBox="0 0 649 487" version="1.1" xmlns="http://www.w3.org/2000/svg" xmlns:xlink="http://www.w3.org/1999/xlink">
    <!-- Generator: Sketch 49.3 (51167) - http://www.bohemiancoding.com/sketch -->
    <title>scene</title>
    <desc>Created with Sketch.</desc>
    <defs></defs>
    <g id="scene" stroke="none" stroke-width="1" fill="none" fill-rule="evenodd">
        <g id="video" transform="translate(214.000000, 0.000000)">
            <rect id="Rectangle-2" fill="#D8D8D8" x="0" y="0" width="435" height="222" rx="6"></rect>
            <polygon id="Page-1" fill="#FFFFFF" points="186 77 186 146 246 111.500947"></polygon>
        </g>
        <g id="mute" transform="translate(0.000000, 181.000000)">
            <g id="button/mute">
                <g id="mute-button">
                    <circle id="Oval-4" fill="#FF0056" cx="58" cy="58" r="58"></circle>
                    <path d="M66.894807,69.0186326 C68.5982746,70.5039423 69.9806237,71.6332701 71.5248475,73.0502564 C80.386852,62.7661361 79.7060701,53.4531496 70.1065848,44.2584615 C68.79876,45.6000024 67.3701704,46.9084679 66.0624113,48.2500088 C73.672698,55.5519213 73.035986,62.4621211 66.8948728,69.0186326 L66.894807,69.0186326 Z M73.8615603,39.156978 C75.1531744,37.8030202 76.4447885,36.4490011 77.7364026,35.0974359 C91.6360122,49.6486479 91.1931177,66.5863101 79.0351151,80.9025641 C77.7814201,79.6564567 76.5300912,78.4102879 75.2763962,77.1617266 C85.3009815,65.6423433 85.182674,50.364767 73.8615603,39.1570394 L73.8615603,39.156978 Z M60.8605644,32.48 L39.9708558,44.6656343 L27.0666667,44.6656343 L27.0666667,71.3319249 L39.9708558,71.3319249 L60.8629787,83.52 L60.8605644,32.48 Z" id="Page-1" fill="#FFFFFF"></path>
                </g>
            </g>
        </g>
        <g id="target" transform="translate(159.000000, 181.000000)">
            <g id="button/target">
                <g id="target-button">
                    <g id="Group-4-Copy"></g>
                    <circle id="Oval-4" fill="#2CEDD1" cx="58" cy="58" r="58"></circle>
                    <path d="M70.7069463,30.0867831 C70.7069463,36.6239172 65.4045593,41.923534 58.8673542,41.923534 C52.3301491,41.923534 47.0277621,36.6239172 47.0277621,30.0867831 C47.0277621,23.5468788 52.3301491,18.247191 58.8673542,18.247191 C65.4045593,18.247191 70.7069463,23.5468078 70.7069463,30.0867831 Z M70.7069463,47.8447507 C77.2441514,47.8447507 82.5437611,53.1443675 82.5465384,59.6815015 L82.5465384,89.2790612 L35.1910112,89.2790612 L35.1910112,74.481702 L52.9489788,74.481702 L52.9489788,83.3606857 L67.746338,68.5633266 L52.9489788,53.7659674 L52.9489788,62.6449511 L35.1910112,62.6449511 L35.1910112,59.6843428 C35.1910112,53.1443675 40.4934693,47.8447507 47.0306034,47.8447507 L70.7069463,47.8447507 Z" id="Combined-Shape" fill="#FFFFFF"></path>
                </g>
            </g>
        </g>
        <g id="video" transform="translate(318.000000, 181.000000)">
            <g id="button/video">
                <g id="video-button">
                    <circle id="Oval-4" fill-opacity="0.5" fill="#BD10E0" cx="58" cy="58" r="58"></circle>
                    <path d="M77.0424905,58.7989142 L90.2198124,49.3844758 L90.2198124,79.505618 L77.0424905,70.0911796 L77.0424905,73.8576779 C77.0424905,76.8687077 74.5962547,79.505618 71.3945504,79.505618 L35.6254682,79.505618 C32.4237639,79.505618 29.9775281,76.8687077 29.9775281,73.8576779 L29.9775281,55.0324159 C29.9775281,51.8307116 32.4237639,49.3844758 35.6254682,49.3844758 L71.3945504,49.3844758 C74.5962547,49.3844758 77.0424905,51.8307116 77.0424905,55.0324159 L77.0424905,58.7989142 Z M50.6842319,37.1460674 C50.6842319,41.826809 46.8930634,45.6179775 42.2123218,45.6179775 C37.5351045,45.6179775 33.7404117,41.826809 33.7404117,37.1460674 C33.7404117,32.4688501 37.5351045,28.6741573 42.2123218,28.6741573 C46.8930634,28.6741573 50.6842319,32.4688501 50.6842319,37.1460674 Z M73.2759922,37.1460674 C73.2759922,41.826809 69.4848237,45.6179775 64.8040821,45.6179775 C60.1268648,45.6179775 56.332172,41.826809 56.332172,37.1460674 C56.332172,32.4688501 60.1268648,28.6741573 64.8040821,28.6741573 C69.4848237,28.6741573 73.2759922,32.4688501 73.2759922,37.1460674 Z" id="Combined-Shape" fill="#FFFFFF"></path>
                </g>
            </g>
        </g>
        <path d="M333.929747,401.915799 C333.988778,394.573437 333.746634,387.649305 332.971155,380.244475 C332.121653,371.736515 330.173034,363.811597 331.561214,355.201475 C332.90153,346.756369 334.294616,338.358639 336.015066,329.930814 C337.756262,321.452052 340.322744,311.382249 343.713838,303.488623 C345.915286,304.021078 348.228078,305.170784 350.127613,306.462316 C351.799509,307.593125 351.938861,308.643327 351.579946,310.697197 C350.57473,316.43025 349.304934,322.064187 348.52645,327.850937 C348.079782,331.156351 347.697531,334.471045 347.323287,337.793394 C347.014389,340.555116 346.047507,342.795428 346.370402,345.690426 C346.607981,347.806896 347.418776,349.588308 348.636431,346.781573 C349.35454,345.12652 350.055362,343.468787 350.721246,341.789957 C352.392782,337.583253 353.884898,333.30347 355.346262,329.014284 C360.095968,315.027 365.418686,301.339877 369.5013,287.148641 C370.03508,285.309657 370.707882,283.557438 371.299164,281.73343 C371.831846,280.084174 372.187293,278.320849 372.972909,276.774958 C373.672084,275.384893 374.27067,272.826296 376.050525,272.495639 C377.664423,272.200163 380.22593,274.423091 381.791761,274.894003 C384.298911,275.644894 385.224055,275.326305 384.827981,278.449312 C384.412065,281.797975 382.545495,284.916625 381.61279,288.128118 C380.387261,292.356621 378.853658,296.569045 377.590461,300.827689 C376.781148,303.550978 370.140799,322.19089 372.487783,323.871771 C373.357212,324.496881 377.568122,320.571855 378.758403,320.037515 C381.299646,318.908607 384.391157,317.976573 387.121031,318.91272 C393.008402,320.926167 390.370873,327.987907 390.575975,332.596518 C392.887104,329.233656 397.439697,326.915378 401.539274,327.32257 C405.620835,327.729462 405.068975,331.429708 405.440987,334.7563 C406.431325,343.531228 408.633502,333.553127 411.450439,332.123173 C413.618098,331.023248 416.494594,333.256559 418.119353,334.58385 C423.528061,338.992079 420.313765,343.862288 419.523098,349.392763 C418.478158,356.694063 415.620647,363.214691 413.0308,370.137395 C409.424558,379.766943 405.094815,389.157068 400.135288,398.161982 C392.170711,412.6218 385.200937,427.745059 379.449795,443.3919 C375.204046,454.960891 369.347998,467.998084 362.733419,478.160706 C356.741669,479.322997 342.971226,476.5189 332.552741,471.380941 C325.91952,468.126661 320.654561,463.908183 319.57601,459.178334 C318.222914,453.1044 324.171373,446.169685 326.486382,441.110455 C332.199205,428.516349 333.854294,415.801222 333.929747,401.915799 Z" id="hand" fill="#7EBFFF"></path>
    </g>
</svg>