<svg width="300" height="490" xmlns="http://www.w3.org/2000/svg" xmlns:xlink="http://www.w3.org/1999/xlink">
  <defs>
    <path id="a" d="M0 .732h128.55v79.47H0z"/>
    <path id="c" d="M.752.09h71.011v66.408H.753z"/>
    <path id="e" d="M0 .028h113.975v179.11H0z"/>
    <path id="g" d="M.146.22h247.74v668.586H.146z"/>
  </defs>
  <g fill="none" fill-rule="evenodd">
    <path fill="#0BF7F3" d="M113.593 31l-88.138 86.155L20 131.908l14.866-5.106 88.141-86.154z"/>
    <g transform="translate(20 58.078)">
      <mask id="b" fill="#fff">
        <use xlink:href="#a"/>
      </mask>
      <path d="M26.733 39.194a20.69 20.69 0 0 1-.76-.28c.078-.071.155-.14.23-.21 5.998-5.59 7.069-10.795 15.478-6.453 5.653 2.916 8.052 8.283 9.013 14.248-7.736-2.102-16.227-4.66-23.96-7.305M79.325 12.98C67.586 8.194 44.563-5.583 33.49 4.107 21.757 14.377 11.603 27.624 4.614 41.628 2.86 45.144-1.191 52.575.337 56.684c2.506 6.74 7.725-.308 10.847-3.586 1.048-1.1 2.118-2.173 3.196-3.242 7.062 6.154 21.023 11.127 25.379 13.55 11.51 6.403 19.834 13.01 32.984 15.96 13.854 3.109 25.692-3.35 39.177-4.712l16.63-40.144c-16.411-7.166-32.636-14.773-49.224-21.53" fill="#0051A1" mask="url(#b)"/>
    </g>
    <path d="M35.713 107.728c-2.273-1.952-2.886-5.198-1.655-7.915.715-1.574 1.996-2.766 3.687-3.207 2.245-.587 4.594.638 6.747 1.252.678.193 2.37.645 2.952.02.545-.59.142-1.028-.635-1.25-4.931-1.41-11.156-3.874-15.484.372-3.178 3.123-2.653 8.373.609 11.178.86.739 4.955.563 3.779-.45M445.128 315c2.565-4.345 4.768-9.383 6.528-14.827 6.575-20.33 7.017-46.349-2.584-63.242-13.669-24.043-31.374-35.742-53.841-50.964-24.1-16.326-49.754-31.615-76.02-44.135-12.553-5.987-24.49-13.268-37.589-18.062-13.343-4.884-27.145-8.029-40.282-13.542-6.993-2.933-84.568-31.807-84.747-31.469-.055.108-40.048 75.748-40.048 75.748 18.285 9.626 38.506 17.716 56.346 24.855l1.96.785c10.031 4.017 19.885 7.603 29.415 11.074 8.837 3.216 17.184 6.254 25.493 9.553 31.439 12.482 62.161 18.244 91.373 35.836 8.85 5.33 23.851 10.671 30.559 18.604" fill="#63B2FF"/>
    <g transform="translate(50.798 31)">
      <mask id="d" fill="#fff">
        <use xlink:href="#c"/>
      </mask>
      <path d="M71.763 9.665L62.393.09 4.097 56.887c.006-.002.015 0 .021-.002l-3.367 3.26 12.676 6.353 3.157-3.077L71.763 9.665z" fill="#0BF7F3" mask="url(#d)"/>
    </g>
    <g>
      <g transform="rotate(-62 319.143 155.705)">
        <mask id="f" fill="#fff">
          <use xlink:href="#e"/>
        </mask>
        <path d="M52.15 161.4c-6.739-9.473-12.778-18.387-17.713-29.21-1.591-3.494-3.66-6.575-4.97-10.255-1.254-3.54-2.79-6.775-4.514-10.131-2.566-4.994-3.59-10.552-5.18-15.89-1.968-6.598-4.909-12.846-7.524-19.202-2.489-6.054-3.851-12.49-6.554-18.482-4.571-10.122-11.83-17.573 4.017-20.293 1.021 5.71 4.305 11.092 5.997 16.551 1.779 5.734 4.803 11.103 8.287 16.022 2.632 3.714 8.883 7.27 7.494-.716a63.3 63.3 0 0 0-2.397-9.327c-1.661-4.923-3.03-9.772-4.351-14.922-1.204-4.686-2.626-9.647-4.767-13.968-2.258-4.562-3.011-10.191-4.523-15.064-.984-3.173-1.677-4.361 1.895-5.375 2.665-.754 5.018-2.18 7.77-2.66.06-.013 3.55 5.979 3.743 6.545.599 1.708.583 3.267 1.378 5.072 2.755 6.26 5.544 13.174 6.94 19.885 1.096 5.29 3.131 10.017 4.916 15.066.749 2.12 2.142 7.36 4.81 7.86 3.926.737 2.66-5.72 2.238-7.975-1.64-8.763-4.554-17.228-6.957-25.792-1.074-3.806-2.182-7.614-2.947-11.495-.317-1.629-.36-3.257-.628-4.869-.268-1.606-1.019-3.133-.856-4.81.119-1.25 5.527-3.699 6.535-3.959.193-.053 4.142.066 3.779-.586 1.32 2.382 2.038 5.122 3.125 7.606 1.103 2.525 2.166 5.606 2.908 8.266.556 2.006.935 4.058 1.512 6.065 1.351 4.695 2.595 9.424 4.124 14.068 1.092 3.327 1.5 6.805 2.457 10.175.563 1.955.997 4.033 1.725 5.924 3.627 1.236 3.73-11.247 3.651-13.058-.2-4.824.159-9.66-.193-14.576-.625-8.807-2.459-19.05-.561-27.862 3.743-.008 7.245.635 10.9.719-.68-.016 4.255 47.17 3.956 51.427-.288 4.064.715 7.888 1.2 11.96.299 2.544 1.448 4.324 2.17 6.676.92 3.004 1.692 6.034 2.812 8.978.665 1.757 1.253 3.7 2.389 5.21-.124-.163 3.86-7.51 4.201-8.344 1.22-2.973 2.305-6.01 3.632-8.945 2.306-5.11 5.315-9.823 7.954-14.74 2.613.463 5.535.77 7.945 1.953-.708 4.776-2.352 9.65-3.578 14.33-1.12 4.277-2.089 8.555-3.053 12.87-.946 4.245-1.944 8.157-2.377 12.503a978.022 978.022 0 0 1-1.18 11.167c-.411 3.726-.332 7.594-.642 11.36-.353 4.267-1.178 8.285-1.935 12.507-.73 4.031-1.706 8.499-1.376 12.62.135 1.68 1.004 3.187 1.371 4.817.388 1.75.582 3.586.82 5.362.387 2.894 1.238 5.783 1.951 8.587.31 1.225.493 2.415.916 3.579.324.906 1.041.991.495 2.012-.741 1.384-3.444 1.756-4.826 1.961-2.005.287-3.31.851-5.162 1.788-4.606 2.327-9.556 4.114-14.515 5.547-4.51 1.298-11.47 4.663-16.063 2.497-6.16-2.916-8.955-11.806-12.67-17.03" fill="#0051A1" mask="url(#f)"/>
      </g>
      <g transform="rotate(-62 412.814 48.623)">
        <mask id="h" fill="#fff">
          <use xlink:href="#g"/>
        </mask>
        <path d="M136.587 613.845c.278.765.56 1.524.849 2.28 4.226 11.039 8.407 23.992 11.25 35.597 8.196 33.465 41.526 9.974 57.456-4.77 14.942-13.839 28.532-31.733 36.837-50.45 10.716-24.146 2.417-56.378-10.815-78.37-3.826-6.359-8.321-12.586-10.957-19.444-5.572-14.507-9.028-32.084-12.562-47.423-1.618-7.019-5.923-13.63-7.909-20.83-1.985-7.205-1.166-16.167-3.984-23.517-3.702-9.662-12.267-39.652-23.22-39.773 2.088-16.32-3.17-32.369-5.969-47.732-3.28-17.993-3.208-32.454-10.982-48.834-8.705-18.342-13.118-39.491-17.801-59.22-10.278-43.253-26.027-84.473-39.164-126.842-4.112-13.263-3.98-26.946-10.846-39.083C87.34 42.903 60.482 1.292 68.395.221 63.682.86.425 23.403.145 22.829c7.05 14.45 13.69 34.477 14.134 50.579.514 18.666-10.211 36.067-10.824 54.742-.991 30.258 15.011 56.913 24.185 84.839 3.658 11.13 8.92 23.634 11.25 34.981 3.152 15.38-2.592 31.249.048 46.801 7.933 46.68 30.147 95.051 44.968 140.132 3.973 12.084 11.913 21.873 15.63 34.056 11.091 36.362 10.298 73.944 25.403 109.8 4.6 10.912 7.446 23.465 11.648 35.086" fill="#63B2FF" mask="url(#h)"/>
      </g>
    </g>
  </g>
</svg>
