<?xml version="1.0" encoding="UTF-8"?>
<svg width="1995px" height="615px" viewBox="0 0 1995 615" version="1.1" xmlns="http://www.w3.org/2000/svg" xmlns:xlink="http://www.w3.org/1999/xlink">
    <!-- Generator: Sketch 49.3 (51167) - http://www.bohemiancoding.com/sketch -->
    <title>scene</title>
    <desc>Created with Sketch.</desc>
    <defs></defs>
    <g id="scene" stroke="none" stroke-width="1" fill="none" fill-rule="evenodd">
        <g id="high-five" transform="translate(44.000000, 1.000000)">
            <g id="crowd">
                <g id="nine" transform="translate(1752.000000, 300.000000)" fill="#0002B9">
                    <path d="M0.994685943,312 C4.52363837,305.415441 7.71493439,298.672126 10.450151,291.779526 C15.0679072,280.163322 24.2006357,271.158168 29.0715914,259.754607 C36.7101925,241.855565 50.638669,227.927495 58.984223,210.493299 C67.3949571,192.923111 77.1143061,174.430649 86.8537105,157.421737 C97.1245831,139.473244 108.929694,122.429716 119.84986,104.864474 C128.952506,90.2193535 141.923337,76.5063979 149.717367,61.2530219 C155.718946,49.5181342 159.559555,37.3604345 167.143004,25.8480794 C172.450165,17.7923979 183.595954,10.6886616 184.142464,0.669747781 C189.16358,1.24864766 194.140619,2.95864199 199,5.33782421 L199,185.096675 C192.80901,194.377484 186.540967,203.612988 180.906024,213.208197 C171.164112,229.804186 161.835843,246.664743 153.698364,264.113774 C146.081306,280.43773 137.732385,296.363486 128.864247,312 L0.994685943,312 Z" id="Combined-Shape"></path>
                </g>
                <g id="eight" transform="translate(1619.000000, 7.452402)">
                    <path d="M59.4084507,181.034583 C51.7287551,170.409322 44.8513783,160.411984 39.2301319,148.268829 C37.4173928,144.350486 35.0580739,140.894433 33.5687696,136.765958 C32.1396391,132.798172 30.3870739,129.166597 28.4264072,125.401527 C25.502958,119.799656 24.3370884,113.564917 22.5243493,107.577392 C20.282871,100.175803 16.9306826,93.1672836 13.9545812,86.0376296 C11.1188855,79.2466589 9.5669,72.0280079 6.48800145,65.3062572 C1.28045072,53.9517147 -6.98844783,45.5934067 11.0612188,42.542785 C12.2270884,48.9481018 15.9679,54.9850695 17.8959725,61.1085622 C19.9218275,67.5410724 23.3667841,73.5632073 27.3357551,79.0810255 C30.3344217,83.2465827 37.4524942,87.2366179 35.872929,78.2775798 C35.2411029,74.7597235 34.3109145,71.1948965 33.1425377,67.8154801 C31.2495667,62.2927176 29.6875522,56.8540079 28.1857116,51.076615 C26.8142478,45.8208437 25.1945667,40.2560548 22.7550159,35.4081868 C20.1825812,30.2908554 19.3251029,23.9770079 17.6026246,18.5111047 C16.4818855,14.9536941 15.6921029,13.6187381 19.7613638,12.4815534 C22.7951319,11.6360812 25.4778855,10.0366062 28.6094362,9.49767947 C28.6796391,9.48284663 32.6561319,16.2045974 32.8767696,16.8399375 C33.5587406,18.7558466 33.5411899,20.5036501 34.4463058,22.5283334 C37.5853783,29.5516853 40.7620594,37.3067909 42.3516536,44.8344595 C43.6002623,50.7675974 45.9194652,56.0703393 47.952842,61.7340138 C48.8053058,64.1122132 50.3923928,69.9909639 53.4311754,70.554612 C57.9041029,71.3778349 56.4624362,64.1344625 55.9810449,61.6054625 C54.1131464,51.7762308 50.7935522,42.2807381 48.0556391,32.6739991 C46.8321029,28.404612 45.570958,24.1327528 44.6984362,19.7793129 C44.3373928,17.9524009 44.2897551,16.1254889 43.983871,14.318354 C43.677987,12.5161633 42.8230159,10.8029698 43.0085522,8.92167067 C43.1439435,7.51996686 49.3042478,4.77589062 50.4525667,4.48170587 C50.6732043,4.42237449 55.1712043,4.55587009 54.7575087,3.82411642 C56.2618565,6.49650059 57.0792188,9.56937155 58.3152913,12.3554742 C59.573929,15.1885475 60.784929,18.6446003 61.629871,21.6284742 C62.2616971,23.8781223 62.6929435,26.1796853 63.3523493,28.4318056 C64.8917985,33.6974654 66.3083928,39.0026795 68.050929,44.2114801 C69.2945232,47.9444126 69.7583638,51.8454507 70.8490159,55.625354 C71.490871,57.8181428 71.9847985,60.1493716 72.8121899,62.2704683 C76.9466391,63.6573393 77.0644797,49.655134 76.9742188,47.6230343 C76.7460594,42.2115182 77.1547406,36.7876413 76.7535812,31.2747674 C76.0390159,21.3936208 73.952987,9.90311056 76.1142333,0.0194917889 C80.3790594,0.00960322581 84.3680884,0.731468328 88.5326246,0.825409677 C87.7553783,0.808104692 93.3791319,53.7366384 93.0381464,58.5128144 C92.7096971,63.0714419 93.8530014,67.3606062 94.4045957,71.9291223 C94.7455812,74.7819727 96.0543638,76.7794625 96.8767406,79.4172367 C97.9247696,82.7892367 98.804813,86.1859581 100.081001,89.4887381 C100.83819,91.4590343 101.507625,93.6394625 102.801364,95.3328789 C102.660958,95.1499405 107.199074,86.9078232 107.587697,85.973354 C108.976712,82.6384361 110.212784,79.2318261 111.724654,75.9389346 C114.349741,70.2085123 117.779654,64.9206032 120.785842,59.4052572 C123.761943,59.9244067 127.091567,60.2680343 129.834494,61.5955739 C129.029668,66.9527029 127.156755,72.4210783 125.760219,77.6694331 C124.48403,82.4678584 123.380842,87.2662836 122.282668,92.1067352 C121.204552,96.8680783 120.06877,101.256128 119.574842,106.133662 C119.151117,110.321468 118.70232,114.482081 118.230958,118.657527 C117.762103,122.837917 117.849857,127.176524 117.498842,131.401413 C117.095175,136.189949 116.157465,140.69419 115.294972,145.430811 C114.462567,149.952357 113.351857,154.965858 113.727943,159.586289 C113.880886,161.470061 114.871248,163.161005 115.287451,164.990389 C115.731233,166.953269 115.949364,169.015034 116.222654,171.005108 C116.663929,174.251028 117.631726,177.492005 118.446581,180.636568 C118.800103,182.011078 119.008204,183.346034 119.489596,184.653797 C119.858161,185.667374 120.675523,185.763788 120.053726,186.908389 C119.206277,188.460894 116.127378,188.878685 114.555335,189.108594 C112.268726,189.429973 110.784436,190.062841 108.675842,191.115973 C103.428175,193.724081 97.7893783,195.73146 92.1405522,197.335879 C87.0006971,198.79197 79.0727841,202.566929 73.8426681,200.136814 C66.8248855,196.866172 63.6406826,186.893556 59.4084507,181.034583" id="Fill-4" fill="#000000"></path>
                    <path d="M131.470335,604.547598 C116.908464,565.772995 101.171255,525.742795 94.4484725,486.764478 C91.4422841,469.330941 97.9811826,451.538944 94.393313,434.295762 C91.7431536,421.574126 85.7558493,407.557088 81.5938203,395.077721 C71.1561536,363.770531 52.9485304,333.887293 54.0767913,299.964578 C54.7712986,279.028018 66.9765739,259.520355 66.3898783,238.593683 C65.8859217,220.542111 58.3290812,198.090129 50.3109072,181.890191 C50.6293275,182.532947 122.602342,157.260252 127.962835,156.543331 C118.96182,157.744792 149.520139,204.394088 151.147342,207.232106 C158.959922,220.838768 158.809487,236.180874 163.488009,251.048328 C178.436212,298.548041 196.355501,344.759768 208.049299,393.250809 C213.377197,415.369053 218.396704,439.079355 228.302835,459.642622 C237.1484,478.005683 237.065661,494.217982 240.798951,514.390651 C243.983154,531.614056 249.965443,549.606296 247.591081,567.90261 C257.75897,568.013556 266.118935,590.419478 271.139903,604.547598 L131.470335,604.547598 Z" id="Combined-Shape" fill="#2CEDD1"></path>
                </g>
                <g id="seven" transform="translate(1493.000000, 340.000000)">
                    <path d="M114.685585,181.205789 C122.189687,170.469398 128.902038,160.368195 134.326539,148.146407 C136.080419,144.206764 138.383013,140.712 139.803656,136.564748 C141.174188,132.573203 142.862925,128.915317 144.769643,125.123967 C147.600907,119.478959 148.668268,113.228423 150.38206,107.215154 C152.268734,100.606244 153.453856,93.0952195 157.237226,87.1684553 C159.437093,83.7255935 161.003058,80.0158049 162.258335,76.1107642 C163.230486,73.0757073 164.969333,70.3075772 165.941483,67.2749919 C166.78084,64.6551545 166.126894,62.0995772 166.75829,59.3882927 C164.671173,58.5207805 161.356339,54.0794146 158.93849,54.9271545 C156.535674,55.7674797 155.433235,59.6329756 154.691594,61.7288455 C153.641772,64.6922276 152.241173,67.3565528 150.715297,70.1370407 C149.465031,72.4158049 148.229798,74.9219512 146.756539,77.1043252 C145.438623,79.0519024 142.795275,83.864 140.202038,84.0716098 C137.130242,84.3162927 136.19818,80.5496585 136.589044,78.1250732 C137.157803,74.5981789 138.037248,71.0267967 139.147204,67.6284228 C140.956206,62.084748 142.429466,56.6201626 143.842592,50.8194472 C145.130441,45.5476423 146.663834,39.9570081 149.02155,35.0757073 C151.514565,29.920065 152.266228,23.5953821 153.902348,18.1060813 C154.96971,14.5322276 155.738911,13.1877073 151.649865,12.1150569 C148.603124,11.3118049 145.90716,9.75720325 142.765208,9.26536585 C142.692548,9.25300813 138.829,16.0349268 138.618534,16.6651707 C137.967093,18.5954472 138.012193,20.3453008 137.137758,22.3793821 C134.108557,29.4504715 131.061816,37.2481951 129.593568,44.7987642 C128.436007,50.7453008 126.198557,56.0838374 124.256761,61.7733333 C123.444965,64.1682602 121.94665,70.0678374 118.922459,70.6708943 C114.462592,71.568065 115.79053,64.3041951 116.234011,61.7733333 C117.942792,51.9143415 121.107293,42.3717073 123.70053,32.7302114 C124.850574,28.4396098 126.043213,24.1539512 126.844987,19.7842602 C127.180729,17.9528455 127.203279,16.126374 127.476384,14.3221463 C127.754499,12.5129756 128.581328,10.7853659 128.368357,8.90699187 C128.210508,7.50809756 122.011794,4.85365854 120.859244,4.58178862 C120.641262,4.52988618 116.146317,4.73255285 116.547204,3.98861789 C115.086472,6.69001626 114.319776,9.76708943 113.127137,12.5747642 C111.914455,15.4269268 110.759399,18.8994472 109.965142,21.8949593 C109.361306,24.1514797 108.967936,26.462374 108.346561,28.7213659 C106.895851,34.008 105.560397,39.3317073 103.901727,44.5639675 C102.7141,48.3182439 102.315718,52.2232846 101.278424,56.0171057 C100.679599,58.2241951 100.218579,60.5598049 99.421816,62.6902764 C95.3177361,64.1435447 94.9819933,50.147187 95.0346098,48.1155772 C95.1824368,42.6979512 94.6888448,37.2852683 94.9995322,31.7663089 C95.5582683,21.8801301 97.4624812,10.3553171 95.1523703,0.516097561 C90.8879357,0.568 86.9141441,1.35147967 82.7574479,1.50965854 C83.5291552,1.48 78.7410621,54.4773333 79.1569823,59.2449431 C79.5528581,63.7925854 78.4829911,68.0980163 78.0044324,72.6753171 C77.7062727,75.5324228 76.4259401,77.5516748 75.6467162,80.2011707 C74.6570266,83.5847154 73.8276918,86.9954472 72.6099978,90.3147317 C71.8783792,92.2969106 71.2444767,94.4891707 69.9766718,96.2019512 C70.1169823,96.0141138 65.4566718,87.8481301 65.0532794,86.9188293 C63.6100865,83.6020163 62.3197317,80.2184715 60.7612838,76.9486179 C58.0477805,71.259122 54.5350089,66.0243902 51.4431685,60.5622764 C48.4791109,61.118374 45.1567605,61.5212358 42.4357406,62.8855285 C43.327714,68.2265366 45.2795322,73.668878 46.7628137,78.8961951 C48.1133016,83.668748 49.2909069,88.451187 50.4635011,93.2731707 C51.6185565,98.011122 52.8162062,102.378341 53.3874701,107.252228 C53.8785565,111.43161 54.3921929,115.586276 54.9283792,119.753301 C55.4645654,123.92774 55.43951,128.262829 55.8604412,132.481756 C56.3314834,137.259252 57.3437228,141.747577 58.2833016,146.465756 C59.180286,150.976325 60.3754302,155.971317 60.0697539,160.598049 C59.9419712,162.478894 58.9873592,164.18426 58.599,166.018146 C58.1830798,167.990439 57.9976696,170.051707 57.7546319,172.051187 C57.3612616,175.301268 56.4467384,178.561236 55.6850532,181.712455 C55.351816,183.091577 55.1664058,184.428683 54.7053858,185.743545 C54.3495987,186.761821 53.5378027,186.873041 54.1767162,188.002537 C55.0461397,189.54478 58.1304634,189.917984 59.7064501,190.115707 C61.9940111,190.404878 63.4873149,191.022764 65.60951,192.033626 C70.8937007,194.562016 76.563745,196.48735 82.2337894,198.002407 C87.3851863,199.381528 95.367847,203.036943 100.556827,200.520911 C107.517226,197.147252 110.543922,187.132553 114.685585,181.205789" id="Fill-7" fill="#5793FB"></path>
                    <path d="M0.636451591,272 C4.00417611,264.262407 7.0036267,257.052091 9.7105898,251.019512 C12.8024302,244.133789 17.0618537,237.717659 19.8680621,230.715772 C26.818439,213.385301 26.5077517,194.292618 33.3503902,176.465366 C37.0686164,166.771967 39.2058448,158.213008 40.4836718,148.193366 C70.4324302,152.686634 111.543384,173.09665 138.936488,185.884423 C135.999991,184.515187 127.571344,223.165203 126.654315,227.389073 C123.460915,242.144652 119.066681,257.221213 114.835536,272 L0.636451591,272 Z" id="Combined-Shape" fill="#BD10E0"></path>
                </g>
                <g id="six" transform="translate(1197.000000, 381.000000)">
                    <path d="M112.831306,126.808393 C96.1789489,128.205147 64.5993994,141.487908 57.6235135,129.144557 C55.4018619,125.196563 61.0462613,90.5694223 60.304039,90.393901 C46.2018168,87.1207993 21.7962462,76.708183 11.5530781,67.4129698 C-6.99495495,50.5629239 0.673003003,33.3593633 9.00043544,15.6391272 C14.3188589,18.237337 15.6077177,15.3943862 17.719039,22.8849436 C17.7491291,15.6589043 17.4958709,8.3760059 18.1127177,1.27357311 C27.387988,-0.303646557 37.6637538,0.480019016 44.6496697,6.15603213 C55.1310511,-8.34301705 83.2126276,9.13989443 93.9372372,4.0028059 C106.981291,15.7602616 116.186351,48.3553108 117.898979,63.9396256 C120.100571,84.0751338 112.038934,105.911468 112.831306,126.808393" id="Fill-1" fill="#5793FB"></path>
                    <path d="M90.4661155,21.0037441 C90.3806691,20.9802778 90.3703119,21.282732 90.4376334,21.3244499 C94.7954007,23.9631025 84.210402,33.2844296 82.7552236,34.131823 C73.7004925,39.3804472 74.8760281,25.6526745 75.4508494,20.3623325 C75.5984387,19.0195399 74.5057603,15.6899358 73.6254032,18.4954597 C69.5187966,31.5348882 56.7821017,49.8020821 52.3803165,27.7281364 C52.1964772,26.1246074 51.9323701,24.5836552 51.6164773,23.19393 C50.4046917,17.817545 47.9552277,23.3060467 47.849067,26.7138718 C47.812817,26.7347307 47.7791563,26.758197 47.7429063,26.7790559 C49.7858525,39.808055 35.3039793,37.9594337 33.1315688,25.6865702 C33.1315688,23.4520591 33.0098724,21.4600328 32.8260331,20.0103383 C32.1554082,14.7851804 29.1466586,17.1552745 28.9317479,21.1184681 C28.8644265,22.2761378 28.8825515,23.7727649 28.9835336,25.4284412 C28.4164801,31.2011456 24.2658556,35.2190939 19.0225527,37.531826 C17.5880885,38.1628081 17.7745171,42.0112778 18.8904991,42.8247754 C26.0136232,48.018645 29.7551406,44.2692552 31.5831761,38.2279922 C33.6908545,43.6408804 37.243354,47.8178779 43.0200498,46.8635826 C47.8749599,46.0579071 50.4720132,42.8795301 51.7019237,38.8746186 C55.0550483,45.5625079 60.2439763,50.2010088 66.7793326,41.4637313 C69.4721894,37.8525318 71.7145106,33.8111172 73.2447783,29.5272178 C73.2758497,29.993936 73.2862068,30.4684763 73.332814,30.9404092 C73.4493318,32.7134169 73.9853139,34.2726207 74.5549567,35.9309043 C78.8505812,48.4749337 97.3950432,23.3034393 90.4661155,21.0037441" id="Fill-1" fill="#095FEA" transform="translate(55.000000, 32.000000) scale(-1, 1) translate(-55.000000, -32.000000) "></path>
                    <path d="M152.652249,231 L53.6749084,231 C52.8754809,212.566422 49.433516,195.591693 45.832461,177.010207 C41.6499384,155.438391 23.3727162,131.871565 28.2197282,109.760824 C29.1249384,105.629892 97.2137973,94.2259515 104.839128,91.1605089 C112.707686,87.996181 122.038122,83.5339843 130.882101,85.0419843 C150.796725,88.4362203 147.017911,139.362122 149.560524,154.039165 C152.697416,172.159886 149.472761,190.834365 150.774158,209.165217 C151.291587,216.447273 151.932201,223.724993 152.652249,231 Z" id="Combined-Shape" fill="#E4EEFE"></path>
                </g>
                <g id="five" transform="translate(1155.000000, 429.000000)">
                    <path d="M41.9946191,122.872472 C57.1790651,124.222503 85.9786219,137.050274 92.3386911,125.129942 C94.3617798,121.314744 89.2150623,87.8680883 89.8944391,87.6999525 C102.752458,84.539989 125.011447,74.4815138 134.349744,65.5010856 C151.266475,49.2290047 144.274661,32.6107619 136.681184,15.4930569 C131.832791,18.0027305 130.652029,15.2581614 128.729217,22.4904721 C128.704148,15.5128376 128.929771,8.4758611 128.370727,1.6169107 C119.914868,0.0937984334 110.543982,0.850409399 104.168871,6.33460261 C94.6149792,-7.67011802 68.9967105,9.21763655 59.2247161,4.25268616 C47.326849,15.6092684 38.9336634,47.095164 37.371849,62.145788 C35.3638019,81.5976131 42.7141066,102.688762 41.9946191,122.872472" id="Fill-1" fill="#0002B9"></path>
                    <path d="M0.721196853,183.31377 C3.82984645,152.627776 9.25402314,101.883997 9.58032687,101.876765 C9.72071468,101.87182 109.827252,99.4041802 109.827252,99.4041802 C110.431421,123.220117 108.420867,148.245149 106.650978,170.322859 L106.455438,172.748465 C106.171228,176.303391 105.857636,179.825082 105.524073,183.31377 L0.721196853,183.31377 Z" id="Combined-Shape" fill="#2CEDD1"></path>
                    <path d="M128.466115,18.0037441 C128.380669,17.9802778 128.370312,18.282732 128.437633,18.3244499 C132.795401,20.9631025 122.210402,30.2844296 120.755224,31.131823 C111.700493,36.3804472 112.876028,22.6526745 113.450849,17.3623325 C113.598439,16.0195399 112.50576,12.6899358 111.625403,15.4954597 C107.518797,28.5348882 94.7821017,46.8020821 90.3803165,24.7281364 C90.1964772,23.1246074 89.9323701,21.5836552 89.6164773,20.19393 C88.4046917,14.817545 85.9552277,20.3060467 85.849067,23.7138718 C85.812817,23.7347307 85.7791563,23.758197 85.7429063,23.7790559 C87.7858525,36.808055 73.3039793,34.9594337 71.1315688,22.6865702 C71.1315688,20.4520591 71.0098724,18.4600328 70.8260331,17.0103383 C70.1554082,11.7851804 67.1466586,14.1552745 66.9317479,18.1184681 C66.8644265,19.2761378 66.8825515,20.7727649 66.9835336,22.4284412 C66.4164801,28.2011456 62.2658556,32.2190939 57.0225527,34.531826 C55.5880885,35.1628081 55.7745171,39.0112778 56.8904991,39.8247754 C64.0136232,45.018645 67.7551406,41.2692552 69.5831761,35.2279922 C71.6908545,40.6408804 75.243354,44.8178779 81.0200498,43.8635826 C85.8749599,43.0579071 88.4720132,39.8795301 89.7019237,35.8746186 C93.0550483,42.5625079 98.2439763,47.2010088 104.779333,38.4637313 C107.472189,34.8525318 109.714511,30.8111172 111.244778,26.5272178 C111.27585,26.993936 111.286207,27.4684763 111.332814,27.9404092 C111.449332,29.7134169 111.985314,31.2726207 112.554957,32.9309043 C116.850581,45.4749337 135.395043,20.3034393 128.466115,18.0037441" id="Fill-1" fill="#095FEA"></path>
                </g>
                <g id="four" transform="translate(559.000000, 380.000000)">
                    <path d="M61.4921667,123.798349 C78.2824369,126.972565 108.828893,143.825083 117.429644,131.988519 C120.172857,128.201214 118.63074,92.3429521 119.408068,92.2415948 C134.164749,90.3949128 160.287962,82.3604866 171.845065,73.9725456 C192.782752,58.7664669 187.058113,40.4380866 180.736686,21.5163948 C175.004524,23.6004013 174.034119,20.5695685 170.972452,27.9736013 C171.822497,20.616539 172.963413,13.2223948 173.201626,5.92466361 C163.943908,3.34128656 153.382287,3.05946361 145.578923,8.10261115 C136.667242,-7.76599869 105.942752,7.08409311 95.6494339,0.720827541 C80.9353799,11.3213259 67.60547,43.5480275 63.9670766,59.2386439 C59.2780375,79.5125915 64.8371817,102.599824 61.4921667,123.798349" id="Fill-7" fill="#5793FB"></path>
                    <path d="M0.90971123,232 C1.28979573,230.293791 1.66521396,228.591289 2.0354024,226.892645 C6.22293994,207.669353 7.4792012,188.668553 13.6551922,170.102849 C17.4615886,158.661826 21.7042913,147.396324 26.0924294,135.940468 C30.8566937,123.513065 31.7844715,107.187111 38.0582553,96.2429862 C57.5967538,96.2355698 73.0831201,92.4705141 92.3157027,97.6273797 C109.951003,102.356567 126.987009,103.988173 144.093225,108.314403 C146.575658,119.055812 141.520523,130.197708 139.023045,140.563353 C131.53518,171.622739 129.487945,201.824858 120.672562,232 L0.90971123,232 Z" id="Combined-Shape" fill="#E4EEFE"></path>
                    <path d="M170.466115,30.0037441 C170.380669,29.9802778 170.370312,30.282732 170.437633,30.3244499 C174.795401,32.9631025 164.210402,42.2844296 162.755224,43.131823 C153.700493,48.3804472 154.876028,34.6526745 155.450849,29.3623325 C155.598439,28.0195399 154.50576,24.6899358 153.625403,27.4954597 C149.518797,40.5348882 136.782102,58.8020821 132.380316,36.7281364 C132.196477,35.1246074 131.93237,33.5836552 131.616477,32.19393 C130.404692,26.817545 127.955228,32.3060467 127.849067,35.7138718 C127.812817,35.7347307 127.779156,35.758197 127.742906,35.7790559 C129.785853,48.808055 115.303979,46.9594337 113.131569,34.6865702 C113.131569,32.4520591 113.009872,30.4600328 112.826033,29.0103383 C112.155408,23.7851804 109.146659,26.1552745 108.931748,30.1184681 C108.864426,31.2761378 108.882551,32.7727649 108.983534,34.4284412 C108.41648,40.2011456 104.265856,44.2190939 99.0225527,46.531826 C97.5880885,47.1628081 97.7745171,51.0112778 98.8904991,51.8247754 C106.013623,57.018645 109.755141,53.2692552 111.583176,47.2279922 C113.690854,52.6408804 117.243354,56.8178779 123.02005,55.8635826 C127.87496,55.0579071 130.472013,51.8795301 131.701924,47.8746186 C135.055048,54.5625079 140.243976,59.2010088 146.779333,50.4637313 C149.472189,46.8525318 151.714511,42.8111172 153.244778,38.5272178 C153.27585,38.993936 153.286207,39.4684763 153.332814,39.9404092 C153.449332,41.7134169 153.985314,43.2726207 154.554957,44.9309043 C158.850581,57.4749337 177.395043,32.3034393 170.466115,30.0037441" id="Fill-1" fill="#095FEA"></path>
                </g>
                <g id="three" transform="translate(394.000000, 231.000000)">
                    <path d="M58.8451126,135.390575 C56.7260791,128.396713 54.4390276,121.892521 51.4899348,115.08414 C48.1471281,107.249432 43.9090611,100.285248 42.702842,91.7036708 C41.4991307,83.2927362 40.3606204,74.9139515 39.5305611,66.40904 C38.7055173,57.8472477 38.2089863,47.53699 39.156909,39.0543362 C41.448976,38.9232631 44.0319399,39.3436862 46.2562982,40.0163631 C48.2123291,40.6074285 48.6587054,41.5645092 48.9195095,43.6196362 C49.6442441,49.3571746 50.0830972,55.0749285 51.0435585,60.8001015 C51.5902441,64.0695092 52.2021307,67.3290246 52.8240482,70.5934862 C53.3431487,73.3064515 53.0698059,75.7127554 54.238409,78.3713131 C55.0985611,80.3126785 56.4126126,81.7668477 56.7611874,78.7472208 C56.9668214,76.9666054 57.1549013,75.1909362 57.3028575,73.4029015 C57.6765095,68.9216862 57.8545585,64.4231592 58.000007,59.9246323 C58.4589219,45.2568131 59.562324,30.7101746 59.3140585,16.0448285 C59.2864735,14.1455054 59.4193832,12.2857515 59.4519838,10.3814823 C59.4795688,8.66022077 59.3015198,6.88207846 59.6049554,5.18307462 C59.870775,3.66213231 59.692726,1.05550923 61.3202441,0.227028462 C62.7972982,-0.524786923 65.9394863,0.845297692 67.5970972,0.835405385 C70.2502776,0.820566923 71.0527518,0.249286154 71.5944219,3.33074 C72.1837389,6.63477077 71.2985095,10.1391208 71.3461564,13.4604631 C71.4113575,17.83039 71.1731229,22.2769823 71.2107389,26.6889515 C71.2333085,29.5132054 70.3204941,49.1469631 73.0940456,50.0620015 C74.1222157,50.4008131 77.0412157,45.4497131 78.0367853,44.5989746 C80.1658497,42.7862092 82.8867389,41.0031208 85.8107544,41.0995708 C92.1151925,41.3023631 91.6512621,48.7784746 93.2160869,53.0939938 C94.4599219,49.2310477 98.1864116,45.7069131 102.281538,44.9031631 C106.35911,44.1043592 106.920842,47.7793515 108.267494,50.8286554 C111.828473,58.8760477 111.005937,48.75869 113.313051,46.5848554 C115.088525,44.9105823 118.539164,46.1941092 120.507734,46.9830208 C127.05793,49.6020092 125.385272,55.1590131 126.257963,60.6418246 C127.409012,67.8805208 126.57143,74.9040592 126.112515,82.2317862 C125.470535,92.4258092 124.056174,102.604994 121.917079,112.598698 C118.481486,128.646494 116.206973,145.035575 115.269082,161.565621 C114.581963,173.79004 112.768873,187.87174 109.365881,199.44574 C103.90404,202.289778 89.7228162,203.62524 78.0994786,201.770432 C70.7041771,200.605613 64.3495843,198.12759 61.9020379,193.94809 C58.7899425,188.571621 62.5013858,180.259609 63.2461822,174.779271 C65.0517492,161.160036 62.8875765,148.599278 58.8451126,135.390575" id="Fill-1" fill="#000000"></path>
                    <path d="M125.118701,63.6641719 C124.346319,69.3670873 122.08936,83.0456758 114.618827,83.6342681 C105.132077,84.3836104 109.342559,65.3631758 109.445376,60.3675604 C109.465438,59.3387604 108.645409,58.8515642 107.83792,58.8837142 C107.045476,58.0972758 105.202293,58.458345 105.056845,59.9545565 C104.605453,64.6187796 103.441865,69.228595 102.115275,73.7147565 C101.139768,77.0138412 94.3488294,92.0699335 91.1088397,82.1603142 C90.0430536,78.8909065 90.1634247,75.3593527 90.7176335,71.7808104 C92.4931077,65.5066142 93.4610923,59.5366065 93.5639093,57.4814796 C93.6667263,55.4535565 90.6524325,55.5524796 90.4292443,57.4814796 C90.1057469,60.2735835 88.3854428,66.3054181 87.5378294,72.3001565 C85.6219222,78.2850027 82.7681232,84.0151219 78.9262778,86.6662604 C74.0362005,90.0370642 74.4875923,69.9779373 74.6882108,68.5954873 C75.5107469,62.9173027 77.1207108,57.3751373 78.0435562,51.7093181 C78.3595304,49.7605335 75.3402211,48.9246335 75.0192314,50.8882565 C73.6475021,59.326395 71.0896155,67.5196988 70.9090588,76.1185873 C70.8162727,80.5404488 72.2832959,88.9637488 77.7351052,89.933195 C81.5970124,90.6207104 84.7943706,86.6984104 87.2845485,81.3367796 C87.7835871,84.7323142 89.2330562,87.3216258 92.3601979,88.0808604 C99.2288758,89.7452412 103.173538,82.7860027 105.433005,75.1095719 C105.68127,81.0548488 107.454237,86.3150835 113.796291,86.6810988 C124.243502,87.2771104 127.240242,71.1427565 128.253365,63.6641719 C128.519185,61.6931296 125.382012,61.7203335 125.118701,63.6641719" id="Fill-3" fill="#095FEA"></path>
                    <path d="M116.638327,381 L0.837528407,381.000012 C0.864813215,379.065427 0.924896522,377.164571 1.0491634,375.315638 C2.90237732,347.696315 6.8319933,320.198172 13.4172974,293.281203 C18.6083026,272.072095 20.6295345,249.527526 22.8263077,227.734772 C24.7823387,208.321118 24.8901711,182.032311 32.6691557,163.783476 C35.6057098,156.999826 64.1712845,160.956749 70.6638026,160.946857 C83.1071686,160.932018 95.5354881,161.654157 107.973839,161.963292 C117.721393,162.205653 129.071388,159.853757 138.515506,161.352442 C139.829558,167.08998 137.532475,172.904184 137.50489,178.698603 C137.47229,186.199445 137.537491,193.705234 137.539998,201.208549 C137.542506,213.331572 137.575107,225.449649 137.570091,237.570199 C137.562568,249.735265 136.36638,261.670334 135.084929,273.28143 C132.644906,295.378372 131.63429,316.421784 126.485916,338.026584 C123.049527,352.445366 120.043251,366.796083 116.638325,381.000012 L116.638327,381 Z" id="Combined-Shape" fill="#7EBFFF"></path>
                </g>
                <g id="two" transform="translate(154.616408, 0.701919)">
                    <path d="M63.3586674,119.653398 C68.9335011,107.824585 74.34798,96.9918049 82.2680022,86.1787967 C84.8236563,82.6914472 86.7078248,78.9618862 89.6092439,75.6450732 C92.3979135,72.4567805 94.7355854,69.1622114 97.0832794,65.6204878 C100.573501,60.3511545 105.496894,56.2681626 109.876583,51.760065 C114.694743,46.8021463 120.657936,41.9851057 123.910131,35.7642276 C125.79931,32.1434146 128.244721,28.9304065 131.020863,25.8829919 C135.600996,20.8533984 139.221506,15.5123902 144.465608,11.1377561 C145.365098,12.0596423 146.374831,12.9073821 147.469754,13.5994146 C148.44441,14.2148293 149.649576,14.3779512 150.321062,15.3369106 C151.601395,17.1609106 149.439111,18.7748293 148.597248,20.2923577 C146.347271,24.340748 144.625962,28.5745041 142.543856,32.6673821 C141.554166,34.6149593 140.131018,36.2387642 139.131306,38.1517398 C137.745741,40.8185366 134.037537,45.3983089 135.265253,48.6558049 C136.367692,51.5771707 140.504344,50.1733333 142.28829,48.7225366 C145.079466,46.451187 147.75288,43.8906667 150.160707,41.2213984 C154.084388,36.8690081 158.10829,32.8453333 162.457914,28.6980813 C166.411661,24.9339187 170.515741,20.7891382 173.582525,16.3106992 C176.822193,11.5752195 181.961062,7.7220813 185.929843,3.54764228 C188.510552,0.828943089 189.292282,-0.508162602 192.30645,2.42061789 C194.551417,4.60546341 197.279953,6.11063415 199.301927,8.52533333 C199.349532,8.58465041 195.388268,15.3097236 194.944787,15.8089756 C193.589288,17.3413333 192.038357,18.1915447 190.702902,19.9661138 C186.067647,26.1276748 180.800996,32.6772683 174.953058,37.7562927 C170.340353,41.7577236 166.815053,46.369626 162.826228,50.9098537 C161.152525,52.8129431 156.757803,57.0788293 157.762525,59.9557073 C159.243302,64.1993496 164.915851,59.387252 166.902747,57.726374 C174.644876,51.2706992 181.374765,43.7374309 188.480486,36.6440976 C191.644987,33.487935 194.784432,30.2971707 198.194477,27.3980488 C199.620131,26.1845203 201.208645,25.2379187 202.644322,24.0886504 C204.085009,22.934439 205.172415,21.3575935 206.921284,20.584 C208.224166,20.0081301 213.688756,23.9329431 214.510574,24.7683252 C214.668424,24.9289756 216.77308,28.8537886 217.216561,28.1370407 C215.602991,30.7445203 213.300397,32.9614959 211.456317,35.398439 C209.57716,37.8749268 207.131749,40.620813 204.919355,42.8180163 C203.250663,44.4739512 201.434144,45.979122 199.77798,47.6523577 C195.891882,51.5746992 191.923102,55.4105366 188.189843,59.4737561 C185.513922,62.3901789 182.306827,64.7109593 179.518157,67.5161626 C177.897071,69.1473821 176.090574,70.7217561 174.632348,72.4790244 C175.44665,76.7078374 187.844078,69.8888455 189.590441,68.8161951 C194.245741,65.9417886 199.226761,63.611122 203.889576,60.5464065 C212.240552,55.0546341 221.33818,47.5880976 231.112304,44.5555122 C233.226982,48.2059837 234.559931,51.9825041 236.531794,55.598374 C236.165984,54.9261138 192.301439,85.889626 187.926761,87.9583089 C183.75002,89.9281301 180.535408,93.0249756 176.779599,95.753561 C174.436916,97.4564553 173.321949,99.5671545 171.400197,101.574049 C168.947271,104.134569 166.389111,106.571512 164.109067,109.292683 C162.748557,110.921431 161.155031,112.569951 160.298135,114.517528 C160.395851,114.300033 169.896871,114.117138 170.911616,113.988618 C174.542149,113.531382 178.150131,112.911024 181.795696,112.577366 C188.144743,111.996553 194.4988,112.325268 200.84033,112.181919 C201.855075,114.982179 203.19053,118.012293 203.380951,121.017691 C198.262126,122.970211 192.516916,124.067577 187.200153,125.466472 C182.34441,126.739317 177.568845,128.165398 172.765718,129.613724 C168.037758,131.037333 163.612969,132.236033 159.067914,134.223154 C155.169288,135.92852 151.27818,137.599285 147.364521,139.260163 C143.450863,140.921041 139.672503,143.142959 135.776384,144.924943 C131.359111,146.946667 126.926805,148.367805 122.329133,149.964423 C117.931905,151.486894 112.963412,153.006894 109.077315,155.619317 C107.501328,156.674667 106.4941,158.357789 105.08849,159.618276 C103.577647,160.972683 101.871373,162.173854 100.24778,163.394797 C97.6069379,165.376976 95.2266718,167.806504 92.8589335,170.060553 C91.8266497,171.039285 90.7542772,171.877138 89.8347428,172.937431 C89.1256741,173.755512 89.4413725,174.499447 88.1259623,174.534049 C86.3420155,174.578537 84.4478248,172.144065 83.4781796,170.90335 C82.0650532,169.106537 80.7696874,168.147577 78.807847,166.862374 C73.9145211,163.649366 69.361949,159.811057 65.1576475,155.757724 C61.3417051,152.077593 54.0956741,147.149333 53.657204,141.462309 C53.0734124,133.83265 60.2818603,126.180748 63.3586674,119.653398" id="Fill-1" fill="#2CEDD1"></path>
                    <path d="M388.031077,611.298083 L133.921169,611.298081 C118.482191,596.030158 102.344065,583.282636 89.4326031,565.275876 C78.0023149,549.32947 63.1043548,537.080494 51.9922705,520.587876 C39.877969,502.607389 30.7628027,485.254673 24.5716053,464.439324 C19.5279468,447.484527 11.9887672,431.34534 8.35572949,413.987681 C4.96572949,397.804007 3.42231486,381.855128 2.31987583,365.29825 C-0.0779290466,329.290315 -0.671742794,293.015454 2.99136142,257.071779 C5.78003104,229.724137 16.553867,204.623128 21.6952417,178.004592 C23.394,169.198478 24.2483902,160.637047 26.9643991,152.048429 C28.8936674,145.941242 30.1013392,139.589372 32.1132905,133.506901 C33.4287007,129.530185 35.8114723,125.563356 36.3977694,121.470478 C38.6377251,121.084917 42.0252195,124.898511 44.3628914,126.16147 C56.4195654,132.681405 71.029388,134.201405 82.7528248,141.440559 C87.8390776,144.581893 93.4114058,147.248689 98.2120266,150.768169 C102.822226,154.146771 106.174643,153.333633 111.461339,155.48882 C115.465197,157.124982 117.850475,160.832299 121.278058,163.279128 C125.492381,166.286998 132.690807,168.150543 136.181029,171.655193 C139.904266,175.389698 134.489787,182.851291 132.49788,188.024234 C131.092271,191.674706 130.285486,195.545145 129.606483,199.452657 C126.785242,215.722836 120.105463,231.179876 117.925641,247.692267 C116.489965,258.569535 117.587392,270.556527 114.94655,281.13721 C110.870031,297.469177 115.307348,314.295454 111.777038,330.246803 C105.523202,358.499031 111.589122,389.620722 124.324798,415.576885 C142.254466,452.116202 168.728035,485.160754 200.621095,510.061567 C227.954067,531.400885 252.568523,556.75399 284.459078,571.674706 C292.779987,575.567389 299.813047,580.334998 307.665419,584.937015 C312.929565,588.019031 318.050896,590.359584 323.548058,592.964592 C331.290186,596.632364 338.012559,600.91308 346.198169,603.64908 C353.19114,605.984689 359.81329,607.227876 366.98165,607.732072 C370.434288,607.979226 373.513601,608.691031 376.790851,609.049405 C380.283579,609.432494 384.144621,608.537795 387.689965,609.526413 C387.819883,610.121531 387.932898,610.711846 388.031077,611.298083 Z" id="Combined-Shape" fill="#0002B9"></path>
                </g>
                <g id="one" transform="translate(0.000000, 400.000000)">
                    <g id="hand" transform="translate(13.000000, 0.000000)">
                        <path d="M65.6085461,212 L30.1757164,212 C26.1906965,201.03947 23.3442581,188.032038 21.6039425,176.496926 C19.0184709,159.415383 15.0888549,142.685018 10.0081899,126.486364 C6.84844768,116.398683 4.40842448,106.006814 2.74830593,95.4813988 C1.55713325,87.9187296 0.0123703608,80.729495 0.468777577,73.013495 C0.81735232,67.1671412 -1.43208325,61.6274488 4.97266418,57.9054681 C6.89860232,56.7876373 10.2840405,54.9254104 12.2551178,56.4018373 C14.8180198,58.3184719 14.976007,68.9823796 17.8072363,60.057045 C18.8780379,56.6763488 19.0861796,52.7614681 23.311708,52.9766258 C27.5572982,53.1942565 31.6950559,56.3029142 33.3426358,60.1361835 C34.5112389,55.3977681 33.3000044,47.6842412 39.6972286,46.5169488 C42.6613678,45.9728719 45.6054451,47.4196219 47.9501745,48.9826065 C49.0485611,49.7195835 52.5042157,54.4332681 53.5173394,53.9262873 C56.2482595,52.5512565 53.3819219,32.2349296 53.1261332,29.2870219 C52.7299116,24.6846258 52.0478085,20.0871758 51.6841874,15.5243488 C51.4058291,12.0546219 50.1619941,8.54037962 50.4303214,5.00882577 C50.6810946,1.71716038 51.5537853,2.18951808 54.2521049,1.80371808 C55.9423162,1.55888346 59.004257,-0.345385769 60.5791126,0.213529615 C62.3169709,0.831798846 62.3947106,3.57444115 62.8160095,5.12011423 C63.2899709,6.84632192 63.2849554,8.72338731 63.4830662,10.513895 C63.7012389,12.4898835 64.0222286,14.4065181 64.1802157,16.3948719 C65.3738961,31.7106373 67.9317827,46.6999565 69.8476899,61.9118527 C70.437007,66.5760758 71.0639399,71.2378258 71.886476,75.8476412 C72.2099735,77.6900835 72.5761023,79.5102681 72.9648008,81.3353988 C73.6143034,84.4316912 74.8079838,82.7129027 75.4925946,80.5588527 C76.4204554,77.6158912 75.9063704,75.1502335 76.1646668,72.241895 C76.4756255,68.7474373 76.7765534,65.2579258 77.0122802,61.7684142 C77.4210405,55.6599142 77.3056848,49.6330258 77.4762106,43.5467835 C77.5389039,41.3655296 77.9000173,40.2996335 79.8309709,39.3870681 C82.0277441,38.3483758 84.6157235,37.519895 86.9579451,37.3096835 C88.7584966,46.0025488 89.270074,56.8222604 89.2775972,65.8687758 C89.270074,74.8559373 88.9390534,83.7540681 88.5428317,92.7016604 C88.1641642,101.824841 84.5379838,109.723849 81.9098807,118.394457 C79.5801977,125.937341 77.8950018,133.062276 76.4279786,140.666987 C73.6193188,155.042983 72.6563497,168.456953 75.8361539,182.37543 C77.1326513,187.96953 81.7318317,196.068857 79.0962054,202.14026 C77.2287148,206.390128 72.0202453,209.682086 65.6085461,212 Z" id="Combined-Shape" fill="#000000"></path>
                        <path d="M53.1015575,54.2156373 C52.7203822,52.2594335 49.7010729,53.0903873 50.0797405,55.0366988 C51.4991168,62.3223835 53.2244363,69.5165642 54.2024518,76.8838604 C54.7666915,81.1375527 54.593658,104.41168 44.479975,96.6264335 C41.8919956,94.6356065 40.3422173,91.2870604 39.3742327,87.416695 C39.9760884,78.9637181 38.2934003,69.3286104 37.220091,64.107945 C36.8690085,62.4114142 33.9650549,62.7799027 34.1405961,64.5184758 C34.5568796,68.6584065 34.5343101,76.8813873 35.8007147,84.4440565 C35.6051116,88.1437796 35.0885188,91.7767296 34.1330729,95.1598988 C32.9519312,99.3319796 29.5138307,101.055714 25.7246477,98.026195 C22.6953075,95.6001065 22.0106966,89.8254719 21.2985008,86.2790796 C21.2006992,85.7844642 21.1430214,85.2750104 21.0552508,84.7729758 C20.9424028,77.3265412 19.7888461,69.7861296 19.7211374,66.9915527 C19.6709827,65.0031988 16.5739338,64.9957796 16.5864724,66.9915527 C16.5990111,68.9353912 16.7193822,74.1956258 17.3739003,80.1334835 C17.3914544,80.4351988 17.414024,80.7344412 17.4290704,81.0361565 C17.5895652,84.3476065 16.3582688,107.648937 9.04321469,97.4400758 C4.100475,90.5401912 3.77948531,77.643095 4.67474562,69.4646296 C4.89041057,67.483695 1.75574562,67.5059527 1.54008067,69.4646296 C0.687451804,77.2449296 0.639804897,101.233776 11.6888719,102.77203 C16.749475,103.476857 19.219591,99.8537988 20.3104544,94.6405527 C22.6200755,101.310441 26.3540884,105.650691 32.3977224,102.403541 C35.4997869,100.736687 37.3404621,97.5315796 38.3736477,93.6315373 C40.2268616,97.7294258 43.0129518,100.57841 47.2811116,100.702064 C66.4527224,101.248614 54.7591683,62.7180758 53.1015575,54.2156373" id="Fill-10" fill="#095FEA"></path>
                    </g>
                    <path d="M123.895977,212 L3.99920191,212 C3.33028439,210.280879 2.6535153,208.564265 1.97759742,206.840096 C-0.813508247,199.72258 0.608375773,192.13518 0.00150463918,184.641757 C-0.0937891753,183.459627 35.5235278,176.881242 38.8512881,176.515227 C43.7614273,175.976096 48.741783,177.059303 53.4939351,176.396519 C59.9563603,175.496319 66.9805175,171.49488 72.9840278,169.086103 C75.0930304,168.237838 106.888564,155.39515 107.254693,156.639107 C112.571085,174.779127 118.687443,192.16733 123.494765,210.50025 C123.626144,211.001301 123.759974,211.501183 123.895977,212 Z" id="Combined-Shape" fill="#7EBFFF"></path>
                </g>
            </g>
            <g id="slap" transform="translate(716.000000, 117.000000)">
                <g id="starurst" fill="#FFFFFF" stroke="#FFFFFF" stroke-width="2">
                    <path d="M314.389024,101.56117 C326.116513,90.0809384 327.936984,91.8630273 339.667049,80.3802749 C351.395825,68.8987829 349.575354,67.116694 361.305419,55.6339416 C373.035483,44.1499289 374.857241,45.9320178 386.586018,34.4505257" id="Fill-1"></path>
                    <path d="M316.753963,102.348869 C322.335109,96.9282432 328.602473,92.6998781 334.629082,87.8312717 C341.506703,82.2757924 347.583522,75.8217067 352.850528,68.7941765 C358.040287,61.8712527 364.015397,55.5167321 370.761697,50.0116654 C376.868128,45.0283702 383.271963,40.752113 388.950957,35.2369638 C389.948739,34.26904 385.30744,32.6079416 384.220822,33.6628273 C378.638388,39.084713 372.371024,43.3118178 366.344415,48.1816844 C359.466794,53.7384241 353.388687,60.1925098 348.120394,67.22004 C342.930635,74.1429638 336.956813,80.4962241 330.210513,86.0025511 C324.105369,90.984586 317.701535,95.2595829 312.023828,100.773472 C311.027333,101.742656 315.667345,103.403754 316.753963,102.348869" id="Fill-3"></path>
                    <path d="M210.455454,59.7663965 C210.455454,49.986333 213.030377,49.986333 213.030377,40.2050092 C213.030377,30.4249457 210.455454,30.4249457 210.455454,20.6423616 C210.455454,10.8610378 213.030377,10.8610378 213.030377,1.07971397" id="Fill-5"></path>
                    <path d="M213.026644,59.8944448 C213.078142,55.1342257 214.40809,50.9449305 215.16898,46.3170448 C216.034154,41.0514384 215.633754,35.7001305 214.314106,30.5517337 C213.024069,25.5180257 212.619806,20.306613 213.401295,15.1468733 C214.122274,10.3904352 215.550069,6.09401302 215.601567,1.20776222 C215.618304,-0.252945714 210.474894,-0.448294921 210.459445,0.951917778 C210.407946,5.71339714 209.077998,9.90143206 208.317109,14.5318384 C207.451934,19.7974448 207.851047,25.150013 209.171983,30.2971495 C210.46202,35.3308575 210.866283,40.5435305 210.084794,45.7007495 C209.363815,50.4584479 207.93602,54.7523495 207.884521,59.6386003 C207.867784,61.0993083 213.011194,61.2933971 213.026644,59.8944448" id="Fill-7"></path>
                    <path d="M106.773325,102.155662 C95.0458355,90.6741698 96.8663064,88.892081 85.1375297,77.4105889 C73.4074654,65.9278365 71.5869945,67.7099254 59.8569303,56.2284333 C48.1268661,44.7444206 49.947337,42.9623317 38.2172728,31.4795794" id="Fill-9"></path>
                    <path d="M109.030117,101.812225 C103.385884,96.2428825 99.0510003,89.9249111 93.9230401,83.9648698 C88.2710829,77.3960952 81.8183245,71.5507429 74.7540217,66.4754444 C67.569985,61.3157048 60.9459942,55.365746 55.3004743,48.6016222 C50.3604835,42.6844317 46.0037128,36.5933175 40.4740645,31.1361429 C39.516193,30.1921651 34.5736272,30.4543111 35.9602235,31.8230159 C41.6057434,37.3923587 45.9419147,43.7103302 51.0711624,49.6728921 C56.7218321,56.2416667 63.175878,62.087019 70.2401807,67.1623175 C77.42293,72.3220571 84.0482083,78.2694952 89.6924407,85.0348794 C94.631144,90.9520698 98.9879147,97.0419238 104.517563,102.499098 C105.474147,103.443076 110.416713,103.18093 109.030117,101.812225" id="Fill-11"></path>
                    <path d="M64.0783887,203.896679 C53.8018688,203.896679 53.8018688,201.376044 43.5253489,201.376044 C33.2475416,201.376044 33.2475416,203.896679 22.9684468,203.896679 C12.689352,203.896679 12.689352,201.376044 2.41154465,201.376044" id="Fill-13"></path>
                    <path d="M62.9568807,202.814823 C57.9383547,202.76567 53.3897523,201.181451 48.4639235,200.604226 C43.0475719,199.970286 37.5050489,200.214788 32.2019939,201.470064 C26.8036667,202.746766 21.2856055,203.334074 15.7675443,202.295572 C10.8494404,201.370499 6.35491131,200.344601 1.2900367,200.294188 C0.350189602,200.285366 -0.287103976,200.648337 0.131321101,201.49275 C0.563908257,202.36489 2.74744343,202.450591 3.53408257,202.458153 C8.55260856,202.508566 13.101211,204.092785 18.0283272,204.66875 C23.4446789,205.30269 28.9872018,205.059448 34.2902569,203.804172 C39.6898716,202.52621 45.2066453,201.940163 50.7247064,202.978664 C55.6415229,203.902477 60.136052,204.928375 65.2009266,204.978788 C66.1407737,204.98887 66.7780673,204.624639 66.3596422,203.781486 C65.927055,202.909347 63.7422324,202.823645 62.9568807,202.814823" id="Fill-15"></path>
                    <path d="M107.38062,305.392943 C95.6531312,316.873175 93.8326602,315.091086 82.102596,326.573838 C70.3725318,338.05533 72.1942902,339.837419 60.464226,351.320172 C48.7328743,362.804184 46.9124034,361.022096 35.1823391,372.503588" id="Fill-17"></path>
                    <path d="M104.901227,305.091349 C99.2132205,310.615321 92.7565997,314.857549 86.6669055,319.877394 C79.9592297,325.408927 73.987982,331.730679 68.8046609,338.644781 C63.5325049,345.677352 57.4543979,352.159165 50.5433031,357.685657 C44.49867,362.521495 38.2789422,366.78893 32.7042327,372.201994 C31.902144,372.98087 36.535719,373.899641 37.6609606,372.805686 C43.3502541,367.280454 49.8081624,363.038225 55.8978566,358.01586 C62.6068199,352.484327 68.5780676,346.163835 73.7613887,339.248473 C79.0335446,332.215902 85.1103642,325.73661 92.021459,320.207597 C98.066092,315.373019 104.284532,311.106844 109.860529,305.695041 C110.662618,304.914905 106.027756,303.998654 104.901227,305.091349" id="Fill-19"></path>
                    <path d="M211.314191,347.187717 C211.314191,355.302901 208.739267,355.302901 208.739267,363.418085 C208.739267,371.539571 211.314191,371.539571 211.314191,379.661057 C211.314191,387.781282 208.739267,387.781282 208.739267,395.902768" id="Fill-21"></path>
                    <path d="M208.739267,347.188977 C208.674894,351.32912 207.257399,354.792472 206.532558,358.783898 C205.753643,363.077799 206.186231,367.394387 207.451806,371.539571 C208.71738,375.686015 209.14868,380.005123 208.371053,384.300285 C207.646212,388.292971 206.227429,391.760104 206.164344,395.902768 C206.142457,397.311803 211.291017,397.355914 211.314191,395.901507 C211.377276,391.758844 212.796059,388.29171 213.5209,384.297764 C214.298527,380.002603 213.867228,375.684755 212.601653,371.53831 C211.336078,367.393126 210.903491,363.076539 211.682405,358.781377 C212.407246,354.791212 213.824741,351.326599 213.889114,347.186457 C213.911001,345.778682 208.761154,345.734571 208.739267,347.188977" id="Fill-23"></path>
                    <path d="M314.995032,304.798451 C326.723809,316.279943 324.903338,318.062032 336.632115,329.543524 C348.362179,341.026277 350.18265,339.244188 361.911427,350.72568 C373.642779,362.209693 371.822308,363.991782 383.552372,375.474534" id="Fill-25"></path>
                    <path d="M312.530831,305.195956 C318.068204,310.660692 322.38635,316.795917 327.361103,322.695463 C332.961561,329.338597 339.473543,335.288556 346.558445,340.38654 C353.716733,345.537457 360.295662,351.372727 365.995256,358.066273 C371.08588,364.043959 375.45295,370.312778 381.086883,375.872038 C382.181225,376.95213 386.876598,375.926232 386.016574,375.076778 C380.477913,369.610781 376.158479,363.475556 371.185014,357.57601 C365.583268,350.931616 359.071286,344.981657 351.986384,339.883673 C344.826809,334.734016 338.250454,328.898746 332.549574,322.20394 C327.460237,316.227514 323.093167,309.958695 317.460522,304.400695 C316.366179,303.321863 311.670806,304.347762 312.530831,305.195956" id="Fill-27"></path>
                    <path d="M357.689969,203.057308 C367.681959,203.057308 367.681959,205.577943 377.672663,205.577943 C387.663366,205.577943 387.663366,203.057308 397.656644,203.057308 C407.648635,203.057308 407.648635,205.577943 417.640626,205.577943" id="Fill-29"></path>
                    <path d="M358.756244,204.192098 C363.638299,204.24251 367.98992,205.735987 372.765116,206.362364 C378.044997,207.054279 383.503835,206.81986 388.671706,205.564583 C393.894939,204.296704 399.246917,203.661504 404.601471,204.648333 C409.397266,205.530555 413.761761,206.66232 418.705614,206.712733 C419.636449,206.722815 420.312367,206.46445 419.924841,205.573406 C419.548902,204.708828 417.347342,204.450463 416.576153,204.441641 C411.69281,204.392488 407.339902,202.899012 402.563419,202.272634 C397.283538,201.58072 391.827275,201.815139 386.656828,203.069155 C381.433596,204.337034 376.082905,204.972234 370.728351,203.986666 C365.933844,203.103183 361.570636,201.971418 356.625495,201.921006 C355.69466,201.912183 355.02003,202.170549 355.406269,203.061593 C355.782208,203.92491 357.983767,204.184536 358.756244,204.192098" id="Fill-31"></path>
                </g>
                <g id="left" transform="translate(5.266636, 103.112801)">
                    <path d="M122.136598,173.223527 C128.044967,167.625127 132.907774,161.013261 136.462993,153.783448 C136.844884,152.7598 137.204167,151.730948 137.488985,150.690976 C137.973432,148.926805 138.412729,147.095971 139.052375,145.378861 C139.649357,143.782528 140.757664,142.382694 141.117353,140.708087 C142.001769,136.58255 141.541165,131.908907 141.2932,127.717014 C141.032634,123.330943 140.67599,119.13986 140.857546,114.766738 C141.014098,110.905703 141.597875,107.002187 141.640547,103.164771 C141.683101,99.3324362 141.745551,95.5147597 141.83176,91.6795956 C141.932204,87.2064784 141.385897,83.0978588 140.929746,78.6608205 C140.468506,74.148144 139.996203,69.6693845 139.361126,65.1746453 C138.663204,60.2500625 137.556634,55.0650586 137.423273,50.1233075 C140.123751,49.2874537 143.25503,49.4051714 146.075683,49.3315022 C148.23406,54.7004428 150.813367,59.9227819 152.594009,65.4417578 C153.615825,68.6111267 154.373292,71.8479381 155.283362,75.0428176 C155.534339,75.9371516 158.800051,83.9717755 158.645861,84.1219633 C160.042806,82.7614108 160.91519,80.8769881 161.848541,79.1954961 C163.410402,76.3820192 164.618714,73.4287951 165.976939,70.5223947 C167.042715,68.2483502 168.491502,66.6136196 169.135461,64.083052 C170.173248,60.0296303 171.722097,56.3043646 171.944354,52.1488256 C172.176293,47.7914303 183.479703,0.737754669 182.761582,0.650779714 C186.635212,1.11181642 190.423687,0.978021832 194.382022,1.54520042 C195.251195,10.7471117 191.992594,20.8552138 190.194187,29.6810107 C189.191169,34.6076966 188.94606,39.5573081 188.108049,44.4174819 C187.796682,46.2363986 186.294688,58.8983636 190.290052,58.1831372 C191.305114,56.3754376 192.033442,54.3397177 192.874796,52.4374446 C194.328615,49.1696532 195.202813,45.7100793 196.791683,42.4989186 C199.00809,38.0237618 200.934498,33.4206859 202.965369,28.8641904 C203.834783,26.9200845 204.499647,24.8955824 205.349489,22.9497007 C206.473561,20.3649603 207.996217,17.4033934 209.489195,15.0075669 C210.957263,12.6519191 212.068825,9.98941195 213.772883,7.7679387 C213.304391,8.37923091 217.498872,8.84658049 217.695661,8.92603004 C218.726618,9.33675789 224.132547,12.6249819 224.098331,13.9069146 C224.051345,15.6302612 223.060785,17.0676953 222.567992,18.6555352 C222.081723,20.243967 221.824898,21.8866803 221.276401,23.4866846 C219.965048,27.3081881 218.304299,30.9988088 216.682018,34.6953445 C213.031159,43.0104226 208.860061,51.1507456 205.997595,59.7839766 C205.260057,62.0012251 203.087726,68.3537357 207.339861,68.1904662 C210.222317,68.0833605 212.37453,62.9822934 213.436997,60.9439065 C215.97649,56.0984117 218.740799,51.6128205 220.584748,46.4195229 C222.922957,39.8293703 226.760491,33.2445293 230.48533,27.314172 C231.557541,25.6059918 231.740719,24.0240136 232.595728,22.3776101 C232.873219,21.8394443 237.336767,16.2884515 237.40042,16.3092615 C240.250442,17.2070664 242.548507,18.9979005 245.270308,20.1607716 C248.921943,21.7181639 248.034825,22.8181996 246.582589,25.8843698 C244.355111,30.5942376 242.838204,36.183146 239.858118,40.4687374 C237.040302,44.5246047 234.894717,49.3410867 233.016841,53.9056422 C230.957424,58.9258859 228.882161,63.6371952 226.486015,68.3703194 C225.017992,71.2720938 223.739206,74.3637001 222.75675,77.4584246 C222.079503,79.5868082 222.455025,83.114411 225.334736,83.3390464 C227.768188,83.5278038 230.842735,79.5711319 232.314167,78.0068422 C233.964359,76.2533679 235.43312,74.1754518 236.889945,72.3025824 C238.664616,70.0169462 240.306431,67.8211093 241.664998,65.3010513 C242.623442,63.5180433 244.147299,60.1974346 246.481988,59.7874586 C248.835132,59.3738217 251.333954,63.8543098 253.157848,64.9362058 C252.221362,67.2869713 252.495246,69.6842502 251.376408,71.9238951 C250.084361,74.5154645 248.114546,76.7579337 246.819346,79.3511571 C245.148427,82.6897072 243.217432,85.8053231 240.731839,88.5905308 C236.453224,93.3798584 234.382315,99.9763156 231.778181,105.658895 C229.410443,110.829894 227.609029,116.309084 224.253408,120.984506 C221.993649,124.126072 219.954277,127.17608 218.167412,130.573467 C216.31075,134.106874 213.724208,136.921966 211.588473,140.219317 C205.138532,150.195038 197.806276,158.177102 189.703728,166.53428 L189.989725,166.620125 C184.432898,178.005559 179.903795,189.873694 176.469668,202.050692 C176.139473,203.220896 175.513113,204.634867 174.244298,204.6381 C173.566465,204.639414 172.970477,204.201216 172.428907,203.792691 C157.725173,192.672667 139.565418,187.049781 122.164172,180.635299 C121.401387,180.353906 120.602742,180.04816 120.064653,179.450069 C118.390612,177.588775 120.355642,174.910089 122.136598,173.223527 Z" id="Fill-1" fill="#5793FB"></path>
                    <path d="M0.806338268,391.887199 C5.15885115,385.057011 8.93969052,377.308481 12.6454922,371.86595 C33.3861333,341.402684 40.8767849,308.62619 55.9418217,275.464986 C59.9238465,266.700034 63.613538,257.880672 67.5210688,248.544408 C71.7364652,238.475335 76.0934499,228.061897 80.9409138,217.483431 L81.8860737,215.415244 C90.5001811,196.6035 100.261565,175.280176 111.684144,156.129085 C111.684144,156.129085 195.39404,203.619227 195.511078,203.687319 C195.885357,203.899516 160.869057,285.83347 157.341468,293.20038 C150.712809,307.039732 146.72159,321.733838 140.792182,335.828693 C134.971744,349.669587 126.390176,362.111238 119.249032,375.295892 C116.233843,380.862163 113.092646,386.395114 109.841724,391.887199 L0.806338268,391.887199 Z" id="Combined-Shape" fill="#0002B9"></path>
                </g>
                <g id="right" transform="translate(160.000000, 112.543011)">
                    <path d="M136.72653,175.329403 C130.524895,169.759443 125.319171,163.129918 121.392068,155.837692 C120.957722,154.804584 120.546507,153.763918 120.20854,152.709392 C119.632839,150.920353 119.102114,149.062019 118.374778,147.325895 C117.694988,145.71198 116.51403,144.310985 116.069404,142.610138 C114.974544,138.423533 115.200713,133.643522 115.237979,129.362426 C115.277815,124.879748 115.424311,120.596132 115.020806,116.139912 C114.668703,112.204025 113.88868,108.235381 113.649661,104.322172 C113.414498,100.412742 113.160058,96.5184316 112.878633,92.6102621 C112.553516,88.0494712 112.892769,83.8439684 113.125362,79.3058554 C113.360526,74.6921492 113.60854,70.1112 114.01847,65.5113525 C114.466951,60.4705446 115.315082,55.1538215 115.199428,50.1092339 C112.451998,49.3218045 109.320339,49.5158271 106.490666,49.5070079 C104.599077,55.036652 102.278283,60.4264486 100.773493,66.0984599 C99.9099416,69.3577876 99.314965,72.6750701 98.5644977,75.9570757 C98.3576051,76.8755333 95.4919509,85.1492113 95.6538668,85.2991379 C94.1863435,83.9447593 93.2174182,82.0423299 92.1958061,80.3490418 C90.4905491,77.5168158 89.1296846,74.5321435 87.6223248,71.6003864 C86.4400818,69.3036124 84.907021,67.6720588 84.1321379,65.1056689 C82.8894977,60.9946576 81.1482593,57.2313751 80.7164836,52.9968949 C80.2641472,48.558313 66.5655491,0.822454237 67.2813201,0.716623729 C63.4223248,1.27979322 59.6211565,1.2331774 55.6850584,1.90721695 C55.2776986,11.3135333 59.0531659,21.5475955 61.3007126,30.5104316 C62.5536332,35.5121831 63.0470911,40.5555107 64.1329556,45.4930079 C64.5364603,47.342522 66.6799182,60.2236068 62.6423014,59.5886237 C61.5345911,57.7693469 60.7018808,55.7106915 59.7625117,53.7893638 C58.1433528,50.4897198 57.0908995,46.9809345 55.3368107,43.7430249 C52.8913668,39.2301096 50.7286332,34.5798667 48.4630958,29.9812791 C47.4954556,28.0171153 46.7269977,25.9672791 45.7773481,24.0031153 C44.5205724,21.3926294 42.8461565,18.4079571 41.2295678,15.9990531 C39.6386799,13.6304655 38.3921846,10.9406068 36.5725584,8.71564633 C37.0724416,9.32669153 32.8921846,9.90371977 32.7007126,9.99065198 C31.6880958,10.4341322 26.4386799,13.9164599 26.5376285,15.2242226 C26.6712734,16.9792452 27.7378621,18.4243356 28.3097079,20.0319514 C28.8776986,21.6408271 29.218236,23.3101774 29.8491939,24.9303921 C31.3539836,28.7957254 33.2044509,32.5224712 35.0163668,36.2555164 C39.0938201,44.6501435 43.684007,52.8570475 46.9865771,61.5968836 C47.837278,63.8407424 50.3341238,70.267426 46.0664836,70.2056915 C43.1725584,70.1628554 40.7592407,65.0099175 39.5924182,62.9563017 C36.8038668,58.0729797 33.8071379,53.5625842 31.6996612,48.3101153 C29.0229089,41.6415333 24.846507,35.0145277 20.8166005,29.0527424 C19.6536332,27.3355164 19.3901986,25.7266407 18.4521145,24.0673695 C18.1462734,23.5256181 13.3954556,17.9682565 13.3324883,17.9909345 C10.5233762,18.9749062 8.30924065,20.8559175 5.64148364,22.1082452 C2.0626285,23.7838949 3.00713785,24.8837763 4.6173014,27.9767989 C7.08587617,32.7290927 8.88751168,38.3948045 12.0885631,42.6960588 C15.1174182,46.7667537 17.5101752,51.6286576 19.621507,56.241104 C21.9384463,61.3146689 24.2553855,66.0707424 26.8935864,70.8431944 C28.5114603,73.768652 29.9481425,76.8919119 31.0905491,80.0265107 C31.8744276,82.1809175 31.6778154,85.7892339 28.8031659,86.0853073 C26.3757126,86.3360249 23.0949883,82.3736802 21.5413668,80.8114203 C19.8014136,79.0639571 18.2220911,76.9788441 16.6697547,75.1016124 C14.7768808,72.8123977 13.0189369,70.6113751 11.5321379,68.0727028 C10.4822547,66.276104 8.78727804,62.9235446 6.42793224,62.5619571 C4.04931075,62.1965898 1.77220794,66.8254147 0.000128504673,67.9731718 C1.05772196,70.3505785 0.903516355,72.8023186 2.13716121,75.0600362 C3.56227804,77.6730418 5.64919393,79.9143808 7.07688084,82.5299062 C8.91963785,85.8950644 11.0116939,89.0271435 13.6434696,91.8102339 C18.1694042,96.5952847 20.5775818,103.275206 23.4740771,109.008951 C26.1084229,114.228663 28.1876285,119.774686 31.7857593,124.465245 C34.2080724,127.616223 36.4067874,130.681528 38.3677687,134.103381 C40.4058528,137.663821 43.1391472,140.474629 45.444521,143.786872 C52.4107593,153.810533 60.1583061,161.779319 68.6987266,170.113471 L68.4160164,170.207963 C74.5572547,181.690573 79.6923014,193.689737 83.7479089,206.03159 C84.137278,207.217144 84.8376285,208.644595 86.1072547,208.618138 C86.7883294,208.603019 87.3627453,208.14316 87.8831893,207.712279 C102.0534,196.018008 119.963096,189.849601 137.072208,182.893765 C137.82396,182.587612 138.606554,182.256262 139.115432,181.633878 C140.699895,179.694912 138.594988,177.007573 136.72653,175.329403" id="Fill-1" fill="#2CEDD1"></path>
                    <path d="M154.692883,382.457005 C150.989402,376.686531 147.402877,370.867335 143.952348,365.007786 C136.131554,351.726057 126.907488,339.238057 120.376881,325.255831 C113.728049,311.015328 108.986227,296.120944 101.64604,282.160136 C97.7407827,274.729323 58.5250117,191.973645 58.889965,191.746865 C59.0043341,191.677571 140.469871,141.237995 140.469871,141.237995 C152.880853,160.504187 163.736928,182.025577 173.314381,201.012074 L174.366834,203.098447 C179.755035,213.775989 184.647208,224.293526 189.377465,234.468373 C193.763329,243.899888 197.905035,252.809808 202.337161,261.655475 C219.103166,295.128153 228.261694,328.38791 250.577815,358.972927 C255.229709,365.348185 260.142615,374.924308 265.848213,382.457005 L154.692872,382.456989 L154.692883,382.457005 Z" id="Combined-Shape" fill="#7EBFFF"></path>
                </g>
            </g>
        </g>
    </g>
</svg>