<?xml version="1.0" encoding="UTF-8"?>
<svg width="84px" height="84px" viewBox="0 0 84 84" version="1.1" xmlns="http://www.w3.org/2000/svg" xmlns:xlink="http://www.w3.org/1999/xlink">
    <!-- Generator: Sketch 49.3 (51167) - http://www.bohemiancoding.com/sketch -->
    <title>icon/chat</title>
    <desc>Created with Sketch.</desc>
    <defs></defs>
    <g id="icon/chat" stroke="none" stroke-width="1" fill="none" fill-rule="evenodd">
        <path d="M16.3168844,39.7761885 C15.9344757,28.2092501 30.4376819,21.7388604 40.187944,20.9944503 C50.3770994,20.2167946 62.4243236,23.9972551 66.6411149,34.127081 C73.0830553,49.6006946 44.7181366,54.330623 34.931738,54.230755 C33.856384,54.220489 32.9606607,55.1367279 32.9606607,56.2018323 L32.9606607,56.4199846 C32.9606607,57.3336446 33.568922,58.0420497 34.4081542,58.3217456 C34.6288754,58.3936111 34.8470277,58.468039 35.0651799,58.5398979 C34.7751622,57.4414165 34.485151,56.3429352 34.1951464,55.2445195 C31.2744699,57.7828071 28.4872352,60.4853511 25.3942865,62.8206835 C26.3823875,63.3878807 27.3704885,63.9551041 28.361152,64.5222488 C28.866753,60.028324 28.3123882,55.3008923 24.9656429,51.9953957 C23.1845117,50.2347638 20.7129123,49.3185414 18.8368409,47.6605369 C16.6219414,45.7048341 16.7246345,42.9175994 16.0855456,40.3484973 C15.8725247,39.4938382 15.0461308,38.9112535 14.1837845,38.9010039 C14.0913936,38.9035702 13.998996,38.9010039 13.9065985,38.9010039 C11.3631861,38.8702058 11.3657485,42.8123439 13.9065985,42.8431584 C13.9989895,42.8457247 14.091387,42.8457247 14.1863469,42.8457247 C13.5524222,42.3632182 12.9184843,41.8806853 12.2845859,41.3982313 C12.7516918,43.2794931 12.7414225,44.9554344 13.5703853,46.7878793 C14.5661735,48.9874044 16.0650464,50.5632149 17.9616826,51.9927716 C19.9327599,53.4762043 22.1810363,54.2744249 23.5284647,56.4687595 C24.9297693,58.7452224 24.7039495,61.9867246 24.4190631,64.5225812 C24.2599381,65.9341353 26.2438208,67.0864928 27.3859286,66.2241465 C30.7506232,63.6807341 33.8047417,60.7959968 36.9817898,58.0316924 C38.1675241,56.9999649 37.4206633,55.1725791 36.1117563,54.736314 C35.891035,54.6644485 35.6728828,54.5900207 35.4547305,54.5155928 C35.9372371,55.1495175 36.4197699,55.7834554 36.9022239,56.4173538 L36.9022239,56.1992016 L34.9311467,58.1702788 C48.8259273,58.3140032 78.8263803,51.1098801 69.6891231,31.3452314 C64.3892906,19.8755328 50.1248672,16.0358743 38.51128,17.1988099 C27.080346,18.3434801 11.9405015,26.6639229 12.3741385,39.7761858 C12.4588357,42.311911 16.4009837,42.3195982 16.316293,39.7761858 L16.3168844,39.7761885 Z" id="Shape" fill="#095FEA" fill-rule="nonzero"></path>
    </g>
</svg>