<?xml version="1.0" encoding="UTF-8"?>
<svg width="84px" height="84px" viewBox="0 0 84 84" version="1.1" xmlns="http://www.w3.org/2000/svg" xmlns:xlink="http://www.w3.org/1999/xlink">
    <!-- Generator: Sketch 49.3 (51167) - http://www.bohemiancoding.com/sketch -->
    <title>icon/doc</title>
    <desc>Created with Sketch.</desc>
    <defs></defs>
    <g id="icon/doc" stroke="none" stroke-width="1" fill="none" fill-rule="evenodd">
        <g id="np_file-document-box_894445_000000" transform="translate(18.000000, 14.000000)" fill="#095FEA" fill-rule="nonzero">
            <path d="M47.863,16.793 C47.74972,14.9492 47.57003,13.2891 47.62862,11.4063 C47.687214,9.543 47.683308,7.5235 46.77706,5.836 C46.47628,5.27741 46.1755,4.7188 45.81222,4.1993 C45.57394,3.85555 45.30441,3.53524 45.01534,3.23446 C44.27315,2.46884 43.40984,2.02746 42.53484,1.45326 C41.96062,1.07826 41.40984,0.9181 40.73794,0.81654 C38.52704,0.47279 36.27314,0.46888 34.03874,0.44545 C31.74574,0.422013 29.45284,0.457169 27.15984,0.511857 C22.57394,0.625137 17.99184,0.832167 13.40184,0.867327 C10.56594,0.890764 7.67524,0.976697 5.31984,2.707127 C3.78074,3.839927 2.12064,4.660227 1.26124,6.476627 C-0.41846,10.039127 0.72608,14.355527 0.72608,18.117627 L0.72608,31.683627 C0.72608,34.406327 -0.21533,48.390627 1.04249,50.937627 C1.27687,51.414187 1.60108,51.839967 1.93311,52.257927 C2.4292,52.886837 2.96041,53.511827 3.64401,53.929827 C4.97601,54.746237 7.54241,54.582167 9.10101,54.800917 C11.10491,55.086077 13.12441,55.273577 15.14791,55.390757 C19.19871,55.625137 23.25731,55.578257 27.31191,55.433726 C29.75331,55.347788 32.19861,55.179816 34.64001,55.148566 C36.89781,55.121222 38.79621,55.410286 40.97591,54.812626 C41.722,54.609506 42.47591,54.402466 43.18291,54.082156 C48.13211,51.851656 47.85481,36.207156 47.85481,31.617156 C47.862622,26.714856 48.16731,21.695256 47.862622,16.793156 L47.863,16.793 Z M35.023,32.258 C31.5503,33.2853 27.566,32.63691 23.976,32.59394 C23.65959,32.590034 23.34319,32.586128 23.02678,32.586128 L15.76118,32.586128 C14.8979,32.586128 13.99168,32.660346 13.12838,32.586128 C11.71428,32.461128 11.74558,32.066598 11.74558,30.511928 L11.74558,30.054898 C11.74558,29.484588 11.74558,28.914298 12.09324,28.449398 C12.42918,27.824398 16.08544,28.273618 16.97214,28.273618 L24.26904,28.273618 L30.46824,28.273618 C32.05024,28.273618 34.21044,27.890808 35.71044,28.515808 C37.40184,29.215028 36.41356,31.843908 35.02294,32.258008 L35.023,32.258 Z M35.023,45.582 C31.5503,46.6093 27.566,45.96091 23.976,45.91794 C23.65959,45.914033 23.34319,45.910127 23.02678,45.910127 L15.76118,45.910127 C14.8979,45.910127 13.99168,45.984346 13.12838,45.910127 C11.71428,45.785127 11.74558,45.390597 11.74558,43.835927 L11.74558,43.378897 C11.74558,42.808587 11.74558,42.238297 12.09324,41.773397 C12.42918,41.148397 16.08544,41.597617 16.97214,41.597617 L24.26904,41.597617 L30.46824,41.597617 C32.05024,41.597617 34.21044,41.214807 35.71044,41.839807 C37.40184,42.542927 36.41356,45.171807 35.02294,45.582007 L35.023,45.582 Z M35.023,18.684 C31.5503,19.7113 27.566,19.06291 23.976,19.01994 C23.65959,19.016034 23.34319,19.012128 23.02678,19.012128 L15.76118,19.012128 C14.8979,19.012128 13.99168,19.086347 13.12838,19.012128 C11.71428,18.887128 11.74558,18.492598 11.74558,16.937928 L11.74558,16.480898 C11.74558,15.910588 11.74558,15.340298 12.09324,14.875398 C12.42918,14.250398 16.08544,14.699618 16.97214,14.699618 L24.26904,14.699618 L30.46824,14.699618 C32.05024,14.699618 34.21044,14.316808 35.71044,14.941808 C37.40184,15.644928 36.41356,18.269908 35.02294,18.684008 L35.023,18.684 Z" id="Shape"></path>
        </g>
    </g>
</svg>