<?xml version="1.0" encoding="UTF-8"?>
<svg width="84px" height="84px" viewBox="0 0 84 84" version="1.1" xmlns="http://www.w3.org/2000/svg" xmlns:xlink="http://www.w3.org/1999/xlink">
    <!-- Generator: Sketch 49.3 (51167) - http://www.bohemiancoding.com/sketch -->
    <title>icon/photos</title>
    <desc>Created with Sketch.</desc>
    <defs></defs>
    <g id="icon/photos" stroke="none" stroke-width="1" fill="none" fill-rule="evenodd">
        <g id="np_camera-iris_783743_000000" transform="translate(12.000000, 14.000000)" fill="#095FEA" fill-rule="nonzero">
            <path d="M4.227,40.457 C4.90669,40.457 5.5864,40.21091 6.1879,39.99606 L6.49259,39.88668 C7.39884,39.57418 8.34419,39.29293 9.45739,38.99996 C10.75039,38.66402 12.09019,38.38277 13.38709,38.10934 C15.95349,37.57028 18.60979,37.01164 21.09799,35.99994 C21.2269,35.949159 21.36361,35.902284 21.50424,35.85541 C21.84018,35.74603 22.21908,35.62103 22.52764,35.39838 C22.84795,35.16791 23.08623,34.87885 23.22686,34.539 C23.76202,33.2578 22.78936,31.6562 22.00806,30.8906 C21.17212,30.07419 20.46506,29.2148 19.71116,28.3047 L19.21507,27.70704 L18.80101,27.12501 C17.87132,25.81251 16.99631,24.57421 15.77371,23.45311 C14.9573,22.70311 14.29321,21.62891 13.65651,20.58981 C13.26198,19.94528 12.85182,19.28121 12.40261,18.69531 C11.98855,18.14844 11.53542,17.62501 11.08231,17.09761 C10.78153,16.74605 10.48075,16.39449 10.18778,16.03511 C8.87528,14.42181 7.74248,13.66791 6.62528,13.66791 C5.65262,13.66791 4.76588,14.25775 3.98858,15.42571 C3.73077,15.81243 3.36749,16.41399 3.25811,16.59371 C3.10967,16.74605 2.9417,16.92574 2.8792,17.15621 C1.3948,19.25001 0.762,20.69141 0.9183,23.50391 C0.9183,24.08985 1.008143,24.89841 1.09018,25.44531 C1.164398,25.91406 1.101898,26.0039 1.101898,27.00391 L1.000338,27.000004 L1.000338,27.167974 C1.000338,29.160174 0.789398,31.320274 1.164398,33.187474 C1.281588,33.785134 1.445648,34.371074 1.547208,34.945274 C1.758148,36.144474 1.984708,37.281174 2.312828,38.476474 C2.347984,38.609284 2.394859,38.738194 2.422208,38.859284 C2.562828,39.480374 2.746428,40.249884 3.824508,40.425684 C3.953418,40.449122 4.094038,40.456934 4.226848,40.456934 L4.227,40.457 Z" id="Shape"></path>
            <path d="M10.254,14.457 C11.8438,16.6015 13.5548,18.5976 15.1681,20.4336 C16.2736,21.6914 17.465,23.0274 18.6915,24.3047 C19.32822,24.96486 19.879,25.5352 21.0274,25.5352 L21.2149,25.531294 C23.629,25.414104 24.4766,23.445394 25.2227,21.707094 C25.49223,21.082094 25.74614,20.492294 26.05473,20.015694 L26.2266,19.753974 C27.20707,18.246174 28.2227,16.691474 29.1211,15.082074 C29.47657,14.449264 29.94922,13.632874 30.4766,12.921874 C30.73441,12.574214 31.00785,12.249994 31.27738,11.929684 C31.87113,11.222654 32.48828,10.492184 32.90628,9.550784 L33.25784,8.757814 C33.76175,7.632814 34.28514,6.468714 34.69144,5.261714 C34.738315,5.121094 34.79691,4.980464 34.86332,4.839834 L34.95707,4.636714 C35.30863,3.867184 35.78519,2.812514 34.914101,1.914014 C33.836001,0.804614 31.945301,0.648414 30.062501,0.648414 L29.304691,0.65232 C28.867191,0.65232 28.273491,0.82029 27.648491,1.00779 C27.488331,1.054666 27.363331,1.097634 27.351611,1.105447 C27.043021,1.105447 26.699271,1.105447 26.332111,1.261697 C26.132891,1.277322 25.925861,1.324197 25.750081,1.363257 C25.664143,1.382788 25.586021,1.40232 25.484461,1.410132 C20.836061,2.031222 16.523561,3.621032 12.703461,6.121032 C12.547211,6.210876 12.367521,6.308532 12.168301,6.414002 C10.433901,7.355412 7.535501,8.933502 8.312801,11.222602 C8.722961,12.390602 9.519801,13.468702 10.254201,14.457002 L10.254,14.457 Z" id="Shape"></path>
            <path d="M33.711,10.023 C33.44147,10.55034 33.18366,11.0464 32.86725,11.5269 C32.57037,12.12456 32.28912,12.6831 31.81645,13.3277 C31.68754,13.58161 31.56254,13.93317 31.51176,14.0777 C30.92582,14.96051 30.46486,15.7183 30.00396,16.4722 C29.77349,16.85501 29.53912,17.23782 29.28912,17.6363 C29.07428,17.97614 29.0274,18.37849 28.98443,18.7301 C28.95318,19.00354 28.918024,19.26526 28.82037,19.45276 C28.66803,19.74182 28.48053,20.01526 28.29303,20.2926 C28.10553,20.56994 27.91412,20.84729 27.75397,21.14026 L27.683658,21.26526 C27.214908,22.1012 26.121158,24.06216 27.359438,24.88246 C27.867248,25.21449 28.812538,25.27309 29.820338,25.30824 L30.050808,25.316052 C30.605498,25.33949 31.164108,25.343396 31.722708,25.347302 C32.218798,25.351208 32.710988,25.355115 33.199308,25.374646 C33.199308,25.374646 33.336028,25.378552 33.339928,25.378552 C33.859458,25.378552 34.355528,25.273082 34.836028,25.171522 C35.386808,25.054332 35.898528,24.944962 36.406328,24.999642 C38.847728,25.269172 41.371128,25.370732 43.812528,25.464482 C44.503938,25.491826 45.199228,25.519169 45.886728,25.550419 C47.117228,25.605107 48.316428,25.593388 49.519528,25.581669 C50.542928,25.56995 51.628928,25.577763 52.699228,25.6637 C53.289068,25.710576 53.902328,25.761357 54.511728,25.761357 C54.804698,25.761357 55.097668,25.749638 55.390638,25.722294 L55.621108,25.702763 C56.406268,25.640263 57.082008,25.569953 57.425808,25.284793 C57.816428,24.960573 58.218778,24.319953 57.921898,23.105093 C57.550808,21.585593 56.226598,19.702793 55.515698,18.690993 C55.382888,18.503493 55.273508,18.347243 55.132888,18.155833 C55.08992,18.101145 54.996168,17.901923 54.937578,17.737863 L54.898516,17.628483 L54.816484,17.550358 C54.753984,17.487858 54.652424,17.323798 54.597734,17.214418 C54.367264,16.792538 54.132894,16.347228 53.933674,15.987818 C53.730554,15.300318 53.312584,14.550318 52.734474,13.808118 C52.429784,13.300308 52.019634,12.636218 51.507874,11.999518 C51.312564,11.804208 51.140684,11.565928 50.961004,11.312018 C50.582094,10.780768 50.082094,10.546398 49.644604,10.073718 C49.207104,9.604968 48.929764,9.015118 48.472704,8.558118 C48.152394,8.237808 47.558644,7.913588 47.156304,7.651868 C46.406304,7.163588 45.781304,6.788588 45.082104,6.226068 C44.039104,5.390128 42.601604,4.714368 41.402404,4.097168 C38.808604,2.761268 37.386804,4.241698 36.191504,6.491668 C36.050884,6.651828 35.871194,6.917448 35.781344,7.046358 C34.843844,7.815888 34.269644,8.940858 33.711044,10.022958 L33.711,10.023 Z" id="Shape"></path>
            <path d="M58.906,28.234 C58.73803,27.91759 58.48022,27.65978 58.13256,27.47619 C57.65209,27.21838 56.99976,27.09338 56.13646,27.09338 C55.42162,27.09338 54.68336,26.99963 54.03096,27.073849 C53.5583,27.128536 53.14424,26.99963 52.86296,26.99963 L49.71456,26.99963 C44.65986,26.99963 39.80436,27.026974 35.72256,26.87854 C35.60537,26.874634 35.48037,26.956665 35.35147,26.956665 C34.37491,26.956665 33.68347,27.151975 33.24207,27.468385 C32.65223,27.886355 32.50769,28.398075 32.48816,28.733985 C32.42566,29.839485 33.60926,30.917585 34.39436,31.624585 C34.52327,31.737865 34.63655,31.847245 34.7303,31.937085 L35.24202,32.429275 C36.62872,33.745675 38.19512,35.241775 39.08582,36.796475 C39.70691,37.886275 40.48422,38.815975 41.19132,39.655875 C41.4921,40.155875 41.90226,40.585565 42.30072,40.999675 C42.54681,41.257485 42.80072,41.523115 43.06634,41.851235 C43.25384,42.038735 43.57806,42.534825 43.76946,42.847325 C43.97258,43.120765 44.17962,43.402015 44.38665,43.683265 C45.09759,44.655925 45.82805,45.663765 46.60545,46.421565 C46.8867,46.843445 47.25779,47.300475 47.84765,47.491865 C48.15624,47.648115 48.61718,47.683275 48.84765,47.691085 C49.07031,47.792645 49.30468,47.843425 49.55077,47.843425 C50.91797,47.843425 52.16797,46.257525 52.84377,45.405925 L52.96096,45.257485 C55.33206,42.292685 57.37506,37.730185 58.16406,33.616485 C58.203123,33.331325 58.238279,33.046175 58.27344,32.757105 C58.371096,31.968045 58.46875,31.155505 58.69141,30.417305 C58.734379,30.280585 58.78516,30.147775 58.83985,30.018865 C59.02735,29.538395 59.26954,28.932965 58.906256,28.233665 L58.906,28.234 Z" id="Shape"></path>
            <path d="M44.879,47.043 C44.75791,46.82425 44.64462,46.60159 44.53134,46.37894 C44.3165,45.95316 44.09384,45.51175 43.79696,45.09374 C43.30087,44.39062 42.75006,43.71484 42.21886,43.06254 C41.83214,42.58988 41.44542,42.11723 41.07826,41.62894 C40.02746,40.24224 39.00796,38.80084 38.02356,37.40624 L37.61731,36.82812 C36.89465,35.79292 36.15641,34.70702 34.36731,34.99222 C33.13681,35.19144 32.85171,36.44142 32.71501,37.04302 C32.42985,38.30082 32.32048,39.61332 32.2111,40.88282 C32.156412,41.54688 32.10172,42.21092 32.01969,42.86332 C31.9025,43.81254 31.715,44.76952 31.53141,45.69532 C31.42594,46.23829 31.31657,46.78512 31.22282,47.32812 C31.148602,47.7539 31.0861,48.18359 31.02751,48.61332 C30.90642,49.46879 30.77751,50.35162 30.55095,51.17972 C30.468919,51.4805 30.34783,51.81253 30.21892,52.15238 C29.85564,53.14457 29.44158,54.14848 29.68767,55.17578 C29.96111,56.33988 31.33997,56.99998 32.44547,56.99998 L32.457189,56.99998 C33.183749,56.99998 33.937689,56.929668 34.668089,56.74998 C34.964969,56.675761 35.257929,56.664042 35.535279,56.60936 C35.796999,56.558579 36.058719,56.542954 36.324339,56.49608 C37.265749,56.33592 38.234539,56.18358 39.132939,55.73436 C39.308719,55.648423 39.484499,55.52733 39.656379,55.39452 C39.761849,55.316395 39.863409,55.24218 39.964969,55.17968 C40.191529,55.132804 40.472779,54.99999 40.632939,54.78124 C42.015739,54.14452 42.933739,53.03904 43.820439,51.96484 C44.039189,51.69922 44.261849,51.43359 44.488409,51.17187 C44.586066,51.05859 44.687629,50.95703 44.789189,50.85937 C45.121219,50.52343 45.464969,50.17578 45.640749,49.58207 C45.918089,48.64066 45.511839,48.02737 45.156369,47.48827 C45.066525,47.35155 44.976679,47.21483 44.879029,47.04296 L44.879,47.043 Z" id="Shape"></path>
            <path d="M30.57,42.691 C30.67938,42.19881 30.78875,41.70662 30.92938,41.2144 C31.1286,40.51909 31.3161,39.8589 31.34344,39.0933 L31.351252,38.96049 C31.370784,38.4644 31.402034,37.78469 31.253596,37.17139 C31.093436,36.49561 30.749686,36.05029 30.237996,35.83939 C29.484086,35.5308 28.253596,35.866734 27.355196,36.1597 C27.113006,36.237825 26.890356,36.31204 26.698946,36.36282 C26.386446,36.440945 26.066136,36.49173 25.749726,36.5386 C25.460666,36.581569 25.175506,36.628444 24.894256,36.69094 C24.605196,36.757346 24.327846,36.83547 24.050506,36.9175 C23.640346,37.03469 23.253626,37.14797 22.851306,37.19875 C22.425526,37.253437 22.003646,37.30031 21.581806,37.34719 C21.015396,37.40969 20.449006,37.4761 19.874806,37.55422 C19.054496,37.6675 18.277106,37.89797 17.527106,38.12063 C16.929446,38.29641 16.366906,38.46438 15.781006,38.57766 C14.730206,38.78078 13.710706,39.06594 12.722406,39.33938 L11.816156,39.58938 C10.980216,39.81594 10.136456,39.92922 9.241956,40.05032 L9.031016,40.077664 C8.480236,40.151883 7.956816,40.280784 7.452916,40.405784 C7.050576,40.50344 6.648226,40.605004 6.234116,40.675314 L6.120836,40.694845 C5.183336,40.851095 4.296636,40.999535 3.929436,41.698745 C3.702876,42.132335 3.741936,42.663585 4.050526,43.323745 C4.421616,44.120625 4.902086,44.526845 5.456726,44.995645 L5.640316,45.151895 C5.859066,45.339395 6.062196,45.526895 6.261406,45.714395 C6.648126,46.069865 7.042656,46.440955 7.523106,46.776895 C8.237946,47.280805 8.952806,47.839395 9.562206,48.319895 C10.941106,49.405795 12.648106,50.538695 14.777006,51.776895 C15.374666,52.124555 15.945006,52.558145 16.495806,52.976095 C17.417686,53.675315 18.374706,54.401895 19.554406,54.819895 C20.480186,55.144115 21.874706,55.542555 23.284906,55.593335 L23.429436,55.597241 C24.113026,55.597241 24.702836,55.425361 25.323936,55.241771 L25.421592,55.214427 C25.538782,55.179271 25.663782,55.151927 25.784872,55.124583 C26.023152,55.073802 26.261432,55.019113 26.484092,54.929273 C27.366902,54.573803 27.585692,53.749573 27.761392,53.093373 C27.804361,52.929313 27.847329,52.769153 27.902012,52.616813 C28.144202,51.917593 28.300452,51.198813 28.452792,50.507413 C28.530917,50.144133 28.609042,49.780853 28.702792,49.421513 C28.960602,48.409813 29.269202,47.386313 29.569982,46.394213 C29.796542,45.644213 30.023112,44.894213 30.230142,44.136413 C30.355142,43.648133 30.460612,43.171573 30.569982,42.691113 L30.57,42.691 Z" id="Shape"></path>
        </g>
    </g>
</svg>