<?xml version="1.0" encoding="UTF-8"?>
<svg width="84px" height="84px" viewBox="0 0 84 84" version="1.1" xmlns="http://www.w3.org/2000/svg" xmlns:xlink="http://www.w3.org/1999/xlink">
    <!-- Generator: Sketch 49.3 (51167) - http://www.bohemiancoding.com/sketch -->
    <title>icon/pointer-green</title>
    <desc>Created with Sketch.</desc>
    <defs></defs>
    <g id="icon/pointer-green" stroke="none" stroke-width="1" fill="none" fill-rule="evenodd">
        <g id="np_cursor_806709_000000" transform="translate(21.000000, 15.000000)" fill="#095FEA" fill-rule="nonzero">
            <path d="M34.9431759,33.0822614 C35.1901345,32.7916698 35.6885576,32.465325 36.1331381,32.1792083 C36.4115355,32.0003853 36.6764607,31.8260372 36.8919919,31.6606159 C37.1793669,31.4370901 37.5116413,31.2001511 37.8618824,30.9542623 C39.2942741,29.9394405 41.0724353,28.6787185 41.6336211,27.0514009 C43.4521298,23.1843612 38.0593664,19.6883578 35.1542356,17.8062818 L34.7411284,17.5380416 C32.859742,16.3086551 31.005254,14.9942347 29.2091606,13.7202141 C27.5028431,12.5086813 25.7382459,11.2569777 23.9466355,10.0766888 C22.4379171,9.08421847 20.969661,7.98448866 19.5462354,6.92494108 C17.46725,5.37361603 15.316421,3.76872992 12.9994892,2.44984612 C10.0943583,0.800211345 7.78179462,0 5.92742155,0 L5.92293045,0 L5.74781565,0.0268240182 C5.55473417,0.0894114864 5.18204335,0.107293784 4.78241974,0.125176081 C3.67333636,0.178822973 2.15109975,0.245883018 1.23069527,1.36795283 C-0.475622235,3.45122615 0.000385631318,6.67003967 0.283254542,8.59240093 C0.521235485,10.2063283 0.584101629,11.7753926 0.642473229,13.4385321 C0.673905151,14.2924075 0.70982702,15.1463058 0.763710973,16.0046561 C0.929848178,18.4500388 1.35193301,20.8998849 1.75605116,23.2738528 C1.95811023,24.4495638 2.16016931,25.6253892 2.33080106,26.8011002 L2.69001975,29.2107755 C3.04474389,31.5757022 3.41295166,34.0210849 3.68235993,36.4307602 L3.7721646,37.2801722 C4.04158437,39.8641499 4.31997023,42.5376248 5.85563299,44.7549152 C7.21618095,46.7220252 8.97629504,47.768068 10.9430892,47.7814583 C13.453137,47.7591057 16.1472196,46.1721088 18.3160959,43.3958607 C19.4476405,44.6655324 20.7587829,45.7429336 22.034038,46.7889765 C22.7659475,47.3880363 23.5248243,48.0138996 24.2298125,48.6576623 C24.8539564,49.2298958 25.3927615,49.8915122 25.9630283,50.5934138 C26.6500384,51.4428258 27.3640387,52.3190412 28.2440957,53.0209428 C29.0568266,53.6691804 30.1165159,54 31.3064781,54 C32.1596254,54 33.0801563,53.8301153 34.0275741,53.4948208 C37.0270788,52.4263578 39.5595418,49.9854271 40.0489988,47.6875662 C40.4306673,45.8814828 39.3979107,44.044041 38.4818858,42.4211868 C38.2349272,41.9830733 37.9969348,41.5583616 37.8038648,41.1649053 C36.9596951,39.4258877 35.8640839,37.1280268 34.903217,34.7406685 C34.7685071,34.405374 34.6517639,34.1550219 34.5619535,33.9672606 C34.4990908,33.8331405 34.4272436,33.6677307 34.4047939,33.7213833 C34.4317359,33.6677364 34.5664366,33.5067957 34.7011464,33.3547991 L34.9431759,33.0822614 Z M28.5625324,32.6396731 C28.3874176,34.6246368 29.7928421,36.904644 31.0366009,38.9208515 C31.4497081,39.5914405 31.8403541,40.2217672 32.1142569,40.7582933 C32.6890068,41.8848838 33.0572031,43.01152 33.4433086,44.2006213 C33.5825015,44.6297964 33.721706,45.0589715 33.8788656,45.5015369 L33.9776501,45.7787154 C34.3817683,46.9231824 34.3817683,46.9231824 33.3086068,47.8709156 L33.0796034,48.0765648 C32.2803447,48.7918567 32.2489059,48.818683 31.5395036,48.5325663 C30.6279847,48.1659821 29.8331861,47.155658 29.0609521,46.1810299 C28.6703061,45.6848004 28.3020983,45.2153858 27.9159469,44.8309021 C27.1930149,43.9367873 26.3622829,43.1634137 25.5585527,42.4167634 C24.6335617,41.5584131 23.7579762,40.7448115 23.0350558,39.7612565 L22.8195246,39.4662015 C21.7239133,37.968552 20.4800626,36.2697051 18.0284094,36.846402 C16.1020776,37.2979286 14.4496717,38.893968 12.8511772,40.4407152 C12.2225388,41.0487133 11.6208676,41.6343943 11.0281855,42.1126671 C10.8934756,41.4733792 10.8440816,40.6865467 10.7991822,39.9220427 C10.7542804,39.1486348 10.7093775,38.4154663 10.5791564,37.7806305 C10.3007591,36.4305027 10.1570716,35.129587 9.99991197,33.7482153 L9.87417968,32.635038 C9.66314301,30.8557352 9.20513631,29.1211809 8.75610721,27.4401878 C8.35198906,25.9112943 7.92990423,24.3286108 7.70987847,22.7415784 L7.48087512,21.1768631 C6.73101042,15.8524591 5.95870749,10.349175 6.27746378,5.05132267 C8.97166141,5.7621397 11.5355058,7.71129293 13.8210562,9.45042503 C14.2251744,9.75889322 14.6203149,10.0584231 15.0110184,10.3490148 C17.8668357,12.4725733 21.207512,14.9313463 24.6470453,17.238134 C26.6272886,18.5659447 28.5041919,20.1171553 30.3182175,21.6148048 C31.4901326,22.5849237 32.70251,23.5819148 33.9328196,24.5207211 C34.8084166,25.1868352 35.7154639,25.8753122 35.7154639,26.1971364 C35.7154639,26.5503074 34.6961795,27.3281902 34.3638821,27.5829715 C33.923842,27.918266 33.286226,28.2669736 32.6127341,28.629083 C30.7942254,29.6170785 28.7286892,30.7346734 28.5625865,32.639181 L28.5625324,32.6396731 Z" id="Shape"></path>
        </g>
    </g>
</svg>